<svg width="24" height="24" viewBox="0 0 24 24" fill="none" xmlns="http://www.w3.org/2000/svg">
<path d="M18.8456 19.5C18.0156 20.74 17.1356 21.95 15.7956 21.97C14.4556 22 14.0256 21.18 12.5056 21.18C10.9756 21.18 10.5056 21.95 9.23559 22C7.92559 22.05 6.93559 20.68 6.09559 19.47C4.38559 17 3.07559 12.45 4.83559 9.39C5.70559 7.87 7.26559 6.91 8.95559 6.88C10.2356 6.86 11.4556 7.75 12.2456 7.75C13.0256 7.75 14.5056 6.68 16.0556 6.84C16.7056 6.87 18.5256 7.1 19.6956 8.82C19.6056 8.88 17.5256 10.1 17.5456 12.63C17.5756 15.65 20.1956 16.66 20.2256 16.67C20.1956 16.74 19.8056 18.11 18.8456 19.5ZM13.1356 3.5C13.8656 2.67 15.0756 2.04 16.0756 2C16.2056 3.17 15.7356 4.35 15.0356 5.19C14.3456 6.04 13.2056 6.7 12.0856 6.61C11.9356 5.46 12.4956 4.26 13.1356 3.5Z" fill="#0C0D0E"/>
</svg>
