<svg width="17" height="20" viewBox="0 0 17 20" fill="none" xmlns="http://www.w3.org/2000/svg">
<path d="M14.8456 17.5C14.0156 18.74 13.1356 19.95 11.7956 19.97C10.4556 20 10.0256 19.18 8.50559 19.18C6.97559 19.18 6.50559 19.95 5.23559 20C3.92559 20.05 2.93559 18.68 2.09559 17.47C0.38559 15 -0.92441 10.45 0.83559 7.39C1.70559 5.87 3.26559 4.91 4.95559 4.88C6.23559 4.86 7.45559 5.75 8.24559 5.75C9.02559 5.75 10.5056 4.68 12.0556 4.84C12.7056 4.87 14.5256 5.1 15.6956 6.82C15.6056 6.88 13.5256 8.1 13.5456 10.63C13.5756 13.65 16.1956 14.66 16.2256 14.67C16.1956 14.74 15.8056 16.11 14.8456 17.5ZM9.13559 1.5C9.86559 0.67 11.0756 0.04 12.0756 0C12.2056 1.17 11.7356 2.35 11.0356 3.19C10.3456 4.04 9.20559 4.7 8.08559 4.61C7.93559 3.46 8.49559 2.26 9.13559 1.5Z" fill="#0C0D0E"/>
</svg>
