<svg width="24" height="24" viewBox="0 0 24 24" fill="none" xmlns="http://www.w3.org/2000/svg">
<path d="M9.32142 4.43335C7.72278 4.98794 6.3441 6.04056 5.38791 7.4366C4.43172 8.83265 3.94841 10.4985 4.00898 12.1896C4.06954 13.8806 4.67078 15.5076 5.72439 16.8317C6.77801 18.1558 8.22845 19.1071 9.86267 19.5459C11.1876 19.8877 12.5757 19.9027 13.9077 19.5896C15.1143 19.3186 16.2299 18.7388 17.1452 17.9071C18.0978 17.015 18.7892 15.8802 19.1452 14.6246C19.5321 13.2592 19.6009 11.8233 19.3464 10.4271H11.9064V13.5134H16.2152C16.1291 14.0056 15.9445 14.4754 15.6726 14.8946C15.4007 15.3139 15.047 15.674 14.6327 15.9534C14.1065 16.3014 13.5134 16.5356 12.8914 16.6409C12.2676 16.7568 11.6277 16.7568 11.0039 16.6409C10.3717 16.5101 9.77355 16.2492 9.24767 15.8746C8.40286 15.2766 7.76852 14.427 7.43517 13.4471C7.09619 12.4488 7.09619 11.3666 7.43517 10.3684C7.67246 9.66862 8.06472 9.03152 8.58267 8.5046C9.17541 7.89054 9.92584 7.4516 10.7516 7.23595C11.5774 7.0203 12.4466 7.03627 13.2639 7.2821C13.9024 7.47809 14.4862 7.82052 14.9689 8.2821C15.4548 7.79877 15.9398 7.31419 16.4239 6.82835C16.6739 6.5671 16.9464 6.31835 17.1927 6.05085C16.4559 5.3652 15.591 4.83167 14.6477 4.48085C12.9298 3.85709 11.0501 3.84033 9.32142 4.43335Z" fill="#515962"/>
<path d="M9.32128 4.43347C11.0499 3.84004 12.9295 3.85636 14.6475 4.47972C15.591 4.83293 16.4555 5.36902 17.1913 6.05722C16.9413 6.32472 16.6775 6.57472 16.4225 6.83472C15.9375 7.31889 15.4529 7.80139 14.9688 8.28222C14.4861 7.82064 13.9022 7.47821 13.2638 7.28222C12.4467 7.03552 11.5776 7.01863 10.7516 7.2334C9.92555 7.44817 9.17467 7.8863 8.58128 8.49972C8.06332 9.02664 7.67106 9.66374 7.43378 10.3635L4.84253 8.35722C5.77004 6.51792 7.37597 5.111 9.32128 4.43347Z" fill="#E33629"/>
<path d="M4.155 10.3449C4.29427 9.65466 4.5255 8.9862 4.8425 8.35742L7.43375 10.3687C7.09476 11.3669 7.09476 12.4492 7.43375 13.4474C6.57041 14.1141 5.70666 14.7841 4.8425 15.4574C4.04893 13.8778 3.80691 12.078 4.155 10.3449Z" fill="#F8BD00"/>
<path d="M11.9063 10.4258H19.3463C19.6008 11.8219 19.532 13.2579 19.1451 14.6233C18.7891 15.8789 18.0977 17.0137 17.1451 17.9058C16.3088 17.2533 15.4688 16.6058 14.6326 15.9533C15.0472 15.6736 15.401 15.3131 15.673 14.8934C15.9449 14.4737 16.1293 14.0035 16.2151 13.5108H11.9063C11.9051 12.4833 11.9063 11.4545 11.9063 10.4258Z" fill="#587DBD"/>
<path d="M4.84131 15.4573C5.70548 14.7906 6.56923 14.1206 7.43256 13.4473C7.76657 14.4275 8.40181 15.2771 9.24756 15.8748C9.77507 16.2476 10.3745 16.5064 11.0076 16.6348C11.6314 16.7508 12.2712 16.7508 12.8951 16.6348C13.5171 16.5295 14.1102 16.2953 14.6363 15.9473C15.4726 16.5998 16.3126 17.2473 17.1488 17.8998C16.2337 18.7319 15.1181 19.3121 13.9113 19.5835C12.5793 19.8966 11.1912 19.8816 9.86631 19.5398C8.81844 19.26 7.83965 18.7668 6.99131 18.091C6.09339 17.3781 5.36 16.4797 4.84131 15.4573Z" fill="#319F43"/>
</svg>
