<svg width="70" height="70" fill="none" xmlns="http://www.w3.org/2000/svg"><path fill="#fff" d="M0 0h70v70H0z"/><path fill-rule="evenodd" clip-rule="evenodd" d="M19.13 65.695c.822.185 1.677.283 2.554.283h23.039c9.077 0 16.435-7.359 16.435-16.436 0-7.358-4.835-13.587-11.502-15.682L19.13 65.695z" fill="#6E58F7"/><path d="M9 15.882C9 9.872 13.872 5 19.882 5h25.516c6.01 0 10.882 4.872 10.882 10.882v13.961c0 2.906-1.162 5.691-3.227 7.735L27.537 62.831C20.665 69.63 9 64.764 9 55.096V15.882z" fill="url(#a)"/><path d="M30.015 21.323a6.192 6.192 0 0 1 6.191-6.192h20.076v12.384H36.206a6.192 6.192 0 0 1-6.191-6.192z" fill="#fff"/><path d="M36.357 24.326c1.556 0 2.818-1.345 2.818-3.003 0-1.657-1.262-3.002-2.818-3.002s-2.818 1.345-2.818 3.002c0 1.659 1.262 3.003 2.818 3.003z" fill="#6E58F7"/><defs><linearGradient id="a" x1="15.661" y1="60.04" x2="56.282" y2="5.001" gradientUnits="userSpaceOnUse"><stop stop-color="#A293FF"/><stop offset="1" stop-color="#6E58F7"/></linearGradient></defs></svg>