<svg width="70" height="70" fill="none" xmlns="http://www.w3.org/2000/svg"><path d="M50.016 26.355h-16.63a2.946 2.946 0 0 1-2.949-2.948 2.946 2.946 0 0 1 2.948-2.948h16.631a2.946 2.946 0 0 1 2.948 2.948 2.946 2.946 0 0 1-2.948 2.948zM43.313 37.84H26.692a2.946 2.946 0 0 1-2.948-2.948 2.946 2.946 0 0 1 2.948-2.947h16.621a2.946 2.946 0 0 1 2.948 2.947 2.946 2.946 0 0 1-2.948 2.948zM36.534 49.526H19.903a2.946 2.946 0 0 1-2.948-2.947 2.946 2.946 0 0 1 2.948-2.948h16.63a2.946 2.946 0 0 1 2.948 2.948 2.946 2.946 0 0 1-2.947 2.947z" fill="#00B682"/><path d="M62.29 33.034a3.195 3.195 0 0 0-.387-.607l4.438-7.644c2.418-4.157 2.432-9.13.034-13.3-2.403-4.177-6.708-6.67-11.529-6.67h-20.08c-4.706 0-9.111 2.536-11.495 6.621L3.659 45.217c-2.418 4.157-2.432 9.13-.034 13.3 2.403 4.177 6.708 6.67 11.529 6.67h34.408c6.13 0 11.739-3.095 15.002-8.289a17.621 17.621 0 0 0 .97-17.108l-3.244-6.756zM20.228 58.953h-5.08a6.989 6.989 0 0 1-6.12-3.54 6.973 6.973 0 0 1 .02-7.057L28.67 14.568a7.096 7.096 0 0 1 6.105-3.52h20.08a6.989 6.989 0 0 1 6.121 3.54 6.973 6.973 0 0 1-.02 7.056l-19.63 33.792a7.052 7.052 0 0 1-6.087 3.512H20.228v.005z" fill="#00B682"/></svg>