<svg xmlns="http://www.w3.org/2000/svg" width="70" height="70"><path d="M48.584 38.23h-.17a3.673 3.673 0 0 1-3.167-2.053c-.77-1.54-.342-3.38.898-4.408-2.78 1.412-14.847 7.36-17.543 8.644-.17.085-.3.128-.385.17a3.567 3.567 0 0 0-1.797 4.58c.171.384.385.727.685 1.069.984 1.027 2.439 1.412 3.722.984a.619.619 0 0 1 .3-.086l.513-.214 1.07-.427c.214-.086 16.944-8.301 16.944-8.301.171-.086.3-.129.47-.214-.47.128-1.026.256-1.54.256z" fill="#FF1F1F"/><path d="M58.983 22.27c-.128-2.31-.556-4.45-1.284-6.418a12.643 12.643 0 0 0-1.54-2.91 20.91 20.91 0 0 0-1.968-2.396A18.003 18.003 0 0 0 46.66 5.84c-3.466-1.113-7.017-1.113-10.569-.043-.128.043-.257.086-.428.128-1.711.557-3.337 1.455-4.92 2.61a18.124 18.124 0 0 0-4.878 5.606c-.813 1.454-1.327 3.08-1.498 4.878a3.815 3.815 0 0 1 1.926-2.397c1.84-.898 4.065-.17 4.963 1.67.214.427.342.855.385 1.283 0-.128.043-.257.043-.385.3-2.054 1.54-3.766 3.765-5.22a11.635 11.635 0 0 1 2.653-1.284c2.354-.77 4.835-.642 7.317.385 3.937 1.626 6.59 5.862 6.333 10.098-.129 1.925-.557 3.423-1.37 4.707-.813 1.326-1.84 2.396-3.038 3.166a3.64 3.64 0 0 1 4.408 1.883c.898 1.797.17 3.98-1.626 4.92a15.45 15.45 0 0 0 7.702-8.942c.213-.557.385-1.07.513-1.626.556-1.669.727-3.338.642-5.007z" fill="#AA02D3"/><path d="M51.835 32.925c-.813-1.669-2.696-2.396-4.407-1.883-.171.043-.342.128-.514.214-.256.128-.513.3-.77.514-1.24 1.07-1.669 2.866-.898 4.407a3.651 3.651 0 0 0 3.166 2.053h.171c.514 0 1.07-.128 1.583-.385 0 0 .043 0 .043-.042a3.634 3.634 0 0 0 1.626-4.878z" fill="#EF726C"/><path d="M31.64 19.618c-.042-.557-.256-1.113-.599-1.626-.941-1.455-2.824-2.054-4.407-1.455a3.701 3.701 0 0 0-2.268 2.524 3.965 3.965 0 0 0-.085 1.584c.043.342.171.684.342 1.027a4.076 4.076 0 0 0 1.626 1.668 3.807 3.807 0 0 0 3.338.043c1.454-.77 2.225-2.268 2.053-3.765z" fill="#FF7878"/><path d="M43.577 24.581c-.899-1.797-3.038-2.524-4.835-1.626-.129.086-.3.171-.428.257l-1.07.428c-.214.085-16.944 8.3-16.944 8.3-.171.086-.3.129-.47.215a3.457 3.457 0 0 1 1.582-.386h.171a3.674 3.674 0 0 1 3.167 2.054c.77 1.54.342 3.38-.899 4.407 2.781-1.411 14.848-7.36 17.5-8.643.215-.043.386-.128.557-.214 1.797-.855 2.524-3.038 1.669-4.792z" fill="#2D2F54"/><path d="M11.017 47.73c.128 2.31.556 4.45 1.284 6.418a12.643 12.643 0 0 0 1.54 2.91 20.91 20.91 0 0 0 1.968 2.395 18.002 18.002 0 0 0 7.53 4.707c3.467 1.113 7.018 1.113 10.57.043.128-.043.256-.086.428-.128 1.711-.557 3.337-1.455 4.92-2.61a18.124 18.124 0 0 0 4.878-5.606c.813-1.455 1.327-3.08 1.498-4.878a3.814 3.814 0 0 1-1.926 2.397c-1.84.898-4.065.17-4.963-1.67a3.68 3.68 0 0 1-.385-1.283c0 .129-.043.257-.043.385-.3 2.054-1.54 3.766-3.766 5.22-.855.557-1.754.985-2.652 1.284-2.354.77-4.835.642-7.317-.385-3.937-1.626-6.59-5.862-6.333-10.098.128-1.925.556-3.423 1.37-4.707.812-1.326 1.84-2.396 3.037-3.166a3.64 3.64 0 0 1-4.407-1.883c-.898-1.797-.171-3.98 1.626-4.92a15.45 15.45 0 0 0-7.702 8.942c-.214.557-.385 1.07-.513 1.626-.557 1.669-.728 3.338-.642 5.007z" fill="#0847F9"/><path d="M24.753 33.823a3.652 3.652 0 0 0-3.166-2.054h-.172c-.513 0-1.07.129-1.583.386 0 0-.043 0-.043.042-1.797.899-2.524 3.081-1.626 4.92.813 1.67 2.696 2.397 4.408 1.884a2.62 2.62 0 0 0 .513-.214c.257-.129.514-.3.77-.514 1.241-1.07 1.669-2.91.899-4.45z" fill="#8761FF"/><path d="M45.718 49.398c-.043-.342-.171-.684-.342-1.027a4.075 4.075 0 0 0-1.626-1.668 3.807 3.807 0 0 0-3.338-.043 3.824 3.824 0 0 0-2.053 3.722c.042.557.256 1.113.599 1.626.94 1.455 2.824 2.054 4.407 1.455a3.701 3.701 0 0 0 2.268-2.524c.128-.471.17-1.027.085-1.54z" fill="#25BF88"/><path d="M45.718 49.398c-.043-.342-.171-.684-.342-1.027a4.075 4.075 0 0 0-1.626-1.668 3.807 3.807 0 0 0-3.338-.043 3.824 3.824 0 0 0-2.053 3.722c.042.557.256 1.113.599 1.626.94 1.455 2.824 2.054 4.407 1.455a3.701 3.701 0 0 0 2.268-2.524c.128-.471.17-1.027.085-1.54z" fill="#0847F9" fill-opacity=".118"/></svg>