<svg width="70" height="70" viewBox="0 0 70 70" fill="none" xmlns="http://www.w3.org/2000/svg">
<path fill-rule="evenodd" clip-rule="evenodd" d="M17.5598 25.78C18.3275 25.78 18.9498 25.1576 18.9498 24.39C18.9498 23.6224 18.3275 23 17.5598 23L17.558 23.0001L17.5575 23.0001L17.5561 23.0002C14.4873 23.0022 12 25.4905 12 28.5599C12 31.6306 14.4893 34.1197 17.5598 34.1197C18.3275 34.1197 18.9498 33.4974 18.9498 32.7298C18.9498 31.9621 18.3275 31.3398 17.5598 31.3398L17.5586 31.3399C16.0239 31.3392 14.7799 30.0948 14.7799 28.5599C14.7799 27.0246 16.0245 25.78 17.5598 25.78ZM44.8586 25.7799L44.8598 25.78C45.6275 25.78 46.2498 25.1577 46.2498 24.39C46.2498 23.6223 45.6275 23 44.8598 23C41.7892 23 39.3 25.4893 39.3 28.5598C39.3 31.6292 41.7873 34.1176 44.8561 34.1196C44.8574 34.1196 44.8586 34.1197 44.8598 34.1197C45.6275 34.1197 46.2498 33.4974 46.2498 32.7298C46.2498 31.9621 45.6275 31.3398 44.8598 31.3398C43.3245 31.3398 42.0799 30.0951 42.0799 28.5598C42.0799 27.0249 43.3239 25.7805 44.8586 25.7799ZM20.05 28.5599C20.05 25.4893 22.5393 23 25.6099 23C26.3776 23 26.9999 23.6223 26.9999 24.39C26.9999 25.1577 26.3776 25.78 25.6099 25.78C24.0746 25.78 22.83 27.0246 22.83 28.5599V32.7299C22.83 33.4976 22.2077 34.1198 21.44 34.1198C20.6723 34.1198 20.05 33.4975 20.05 32.7299V28.5599ZM35.45 23.7503C34.3824 23.1339 33.1413 22.887 31.9191 23.0479C30.6969 23.2088 29.5619 23.7685 28.6902 24.6402C27.8185 25.5119 27.2588 26.6469 27.0979 27.8691C26.937 29.0913 27.1839 30.3324 27.8003 31.4C28.4166 32.4676 29.3681 33.302 30.507 33.7737C31.6459 34.2455 32.9086 34.3283 34.0994 34.0092C34.8462 33.8091 35.2895 33.0414 35.0893 32.2945C34.8892 31.5477 34.1216 31.1045 33.3747 31.3046C32.7793 31.4641 32.148 31.4228 31.5785 31.1869C31.009 30.951 30.5333 30.5338 30.2251 30C29.9169 29.4662 29.7935 28.8456 29.874 28.2345C29.9544 27.6234 30.2343 27.056 30.6701 26.6201C31.106 26.1843 31.6734 25.9044 32.2845 25.824C32.8956 25.7435 33.5162 25.8669 34.05 26.1751C34.5838 26.4833 35.001 26.959 35.2369 27.5285C35.4728 28.0979 35.5141 28.7293 35.3546 29.3247C35.1545 30.0716 35.5977 30.8392 36.3445 31.0393C37.0914 31.2395 37.8591 30.7962 38.0592 30.0494C38.3782 28.8587 38.2955 27.5959 37.8237 26.457C37.352 25.3181 36.5176 24.3666 35.45 23.7503ZM51.8691 23.0479C53.0913 22.887 54.3324 23.1339 55.4 23.7503C56.4676 24.3666 57.302 25.3181 57.7737 26.457C58.2455 27.5959 58.3282 28.8587 58.0092 30.0494C57.8091 30.7962 57.0414 31.2395 56.2945 31.0393C55.5477 30.8392 55.1045 30.0716 55.3046 29.3247C55.4641 28.7293 55.4228 28.0979 55.1869 27.5285C54.951 26.959 54.5338 26.4833 54 26.1751C53.4662 25.8669 52.8456 25.7435 52.2345 25.824C51.6234 25.9044 51.056 26.1843 50.6201 26.6201C50.1843 27.056 49.9044 27.6234 49.824 28.2345C49.7435 28.8456 49.8669 29.4662 50.1751 30C50.4833 30.5338 50.959 30.951 51.5285 31.1869C52.098 31.4228 52.7293 31.4641 53.3247 31.3046C54.0716 31.1045 54.8392 31.5477 55.0393 32.2945C55.2395 33.0414 54.7962 33.8091 54.0494 34.0092C52.8586 34.3283 51.5959 34.2455 50.457 33.7737C49.3181 33.302 48.3666 32.4676 47.7503 31.4C47.1339 30.3324 46.887 29.0913 47.0479 27.8691C47.2088 26.6469 47.7685 25.5119 48.6402 24.6402C49.5119 23.7685 50.6469 23.2088 51.8691 23.0479Z" fill="#0DC167"/>
<path fill-rule="evenodd" clip-rule="evenodd" d="M23.5448 38.3611C22.287 38.3611 21.1705 38.969 20.4692 39.9087V35.5918H20.4691C20.4686 35.3784 20.2968 35.2057 20.0847 35.2057C19.8726 35.2057 19.7007 35.3785 19.7003 35.5918H19.7002V42.2302C19.7002 44.367 21.4215 46.0993 23.5448 46.0993C25.668 46.0993 27.3893 44.367 27.3893 42.2302C27.3893 40.0934 25.668 38.3611 23.5448 38.3611ZM23.5448 45.3254C21.8462 45.3254 20.4692 43.9396 20.4692 42.2302C20.4692 40.5208 21.8462 39.135 23.5448 39.135C25.2434 39.135 26.6204 40.5208 26.6204 42.2302C26.6204 43.9396 25.2434 45.3254 23.5448 45.3254ZM29.3484 35.6533C29.348 35.4399 29.1761 35.2671 28.964 35.2671C28.7519 35.2671 28.58 35.44 28.5796 35.6533H28.5795V45.7128C28.5795 45.9265 28.7516 46.0998 28.964 46.0998C29.1763 46.0998 29.3485 45.9266 29.3485 45.7128L29.3484 35.6533ZM30.4142 42.2309C30.4142 40.094 32.1354 38.3618 34.2587 38.3618C36.382 38.3618 38.1032 40.094 38.1033 42.2309C38.1033 44.3677 36.382 46.1 34.2587 46.1C32.1354 46.1 30.4142 44.3677 30.4142 42.2309ZM31.1831 42.2309C31.1831 43.9403 32.5601 45.3261 34.2587 45.3261C35.9573 45.3261 37.3343 43.9403 37.3343 42.2309C37.3343 40.5214 35.9573 39.1356 34.2587 39.1356C32.5601 39.1356 31.1831 40.5214 31.1831 42.2309ZM43.0238 45.3261C41.3252 45.3261 39.9482 43.9403 39.9482 42.2309C39.9482 40.5214 41.3252 39.1356 43.0238 39.1356C43.2361 39.1356 43.4083 38.9624 43.4083 38.7487C43.4083 38.535 43.2362 38.3618 43.0238 38.3618C40.9006 38.3618 39.1793 40.094 39.1793 42.2309C39.1793 44.3677 40.9006 46.1 43.0238 46.1C43.2361 46.1 43.4083 45.9268 43.4083 45.713C43.4083 45.4993 43.2361 45.3261 43.0238 45.3261ZM48.0517 41.5254L50.5829 45.5048C50.6968 45.6848 50.6446 45.9236 50.466 46.0387C50.2874 46.1538 50.05 46.1015 49.9354 45.9221H49.9353L47.495 42.0856L45.9052 43.6856V45.7128C45.9052 45.9266 45.733 46.0998 45.5207 46.0998C45.3083 46.0998 45.1362 45.9265 45.1362 45.7128V35.6533H45.1363C45.1367 35.44 45.3086 35.2671 45.5207 35.2671C45.7328 35.2671 45.9046 35.4399 45.9051 35.6533H45.9052V42.5911L49.9873 38.4829L49.9874 38.483C50.1376 38.3324 50.3806 38.3325 50.5306 38.4834C50.6805 38.6343 50.6806 38.8789 50.531 39.03L50.5311 39.0301L48.0517 41.5254Z" fill="#0F172A"/>
</svg>
