<svg width="70" height="70" fill="none" xmlns="http://www.w3.org/2000/svg"><path d="M9.662 7H7v10.374h2.662V7z" fill="#988FBD"/><path d="M7.001 7.024v2.662h10.374V7.024H7zM60.34 63H63V52.626h-2.662V63z" fill="#988FBD"/><path d="M63.001 62.991V60.33H52.627v2.661h10.374z" fill="#988FBD"/><path d="M28.43 31.228 24.199 30l-3.686 10.646c-.136.341.068.683.341.751l4.027 1.297a.686.686 0 0 0 .75-.342l3.481-9.827c.137-.614-.136-1.16-.682-1.297z" fill="#5B4E96"/><path d="M19.353 57.162c-4.437-.478-8.327-3.14-10.51-6.961-1.775-3.208-2.185-6.961-1.23-10.51 1.025-3.55 3.345-6.552 6.621-8.327l.819-.409c2.32-1.092 4.982-1.57 7.575-1.228.751.068 1.434.204 2.116.409l3.617 1.092c.546.136.82.75.614 1.228l-1.842 5.187-4.027-1.296c-.41-.137-.887-.205-1.297-.273-1.433-.137-2.798.068-4.094.682l-.41.205c-1.706.955-3.003 2.525-3.549 4.436a7.462 7.462 0 0 0 .614 5.665 7.538 7.538 0 0 0 5.665 3.753c1.365.137 2.798-.068 4.027-.682l.41-.205c1.637-.887 2.934-2.525 3.548-4.436l7.576-21.566c.955-3.413 3.344-6.348 6.551-8.122l.82-.41c2.32-1.091 4.981-1.57 7.507-1.228 4.436.478 8.326 3.14 10.51 6.961 3.685 6.62 1.297 15.083-5.392 18.837l-.819.41c-2.32 1.091-4.914 1.569-7.507 1.228a10.563 10.563 0 0 1-2.116-.41l-2.866-.819c-.273-.068-.41-.341-.341-.614l1.842-5.119c.069-.273.342-.41.615-.34l2.32.682h.068c.41.136.82.204 1.297.273 1.433.136 2.798-.069 4.095-.683l.41-.205c3.616-1.979 4.913-6.551 2.934-10.1a7.538 7.538 0 0 0-5.665-3.754c-1.365-.136-2.798.068-4.026.682l-.41.205c-1.57.888-2.661 2.253-3.549 4.436v.069L34.3 47.403c-1.024 3.412-3.412 6.347-6.552 8.121l-.819.41c-2.389 1.092-4.982 1.57-7.575 1.228z" fill="#5B4E96"/></svg>