<svg version="1.0" xmlns="http://www.w3.org/2000/svg" viewBox="0 0 70 70" xml:space="preserve"><g transform="translate(29 19)"><linearGradient id="a" gradientUnits="userSpaceOnUse" x1="-248.4" y1="272.501" x2="-248.4" y2="272.349" gradientTransform="matrix(374 0 0 -374 92906 101903)"><stop offset="0" style="stop-color:#2460ff"/><stop offset="1" style="stop-color:#b80aff"/></linearGradient><circle fill-rule="evenodd" clip-rule="evenodd" fill="url(#a)" cx="4.6" cy="16" r="28.3"/><path fill-rule="evenodd" clip-rule="evenodd" fill="#FFF" d="M-10.7 6.1h8.9c.5 0 1 .3 1.3.8.1.2.2.5.2.7 0 .6-.3 1-.9 1.4-.2.1-.4.1-.6.1h-9.1c-.4 0-.8-.2-1.1-.6-.2-.3-.3-.6-.3-.9 0-.5.2-.9.7-1.2.4-.2.6-.3.9-.3zm0 7.6h4.6c.3 0 .6.2 1 .5.3.3.4.7.4 1 0 .5-.2 1-.7 1.3-.2.1-.5.2-.7.2h-4.6c-.5 0-.8-.2-1.2-.7-.2-.3-.2-.5-.2-.8v-.1c0-.5.3-.9.8-1.2.1-.1.4-.2.6-.2zm8.9 0c.6 0 1.1.3 1.4.9.1.2.1.4.1.6 0 .6-.3 1.1-.9 1.4-.2.1-.4.1-.6.1h-.1c-.5 0-.9-.3-1.2-.8-.1-.3-.2-.5-.2-.8 0-.6.3-1 .9-1.4.3.1.5 0 .6 0zm-8.9 7.6h8.9s.1 0 .3.1c.4.1.6.3.8.5.2.3.4.6.4 1 0 .6-.3 1-.9 1.4-.2.1-.3.1-.4.1H-11c-.2 0-.5-.2-.9-.5-.2-.3-.3-.6-.3-.9v-.1c0-.5.3-1 .8-1.3.2-.2.4-.3.7-.3zm24.2-15h.1c.6 0 1 .3 1.4.8 2.7 5.4 4.1 8.1 4.1 8.2.1.3.1.6.1.6 0 .6-.3 1.1-.9 1.5-.3.1-.5.2-.8.2-.6 0-1-.3-1.4-.8 0-.1-.8-1.6-2.3-4.5-.1-.1-.2-.1-.3-.1-.2 0-.4.2-.6.6L7.6 23.6c-.2.3-.5.5-.9.7H5.9c-.2 0-.5-.1-.9-.4-.3-.3-.5-.8-.5-1.2 0-.3.2-.9.7-1.8 0 0 1.9-3.8 5.6-11.3.8-1.7 1.3-2.5 1.3-2.6.5-.5.9-.7 1.4-.7zm7.4 14.8h.1c.5 0 1 .3 1.4.8.2.3.2.6.2.8 0 .6-.3 1.1-.9 1.5-.2.1-.4.1-.5.1h-.6c-.3 0-.6-.2-.9-.5-.3-.3-.5-.7-.5-1.1 0-.5.2-1 .7-1.3.4-.2.7-.3 1-.3z"/><circle fill-rule="evenodd" clip-rule="evenodd" fill="#FFF" cx="24.5" cy="-6.4" r="8.4" opacity=".913"/><circle fill-rule="evenodd" clip-rule="evenodd" fill="#A43DFF" cx="24.5" cy="-6.3" r="2.6"/><circle fill-rule="evenodd" clip-rule="evenodd" fill="#FFF" cx="24.4" cy="30.1" r="1.4" transform="rotate(-7 63.5 348.5)" opacity=".913"/><circle fill-rule="evenodd" clip-rule="evenodd" fill="#F5A623" cx="34.5" cy="2.2" r="1.8"/><circle fill-rule="evenodd" clip-rule="evenodd" fill="#D8D8D8" cx="15.2" cy="-14.1" r="1.4"/><linearGradient id="b" gradientUnits="userSpaceOnUse" x1="-248.462" y1="273.839" x2="-248.573" y2="273.687" gradientTransform="matrix(94.2614 63.5801 63.6147 -94.3127 6006.7 41662.824)"><stop offset="0" style="stop-color:#ff710f"/><stop offset="1" style="stop-color:#cb16a9"/></linearGradient><path opacity=".898" fill-rule="evenodd" clip-rule="evenodd" fill="url(#b)" d="M2.1 37c-1.1.2-2 .8-2.6 1.6-.7.9-1.7 1.5-2.8 1.7-1.1.2-2.3 0-3.2-.5-1-.6-2.1-.8-3.3-.5-1.1.3-2 .9-2.6 1.8-.6.9-.9 2-.7 3.1.4 2.5 2.7 4.1 5.2 3.7 1.1-.2 2-.8 2.6-1.6.7-.9 1.7-1.5 2.8-1.7 1.1-.2 2.3 0 3.2.5 1 .6 2.1.8 3.3.5 1.1-.3 2-.9 2.6-1.8.6-.9.9-2 .7-3.1-.2-1.3-.9-2.3-1.9-3-.9-.6-2.1-.9-3.3-.7"/><path opacity=".097" fill-rule="evenodd" clip-rule="evenodd" fill="#FFF" d="M9.7-9.2c-1.1 0-2 .9-2 2 0 .5.2 1 .5 1.3.3.4.5.9.5 1.4 0 .5-.2 1-.5 1.3-.3.5-.8.6-1.3.6s-1-.2-1.4-.5c-.3-.3-.8-.5-1.3-.5-1.2 0-2.1 1-2 2.1 0 1 .9 1.9 1.9 1.9.6 0 1.1-.2 1.5-.5.4-.3.9-.5 1.4-.5.5 0 1 .2 1.4.5.4.3.8.5 1.3.5.3 0 .5 0 .7-.1h.6v-.6c.1-.2.1-.5.1-.7 0-.5-.2-1-.5-1.3-.3-.4-.5-.9-.5-1.4 0-.5.2-1 .5-1.4.3-.4.5-.9.5-1.5 0-1-.9-1.9-1.9-1.9.6-.7.6-.7.5-.7z"/></g></svg>