<svg version="1.1" id="layer" xmlns="http://www.w3.org/2000/svg" x="0px" y="0px"
		 viewBox="0 0 652 652" style="enable-background:new 0 0 652 652;" xml:space="preserve">
<style type="text/css">
	.st0{fill:#404145;}
	.st1{fill:#1DBF73;}
</style>
<path class="st0" d="M576.6,322.8h-20.9c-13.5,0-20.9,10.1-20.9,27.6v62.7h-40.4v-90.3h-16.9c-13.5,0-20.9,10.1-20.9,27.6v62.7
	h-40.4v-124h40.4V308c6.7-14.8,15.5-18.9,29-18.9h49.2V308c6.7-14.8,15.5-18.9,29-18.9h13.5L576.6,322.8z M406.7,360.6h-83.6
	c2,14.2,10.8,21.6,24.9,21.6c10.8,0,18.2-4.7,20.9-12.1l35.7,10.1c-8.8,21.6-30.3,34.4-56.6,34.4c-43.8,0-64-34.4-64-64
	c0-29,17.5-63.4,61.3-63.4c46.5,0,62,35.1,62,61.3C407.4,354.5,407.4,357.9,406.7,360.6z M368.3,337c-0.7-10.8-8.8-20.2-22.2-20.2
	c-12.8,0-20.2,5.4-22.9,20.2H368.3z M213.9,413.1H249l44.5-123.4H253l-21.6,72.1l-21.6-72.8h-40.4L213.9,413.1z M49.4,413.1h39.8
	v-90.3h38.4v90.3h39.8v-124H89.2v-7.4c0-8.1,6.1-13.5,14.8-13.5h23.6v-33.7H98c-29,0-48.5,18.2-48.5,44.5v10.1H26.5v33.7h22.9
	L49.4,413.1z"/>
<path class="st1" d="M601.6,416.5c13.5,0,24.9-11.5,24.9-24.9c0-13.5-11.5-24.9-24.9-24.9s-24.9,11.5-24.9,24.9
	C576.6,405.1,588.1,416.5,601.6,416.5z"/>
</svg>
