<svg xmlns="http://www.w3.org/2000/svg" width="900" viewBox="0 0 675 675" height="900" version="1.0"><defs><clipPath id="a"><path d="M166.04 174.008H509v377.441H166.04zm0 0"/></clipPath></defs><g clip-path="url(#a)"><path fill="#f15a2b" d="M508.898 430.363c0 17.246-12.253 38.434-27.128 47.016l-117.102 67.59c-14.969 8.668-39.387 8.668-54.262 0l-117.101-67.59c-14.97-8.668-27.133-29.77-27.133-47.016v-135.27c0-17.25 12.164-38.437 27.133-47.015l117.101-67.594c14.965-8.664 39.383-8.664 54.262 0l117.012 67.594c14.965 8.578 27.132 29.766 27.132 47.016zm0 0"/></g><path fill="#fff" d="M304.277 331.426h155.086v-43.602H304.63c-22.145 0-40.524 7.617-54.527 22.504-33.782 35.985-34.657 126.602-34.657 126.602h242.782v-81.95H414.64v38.348H262.008c.96-14.273 7.523-39.836 19.953-53.058 5.601-6.04 12.691-8.844 22.316-8.844zM195.031 213.816l4.27 18.657 18.644 4.261-18.644 4.274-4.27 18.648-4.27-18.648-18.644-4.274 18.645-4.261zM150.05 253.738l3.087 13.496 13.496 3.086-13.496 3.094-3.086 13.488-3.086-13.488-13.492-3.094 13.492-3.086zM531.43 478.059l3.086 13.496 13.492 3.086-13.492 3.093-3.086 13.493-3.086-13.493-13.492-3.093 13.492-3.086zm0 0"/></svg>