<svg width="800px" height="800px" viewBox="0 0 1024 1024" xmlns="http://www.w3.org/2000/svg">
   <circle cx="512" cy="512" r="512" style="fill:#229e87"/>
   <path d="M307.87 456.11c-14.54 0-26.48 4.15-32.71 13V412.5h-33.24v151.6h33.75v-56.59c0-13.5 7.79-20.77 21.29-20.77 11.94 0 17.65 6.75 17.65 18.7v58.66h33.23v-60.75c0-30.11-16.61-47.24-39.97-47.24zm109 0c-32.71 0-58.15 22.85-58.15 55.56 0 32.19 25.44 55 58.15 55s58.15-22.84 58.15-55-25.41-55.56-58.12-55.56zm0 82c-15.06 0-23.89-10.91-23.89-26.48 0-16.1 9.35-26.48 23.89-26.48 15.05 0 23.88 10.91 23.88 26.48s-8.75 26.51-23.85 26.51zm189.51-79.44h-28c-11.42 0-25.44 6.75-32.19 23.37l-4.19 7.82c-4.67 10.91-8.31 18.17-8.31 18.17l-1 4.67-1.57-4.7s-3.63-7.78-8.3-18.17l-3.64-8.31c-6.75-16.62-21.29-23.37-32.19-23.37H459s11.42 3.12 23.37 23.37c11.89 19.76 44.63 84.67 44.63 84.67h11.95s32.71-64.9 44.65-84.63c11.42-19.73 22.84-22.84 22.84-22.84zm43.62-2.55c-32.71 0-58.15 22.84-58.15 55 0 32.71 24.41 55.55 62.31 55.55 22.33 0 34.79-6.75 45.17-15.57l-19.21-20.77a46.87 46.87 0 0 1-26.48 8.31c-15.05 0-23.88-6.23-27.52-17.14h80.48c1.56-36.86-18.69-65.42-56.59-65.42zm-23.88 45.17c2.59-12.46 11.42-18.69 24.92-18.69 13 0 20.77 6.75 22.33 18.69zm156.28-45.17c-10.91 0-23.37 3.63-29.6 15.05v-13h-33.72v105.4h33.75v-46.71c0-22.33 8.31-29.6 23.37-29.6a28.14 28.14 0 0 1 13 3.12l10.91-30.63a50 50 0 0 0-17.65-3.63z" style="fill:#fff"/>
</svg>
