<svg width="300" height="300" viewBox="0 0 300 300" fill="none" xmlns="http://www.w3.org/2000/svg">
<path fill-rule="evenodd" clip-rule="evenodd" d="M0 46.1538C0 20.6638 20.6638 0 46.1538 0H253.846C279.336 0 300 20.6638 300 46.1538V253.846C300 279.336 279.336 300 253.846 300H46.1538C20.6638 300 0 279.336 0 253.846V46.1538ZM94.4003 55.9398C94.7639 54.8878 96.2518 54.8878 96.6155 55.9399L107.7 88.008C107.818 88.3509 108.089 88.6196 108.433 88.7355L140.849 99.672C141.912 100.031 141.912 101.534 140.849 101.893L108.433 112.829C108.089 112.945 107.818 113.214 107.7 113.557L96.6155 145.625C96.2518 146.677 94.7639 146.677 94.4003 145.625L83.3159 113.557C83.1974 113.214 82.9267 112.945 82.5829 112.829L50.1663 101.893C49.1033 101.534 49.1033 100.031 50.1663 99.672L82.5829 88.7355C82.9267 88.6196 83.1974 88.3509 83.3159 88.008L94.4003 55.9398ZM161.466 136.593V171.127L123.274 214.079L246.496 107.155C247.255 106.497 248.436 107.036 248.436 108.04V247.269C248.436 247.916 247.911 248.441 247.264 248.441H53.1747C52.1399 248.441 51.613 247.197 52.3327 246.454L159.452 135.778C160.184 135.021 161.466 135.54 161.466 136.593Z" fill="#FF7BE5"/>
</svg>
