<?xml version="1.0" encoding="UTF-8"?>
<svg xmlns="http://www.w3.org/2000/svg" width="70" height="84" viewBox="0 0 70 84" fill="none">
  <path d="M34.5815 21.2887C33.4169 21.2862 32.2634 21.5137 31.187 21.9582C30.1106 22.4027 29.1326 23.0554 28.3091 23.8788C27.4857 24.7023 26.833 25.6803 26.3885 26.7566C25.944 27.833 25.7165 28.9866 25.7191 30.1511V81.3989C25.7312 81.8294 25.9076 82.2389 26.2122 82.5434C26.5167 82.848 26.9262 83.0244 27.3567 83.0365V83.0365C31.6209 83.0289 35.7083 81.3315 38.7236 78.3163C41.7389 75.301 43.4362 71.2136 43.4439 66.9493V30.1511C43.4464 28.9866 43.2189 27.833 42.7744 26.7566C42.33 25.6803 41.6773 24.7023 40.8538 23.8788C40.0303 23.0554 39.0523 22.4027 37.976 21.9582C36.8996 21.5137 35.746 21.2862 34.5815 21.2887V21.2887Z" fill="#1E1E1E"></path>
  <path d="M8.86236 46.3348C7.69782 46.3323 6.54424 46.5598 5.46786 47.0043C4.39148 47.4487 3.41349 48.1014 2.59003 48.9249C1.76658 49.7484 1.11387 50.7263 0.669397 51.8027C0.224919 52.8791 -0.0025799 54.0327 -4.00004e-05 55.1972V82.3624C0.0120936 82.7929 0.188523 83.2024 0.493045 83.5069C0.797567 83.8114 1.20709 83.9879 1.63758 84V84C5.90181 83.9924 9.98921 82.295 13.0045 79.2797C16.0198 76.2645 17.7171 72.1771 17.7247 67.9128V55.1972C17.7273 54.0327 17.4998 52.8791 17.0553 51.8027C16.6108 50.7263 15.9581 49.7484 15.1347 48.9249C14.3112 48.1014 13.3332 47.4487 12.2569 47.0043C11.1805 46.5598 10.0269 46.3323 8.86236 46.3348V46.3348Z" fill="#1E1E1E"></path>
  <path d="M60.3036 2.10348e-05C59.139 -0.00251886 57.9855 0.22498 56.9091 0.669457C55.8327 1.11393 54.8547 1.76664 54.0313 2.59009C53.2078 3.41355 52.5551 4.39154 52.1106 5.46792C51.6661 6.5443 51.4386 7.69788 51.4412 8.86242V81.9772C51.4533 82.4077 51.6297 82.8172 51.9343 83.1217C52.2388 83.4262 52.6483 83.6027 53.0788 83.6148C57.343 83.6072 61.4304 81.9098 64.4457 78.8945C67.461 75.8793 69.1583 71.7918 69.166 67.5276V8.86242C69.1685 7.69788 68.941 6.5443 68.4965 5.46792C68.0521 4.39154 67.3994 3.41355 66.5759 2.59009C65.7524 1.76664 64.7744 1.11393 63.6981 0.669457C62.6217 0.22498 61.4681 -0.00251886 60.3036 2.10348e-05V2.10348e-05Z" fill="#1E1E1E"></path>
</svg>
