<svg width="70" height="70" fill="none" xmlns="http://www.w3.org/2000/svg"><path d="M26.404 58.327h16.284c-.291 1.886-3.988 4.287-7.135 4.626-3.628.393-8.03-1.804-9.142-4.626h-.007zM60.348 50.745c-.332-.027-.678-.013-1.01-.013h-2.605v-1.479c0-6.687.027-13.374-.027-20.061a24.075 24.075 0 0 0-.448-4.524c-2.489-12.31-14.88-20.061-27.08-16.996-9.74 2.449-16.752 11.326-16.712 21.425.028 6.077 0 12.16 0 18.237v3.405c-.739 0-2.875-.02-3.628.027-1.105.068-1.851.922-1.838 2.02.014 1.072.72 1.832 1.811 1.927.305.027.61.02.909.02 16.582 0 33.164.007 49.746.014.306 0 .61 0 .91-.027 1.07-.109 1.803-.895 1.824-1.94.02-1.058-.78-1.933-1.859-2.028l.007-.007z" fill="#5614D5"/><path d="M47.34 41.379c1.227 0 2.218.997 2.218 2.218 0 1.22-.997 2.217-2.218 2.217a2.223 2.223 0 0 1-2.218-2.218c0-1.22.997-2.217 2.218-2.217zM49.368 27l.034-.02a7.472 7.472 0 0 0-.095-.563c-1.35-6.653-7.088-11.563-13.829-11.963h-.027c-.292-.02-.577-.027-.868-.027h-.04c-.292 0-.584.013-.869.027h-.027c-6.741.4-12.48 5.31-13.829 11.963-.034.184-.06.373-.095.563l.034.02a14.921 14.921 0 0 0-.197 2.408v16.169l4.606 4.971c0-3.48 0-19.18-.007-21.16-.02-4.673 3.29-8.898 7.867-10.051.38-.095.766-.17 1.146-.217.068-.007.13-.02.197-.027.15-.02.291-.027.434-.04.21-.014.42-.028.63-.028h.231c.21 0 .42.014.631.027l.434.04c.068.008.129.021.197.028.386.054.766.122 1.146.217 4.578 1.153 7.887 5.378 7.867 10.051v10.234l4.605-3.072v-7.142c0-.814-.068-1.62-.197-2.407h.02z" fill="#836EFF"/><path d="M56.706 29.198c0 .861.006 1.716.013 2.577l5.61-3.723-3.616-5.426-2.536 1.675c.027.123.06.245.088.373.298 1.479.434 3.019.447 4.524h-.006z" fill="#00F9AC"/><path opacity=".9" d="m19.466 35.879-4.795 4.415 11.184 12.072L56.72 31.782c0-.861 0-1.716-.014-2.577a24.066 24.066 0 0 0-.447-4.524c-.028-.129-.061-.25-.089-.373l-29.298 19.54-7.406-7.97z" fill="#21D8A3"/></svg>