<svg width="126" height="126" fill="none" xmlns="http://www.w3.org/2000/svg"><g filter="url(#a)"><path fill-rule="evenodd" clip-rule="evenodd" d="M12.848 26.55A62.033 62.033 0 0 1 46.646 3.197a62.067 62.067 0 0 1 40.988 2.883 62.03 62.03 0 0 1 25.213 19.968l6.002-3.63c2.29-1.385 5.184.417 4.949 3.082L121.883 47.2c-.194 2.2-2.472 3.578-4.513 2.73l-20.121-8.37c-2.471-1.029-2.727-4.427-.436-5.812l5.793-3.505a50.128 50.128 0 0 0-19.692-15.237 50.155 50.155 0 0 0-33.122-2.33A50.13 50.13 0 0 0 22.48 33.548a50.084 50.084 0 0 0-9.522 31.792 5.953 5.953 0 0 1-11.893.553A61.98 61.98 0 0 1 12.848 26.55zm-4.956 56.1c.194-2.201 2.472-3.579 4.513-2.73l20.121 8.37c2.471 1.028 2.727 4.426.436 5.811l-6.038 3.653a50.153 50.153 0 0 0 74.818-2.915 50.09 50.09 0 0 0 11.361-29.347 5.95 5.95 0 0 1 6.242-5.645 5.953 5.953 0 0 1 5.649 6.24 61.982 61.982 0 0 1-14.059 36.316 62.06 62.06 0 0 1-94.402 1.636l-5.607 3.391c-2.29 1.385-5.184-.417-4.949-3.082l1.915-21.699zm78.792-47.705c-1.693 5.679.795 12.362 7.084 14.979l6.681 2.78c1.31.545 2.294 1.687 2.538 3.086 3.518 20.15-8.628 40.14-28.734 45.97a40.528 40.528 0 0 1-28.563-2.222c-2.168-1.015-2.756-3.702-2.36-6.062.895-5.315-1.677-11.106-7.427-13.498l-10.695-4.451a2.316 2.316 0 0 1-1.345-1.484c-6.261-21.56 6.148-44.108 27.716-50.362 11.847-3.435 23.994-1.239 33.574 5.012 1.98 1.291 2.207 3.987 1.531 6.252zM61.571 66.713c3.195.773 4.762 1.653 5.522 2.375.642.608.818 1.2.818 1.987 0 .433-.15 1.005-.678 1.488-.534.489-1.737 1.14-4.34 1.14-3.436 0-4.744-1.064-5.282-1.986-.856-1.466-2.615-3.68-5.417-3.68-1.474 0-2.87.628-3.798 1.694-.962 1.104-1.414 2.696-.837 4.329 1.468 4.156 4.87 6.744 8.635 8.047.642.222.993.642 1.093 1.01l.436 1.61a5.2 5.2 0 0 0 9.917.39l.695-1.946c.123-.343.473-.713 1.076-.898 2.43-.746 4.695-1.993 6.368-3.88 1.704-1.92 2.69-4.393 2.69-7.345 0-4.586-2.002-7.78-4.878-9.965-2.753-2.092-6.26-3.23-9.337-4.037-2.983-.782-4.64-1.507-5.53-2.17-.412-.308-.6-.56-.695-.745-.092-.179-.156-.406-.156-.756 0-.711.292-1.309.989-1.803.759-.539 2.072-.987 4.03-.987 2.8 0 3.69.886 4.077 1.688.79 1.632 2.533 3.978 5.436 3.978 1.453 0 2.827-.611 3.752-1.655.956-1.077 1.421-2.627.914-4.238-1.105-3.51-3.659-6.512-7.618-8.083-.622-.247-.952-.627-1.063-.947l-.759-2.186a5.184 5.184 0 0 0-9.904.352l-.445 1.655c-.1.368-.45.79-1.094 1.016-4.794 1.686-8.873 5.491-8.873 11.264 0 3.833 1.62 6.78 4.308 8.945 2.585 2.083 6.1 3.406 9.948 4.339z" fill="url(#b)"/></g><defs><linearGradient id="b" x1="62.999" y1=".997" x2="62.999" y2="125.004" gradientUnits="userSpaceOnUse"><stop stop-color="#169360"/><stop offset=".703" stop-color="#08734C"/><stop offset="1" stop-color="#016442"/></linearGradient><filter id="a" x=".997" y="-1.207" width="126.208" height="126.211" filterUnits="userSpaceOnUse" color-interpolation-filters="sRGB"><feFlood flood-opacity="0" result="BackgroundImageFix"/><feBlend in="SourceGraphic" in2="BackgroundImageFix" result="shape"/><feColorMatrix in="SourceAlpha" values="0 0 0 0 0 0 0 0 0 0 0 0 0 0 0 0 0 0 127 0" result="hardAlpha"/><feOffset dx="2.203" dy="-2.203"/><feGaussianBlur stdDeviation="3.305"/><feComposite in2="hardAlpha" operator="arithmetic" k2="-1" k3="1"/><feColorMatrix values="0 0 0 0 0 0 0 0 0 0 0 0 0 0 0 0 0 0 0.16 0"/><feBlend in2="shape" result="effect1_innerShadow_3251_49973"/></filter></defs></svg>