<svg width="70" height="70" fill="none" xmlns="http://www.w3.org/2000/svg"><g clip-path="url(#a)"><path d="M30.056 64.23C13.942 64.23.555 51.21.555 35s13.139-29.23 29.5-29.23C35.263 5.77 40.22 7 44.683 9.7c1.24.738 1.736 2.457.992 3.685-.744 1.228-2.48 1.72-3.719.982-3.47-1.965-7.685-3.193-11.651-3.193-13.14 0-23.8 10.562-23.8 23.58 0 13.018 10.66 23.58 23.8 23.58 6.693 0 12.89-2.702 17.353-7.369.992-1.228 2.975-1.228 3.967-.245 1.24.982 1.24 2.947.248 3.93-5.702 6.386-13.635 9.58-21.816 9.58z" fill="url(#b)"/><path d="m26.585 29.596-5.95-5.404c-1.24-.982-2.975-.982-3.967.246-.991 1.228-.991 2.948.248 3.93l6.446 5.895c.248-2.21 1.487-3.684 3.223-4.667zM62.284 12.157c-.992-1.228-2.727-1.474-3.967-.491L35.262 29.842c1.487 1.228 2.727 2.702 2.975 4.667l23.55-18.422c1.488-.983 1.488-2.702.497-3.93z" fill="#24E2AC"/><path d="M33.278 31.561c-.743-.491-1.487-.491-2.479-.491-.743 0-1.487.246-2.23.491-1.736.737-2.976 2.456-2.976 4.667v.246c.248 2.702 2.48 4.667 5.206 4.667 2.727 0 4.71-1.965 4.959-4.422v-.49c0-2.212-.992-3.93-2.48-4.668z" fill="#3DEAB5"/><path d="M68.977 28.614h-7.19c-.495 0-.743.491-.743.737v6.14c0 .492.496.737.744.737h7.189c.496 0 .744-.491.744-.737v-6.14c.248-.246-.248-.737-.744-.737z" fill="#6C62FF"/><path d="M57.574 28.614h-7.19c-.495 0-.743.491-.743.737v6.14c0 .492.495.737.743.737h7.19c.495 0 .743-.491.743-.737v-6.14c0-.246-.248-.737-.743-.737zM57.574 38.93h-7.19c-.495 0-.743.491-.743.737v6.14c0 .492.495.737.743.737h7.19c.495 0 .743-.491.743-.737v-6.14c0-.246-.248-.737-.743-.737zM68.977 38.93h-7.19c-.495 0-.743.491-.743.737v6.14c0 .492.496.737.744.737h7.189c.496 0 .744-.491.744-.737v-6.14c.248-.246-.248-.737-.744-.737z" fill="#CCF"/></g><defs><radialGradient id="b" cx="0" cy="0" r="1" gradientUnits="userSpaceOnUse" gradientTransform="matrix(24.3747 0 0 24.1501 50.334 51.39)"><stop stop-color="#F3F3FF"/><stop offset=".09" stop-color="#E3E2FF"/><stop offset=".4" stop-color="#B0ACFF"/><stop offset=".66" stop-color="#8B84FF"/><stop offset=".87" stop-color="#746CFF"/><stop offset="1" stop-color="#6C63FF"/></radialGradient><clipPath id="a"><path fill="#fff" transform="translate(0 5.25)" d="M0 0h70v59.5H0z"/></clipPath></defs></svg>