<?xml version="1.0" encoding="UTF-8"?>
<svg id="Layer_1" data-name="Layer 1" xmlns="http://www.w3.org/2000/svg" xmlns:xlink="http://www.w3.org/1999/xlink" viewBox="0 0 70 70">
  <defs>
    <style>
      .cls-1 {
        fill: url(#linear-gradient);
      }
    </style>
    <linearGradient id="linear-gradient" x1="223.17" y1="1111.96" x2="292.15" y2="1111.96" gradientTransform="translate(-222.66 -1076.96)" gradientUnits="userSpaceOnUse">
      <stop offset="0" stop-color="#681ddd"/>
      <stop offset="1" stop-color="#3a1b95"/>
    </linearGradient>
  </defs>
  <path class="cls-1" d="m35,.33C15.95.33.51,15.86.51,35s15.44,34.67,34.49,34.67,34.49-15.52,34.49-34.67S54.05.33,35,.33Zm-.67,41c-.42,1.47-1.05,2.77-1.92,3.89-.84,1.1-1.94,1.98-3.26,2.61-1.33.63-2.9.94-4.73.94s-3.5-.34-4.84-1.01c-1.34-.66-2.41-1.55-3.26-2.68-.82-1.12-1.44-2.41-1.83-3.89-.39-1.49-.58-3.03-.58-4.66v-12.57h5.48v12.57c0,.96.09,1.86.26,2.71.18.87.46,1.62.87,2.29.41.67.91,1.2,1.56,1.59.63.39,1.41.59,2.35.59s1.72-.2,2.37-.6c.65-.4,1.18-.94,1.57-1.6.41-.67.69-1.44.86-2.32.16-.86.25-1.74.25-2.66v-12.56h5.48v12.56h0c0,1.72-.21,3.31-.62,4.79Zm21.75,7.45h-16.59v-5.14h16.59v5.14Zm0-9.83h-16.59v-5.14h16.59v5.14Zm0-9.83h-16.59v-5.14h16.59v5.14Z"/>
</svg>