<?xml version="1.0" standalone="no"?>
<!DOCTYPE svg PUBLIC "-//W3C//DTD SVG 20010904//EN"
 "http://www.w3.org/TR/2001/REC-SVG-20010904/DTD/svg10.dtd">
<svg version="1.0" xmlns="http://www.w3.org/2000/svg"
 width="1752.000000pt" height="1752.000000pt" viewBox="0 0 1752.000000 1752.000000"
 preserveAspectRatio="xMidYMid meet">

<g transform="translate(0.000000,1752.000000) scale(0.100000,-0.100000)"
fill="#000000" stroke="none">
<path d="M0 8755 l0 -8755 8755 0 8755 0 0 8755 0 8755 -8755 0 -8755 0 0
-8755z m4298 2323 c43 -112 297 -760 562 -1441 266 -680 487 -1234 491 -1230
4 5 258 647 564 1428 306 781 560 1424 564 1428 4 4 259 -636 566 -1423 307
-787 561 -1433 565 -1435 3 -2 253 632 555 1408 302 777 555 1424 562 1440
l14 27 659 0 c363 0 660 -2 660 -5 0 -2 -66 -172 -146 -377 -80 -205 -164
-417 -185 -472 -33 -84 -35 -96 -18 -80 12 11 62 58 113 105 490 462 1017 715
1681 805 182 25 626 25 810 1 673 -90 1258 -359 1753 -806 l94 -84 -443 -443
-442 -442 -89 76 c-271 233 -575 384 -890 443 -145 26 -414 36 -558 20 -425
-49 -801 -230 -1100 -531 -333 -335 -509 -711 -551 -1175 -43 -483 98 -955
396 -1325 73 -91 245 -258 339 -330 324 -248 718 -380 1129 -380 623 1 1195
306 1539 819 59 89 138 229 138 246 0 3 -393 6 -872 7 l-873 3 0 590 0 590
1580 0 1579 0 10 -45 c5 -25 9 -173 9 -330 1 -247 -2 -304 -21 -430 -86 -552
-280 -1023 -596 -1444 -489 -650 -1198 -1089 -1966 -1215 -352 -58 -788 -56
-1120 5 -500 91 -986 317 -1377 641 -131 108 -409 392 -513 523 -398 500 -610
1068 -648 1735 l-7 120 -600 -1532 c-330 -842 -603 -1529 -606 -1525 -4 4
-262 685 -575 1515 -312 829 -571 1502 -575 1495 -3 -7 -253 -686 -554 -1508
-302 -822 -551 -1498 -554 -1502 -4 -5 -2168 5485 -2453 6223 -7 18 14 19 656
19 l664 0 80 -202z"/>
</g>
</svg>
