<svg width="15" height="13" viewBox="0 0 15 13" fill="none" xmlns="http://www.w3.org/2000/svg">
	<rect width="1" height="12" rx="0.5" transform="matrix(1 8.74228e-08 8.74228e-08 -1 14 12.5)" fill="#6D7882"/>
	<rect width="1" height="12" rx="0.5" transform="matrix(1 8.74228e-08 8.74228e-08 -1 0 12.5)" fill="#6D7882"/>
	<path d="M11 7.5C11.5523 7.5 12 7.05228 12 6.5C12 5.94771 11.5523 5.5 11 5.5L3.34615 5.5C3.15498 5.5 3 5.65498 3 5.84615L3 7.15385C3 7.34502 3.15498 7.5 3.34615 7.5L11 7.5Z" fill="#6D7882"/>
	<path d="M12.455 6.44C12.4817 6.47556 12.4817 6.52444 12.455 6.56L11.18 8.26C11.1223 8.33688 11 8.2961 11 8.2L11 4.8C11 4.7039 11.1223 4.66312 11.18 4.74L12.455 6.44Z" fill="#6D7882"/>
</svg>
