<svg width="15" height="13" viewBox="0 0 15 13" fill="none" xmlns="http://www.w3.org/2000/svg">
	<rect width="1" height="12" rx="0.5" transform="matrix(1 8.74228e-08 8.74228e-08 -1 13.5 12.5)" fill="#6D7882"/>
	<path d="M10.84 4.6095L10.804 4.5735C10.74 4.5175 10.664 4.4935 10.576 4.5015C10.496 4.5095 10.424 4.5455 10.36 4.6095C10.304 4.6655 10.276 4.7375 10.276 4.8255V5.8455H9.172C8.996 5.8615 8.844 5.9255 8.716 6.0375C8.588 6.1495 8.516 6.2815 8.5 6.4335V6.5655C8.516 6.7175 8.588 6.8495 8.716 6.9615C8.844 7.0735 8.996 7.1375 9.172 7.1535H10.276V8.2215C10.292 8.3095 10.332 8.3815 10.396 8.4375C10.468 8.4855 10.544 8.5095 10.624 8.5095C10.704 8.5015 10.776 8.4655 10.84 8.4015L12.484 6.7455L12.52 6.6975C12.568 6.6335 12.588 6.5615 12.58 6.4815C12.572 6.3935 12.54 6.3215 12.484 6.2655L10.84 4.6095Z" fill="#6D7882"/>
	<rect width="1" height="12" rx="0.5" transform="matrix(1 8.74228e-08 8.74228e-08 -1 0.5 12.5)" fill="#6D7882"/>
	<path d="M4.24179 8.40027L4.27779 8.43627C4.34179 8.49227 4.41779 8.51627 4.50579 8.50827C4.58579 8.50027 4.65779 8.46427 4.72179 8.40027C4.77779 8.34427 4.80579 8.27227 4.80579 8.18427L4.80579 7.16427L5.90979 7.16427C6.08579 7.14827 6.23779 7.08427 6.36579 6.97227C6.49379 6.86027 6.56579 6.72827 6.58179 6.57627L6.58179 6.44427C6.56579 6.29227 6.49379 6.16027 6.36579 6.04827C6.23779 5.93627 6.08579 5.87227 5.90979 5.85627L4.80579 5.85627L4.80579 4.78827C4.78979 4.70027 4.74979 4.62827 4.68579 4.57227C4.61379 4.52427 4.53779 4.50027 4.45779 4.50027C4.37779 4.50827 4.30579 4.54427 4.24179 4.60827L2.59779 6.26427L2.56179 6.31227C2.51379 6.37627 2.49379 6.44827 2.50179 6.52827C2.50979 6.61627 2.54179 6.68827 2.59779 6.74427L4.24179 8.40027Z" fill="#6D7882"/>
</svg>
