<svg xmlns="http://www.w3.org/2000/svg" xmlns:xlink="http://www.w3.org/1999/xlink" width="168" height="135"><style><![CDATA[.B{fill:#fff}.C{stroke-width:1.408}.D{fill-rule:nonzero}.E{stroke:#a4afb7}.F{stroke-linecap:round}.G{stroke-linejoin:round}.H{fill:#a4afb7}.I{stroke-width:1.267}.J{stroke-width:1.672}]]></style><defs><rect id="A" width="14.493" height="14.455" rx="4.459"/><rect id="B" width="14.493" height="14.455" rx="4.459"/><linearGradient x1="50%" y1="0%" x2="0%" y2="93.8736994%" id="C"><stop stop-color="#a4afb7" offset="0%"/><stop stop-color="#c2cbd2" offset="100%"/></linearGradient><path id="D" d="M100.83 108.385l.554 18.824h-1.302c-1.445 0-2.616 1.168-2.616 2.61s1.17 2.61 2.616 2.61h4.1c1.944 0 3.52-1.572 3.52-3.512 0-.597-1.445-9.657-1.136-20.53"/><path id="E" d="M11.135 0v3.063H5.99v4.72H1.46v6.32h2.102v-3.076H8.64V6.774h4.873V0z"/></defs><g transform="translate(1 1)" fill="none" fill-rule="evenodd"><g class="B E"><g class="F"><path d="M29.07 43.93c-2.13 8.208-9.47 17.322-6.54 22.51 1.894 3.354 14.002 5.943 18.816 10.392 2.908 2.688 3.7 3.997 4.436 5.207 2.205 3.675 1.927 5.295 3.683 5.203 2.277-.12 2.536-5.112-2.78-10.096-.375-.35 4.29 4.632 5.364 5.86 1.187 1.36 2.493 2.633 3.774 1.848 2.147-1.316.222-4.06-2.162-5.828-2.105-1.562-4.615-3.263-3.438-2.66 2.51 1.286 4.448-2.302 4.8-3.658s.367-3.746-1.155-4.458c-.843-.395-1.623-.1-2.142.904-.667 1.278-.887 3.906-2.97 4.495-1.444.408-3.083-.45-1.404-2.965 1.023-1.532 2.973-.68 4.172-2.31s.537-3.42-1.282-3.325c-6.042.317-6.897 5.094-7.282 4.893-3.638-1.902-10.493-5.202-11.647-6.228-5.507-4.898 8.703-14.112 7.188-17.05" transform="matrix(-.052336 -.99863 -.99863 .052336 106.856172 101.402721)" class="C D G"/><path d="M2.815 2.106l2.815 3.5M10.205 0v4.212M0 9.828l3.52.702" class="I"/></g><path d="M118.854 24.995l-52.57-.822c-3.566-.056-6.982 1.433-9.37 4.084l-2.9 3.233c-.733.814-1.38 1.7-1.935 2.644-1.99 3.396-3.007 5.94-3.062 7.57-.71 21.084-.866 36.392-.47 45.917.18 4.318.768 8.153 1.763 11.503A16.19 16.19 0 0 0 65.818 110.7h60.53a16.19 16.19 0 0 0 16.187-16.187V44.46a16.19 16.19 0 0 0-11.175-15.392l-12.506-4.072z" class="C D"/></g><rect x="47.42" y="23.376" width="82.448" height="82.388" rx="21.959" class="B D"/><g class="C E B D"><rect x="48.124" y="24.08" width="81.041" height="80.981" rx="16.891"/><g class="F G"><use xlink:href="#D"/><use xlink:href="#D" x="-23.648"/></g></g><rect fill-opacity=".7" fill="#e6e9ec" x="52.423" y="28.079" width="72.491" height="72.304" rx="11.599" class="D"/><g class="C E"><g class="B"><path d="M49.353 127.26c2.722-.001 4.878 2.238 4.878 4.72H32.656c0-4.652 3.36-8.067 8.026-8.067 3.135 0 4.762 1.088 6.677 3.646.04.054-1.592 1.252-1.55 1.307-.2.427 1.38-1.606 3.544-1.606zm98.187 4.6h-7.42l-1.278-2.232-6.07-10.145-.084-.155c-.903-1.76-.658-3.916 1.106-4.817a3.26 3.26 0 0 1 4.391 1.431 4.68 4.68 0 0 1 .174.416l2.1 6.465c-.092-.565-.57-4.1-1.44-10.63a4.41 4.41 0 0 1 4.02-4.766 4.39 4.39 0 0 1 .563-.012l.253.01a4.5 4.5 0 0 1 4.313 4.676 4.48 4.48 0 0 1-.018.252l-1.93 14.62c.024.804.704-1.647 2.04-7.353.52-1.384 2.066-2.085 3.453-1.566.125.047.246.102.362.167 1.504.834 1.602 2.244.77 3.747l-5.293 9.9z"/><path d="M135.833 126.363c3.1 0 5.63 2.514 5.63 5.616h-11.26c0-3.102 2.52-5.616 5.63-5.616z"/></g><g class="F"><path d="M27.6 132.253h123.87m3.94 0h5.63m-142.45 0h5.63m140.198 0h1.7m-152.022 0h1.7"/><path d="M134.353 71.04c5.52 3.216 16.792 8.128 14.183 9.827-6.753 4.398-9.23 2.818-9.23 8.114 0 9.62 6.307 10.877 9.23 8.343s.318-9.902-3.357-8.343 10.22-5.397 10.22-9.37-17-16.924-21.046-17.748" class="B D G"/></g></g><path d="M63.052 34.256c-2.28 1.386-3.893 3.148-4.845 5.286" stroke="#fff" stroke-width="3.378" class="F"/><ellipse cx="56.575" cy="44.687" rx="1.337" ry="1.334" class="B"/><path d="M74.884 68.092c0 2.015-2.27 3.65-5.067 3.65s-5.067-1.635-5.067-3.65 2.27-3.65 5.067-3.65 5.067 1.635 5.067 3.65m23.648 0c0 2.015 2.27 3.65 5.067 3.65s5.067-1.635 5.067-3.65-2.27-3.65-5.067-3.65-5.067 1.635-5.067 3.65" fill-opacity=".1" fill="#f210c3"/><g class="C D E"><path d="M77.617 79.604c2.003 3.512 4.954 5.268 8.853 5.268s6.85-1.756 8.853-5.268c1.16-2.607 1.16-4.13 0-4.566-1.74-.655-4.426 1.23-8.853 1.23s-7.2-1.854-8.853-1.23c-1.102.415-1.102 1.937 0 4.566z" class="H"/><g class="B"><path d="M80.49 82.987c1.654 1.257 3.647 1.885 5.98 1.885 2.66 0 4.88-.818 6.658-2.454.827-.76-2.2-2.532-6.637-2.532s-7.112 2.256-6.002 3.1z"/><path d="M99.238 46.33c6.147 1.975 9.22 3.752 9.22 5.333M74.533 46.33c-6.147 1.975-9.22 3.752-9.22 5.333" class="F G"/></g></g><g stroke="#170040" class="C"><path d="M101.225 66.828c-3.012 0-5.784-2.48-5.784-6.26s2.35-6.024 5.36-6.024 5.548 2.713 5.548 6.493-2.113 5.79-5.125 5.79z" class="B"/><path d="M6.065 5.684c-1.125.575-1.746 1.338-1.863 2.29-.15 1.23.058 1.998 1.098 2.987" transform="matrix(.121869 -.992546 -.992546 -.121869 108.876214 68.953705)" class="F"/><path d="M72.062 66.828c3.012 0 5.784-2.48 5.784-6.26s-2.35-6.024-5.36-6.024-5.548 2.713-5.548 6.493 2.113 5.79 5.125 5.79z" class="B"/><path d="M69.313 62.24c.707 1.047 1.54 1.57 2.5 1.57 1.24 0 1.976-.3 2.83-1.454" class="F"/></g><g class="E"><path d="M74.845 49.138a7.25 7.25 0 0 1 6.893 5.004H91.92a7.25 7.25 0 0 1 6.893-5.004h10.59a7.25 7.25 0 0 1 7.246 7.246V66.9a7.25 7.25 0 0 1-7.246 7.246h-10.59a7.25 7.25 0 0 1-7.246-7.246v-4.985H82.09V66.9a7.25 7.25 0 0 1-7.246 7.246h-10.59a7.25 7.25 0 0 1-7.246-7.246V56.385a7.25 7.25 0 0 1 7.246-7.246h10.59z" class="B C"/><rect x="94.912" y="53.586" width="15.607" height="15.567" rx="4.459" class="H J"/></g><g transform="translate(95.469 54.142)" class="B"><mask id="F"><use xlink:href="#A"/></mask><use xlink:href="#E" mask="url(#F)"/></g><rect x="60.352" y="53.586" width="15.607" height="15.567" rx="4.459" class="E H J"/><g transform="translate(60.91 54.142)" class="B"><mask id="G"><use xlink:href="#B"/></mask><use xlink:href="#E" mask="url(#G)"/></g><g class="E"><path d="M84.878 54.142h-7.246m8.638 7.784h-6.913" class="C"/><rect fill="url(#C)" x="7.418" y="8.803" width="32.691" height="32.691" rx="3.269" class="I"/></g><path d="M15.93 17.316h3.405v15.9H15.93zm6.812 3.406v-3.405h9.08v3.405zm0 6.243V23.56h9.08v3.405zm0 6.243v-3.405h9.08v3.405z" class="B"/></g></svg>