<svg xmlns="http://www.w3.org/2000/svg" xmlns:xlink="http://www.w3.org/1999/xlink" width="166" height="133"><style><![CDATA[.B{stroke-width:1.386}.C{fill:#fff}.D{stroke-linecap:round}.E{stroke:#170040}.F{fill-rule:nonzero}.G{stroke:#0e013d}.H{stroke-linejoin:round}.I{fill:#170040}.J{stroke-width:1.247}.K{stroke-width:1.647}]]></style><defs><rect id="A" width="14.27" height="14.233" rx="4.391"/><rect id="B" width="14.27" height="14.233" rx="4.391"/><linearGradient x1="50%" y1="0%" x2="0%" y2="93.8736994%" id="C"><stop stop-color="#ff1ece" offset="0%"/><stop stop-color="#5857a0" offset="100%"/></linearGradient><path id="D" d="M10.964 0v3.016H5.9v4.648h-4.46v6.223h2.07v-3.03h5V6.67h4.798V0z"/></defs><g transform="translate(1 1)" fill="none" fill-rule="evenodd"><g class="D E"><path d="M28.625 43.256c-2.097 8.082-9.324 17.056-6.44 22.163 1.865 3.302 13.787 5.852 18.527 10.233 2.863 2.647 3.653 3.935 4.368 5.127 2.17 3.618 1.897 5.213 3.626 5.123 2.242-.118 2.497-5.034-2.74-9.94-.37-.346 4.225 4.56 5.28 5.77 1.17 1.338 2.455 2.593 3.716 1.82 2.114-1.295.218-3.998-2.128-5.74-2.073-1.538-4.545-3.213-3.385-2.62 2.472 1.266 4.38-2.266 4.725-3.602s.36-3.69-1.138-4.4c-.83-.388-1.598-.088-2.11.9-.657 1.258-.874 3.846-2.925 4.426-1.422.402-3.036-.444-1.382-2.92 1.007-1.508 2.928-.668 4.108-2.276s.53-3.368-1.262-3.274c-5.95.312-6.792 5.015-7.17 4.818-3.582-1.873-10.332-5.122-11.468-6.133-5.422-4.823 8.57-13.896 7.078-16.79" transform="matrix(-.052336 -.99863 -.99863 .052336 105.216436 99.846669)" class="B C F H"/><path d="M2.772 2.074L5.544 5.53M10.05 0v4.147M0 9.677l3.465.7" class="J"/></g><g class="C F"><path d="M117.03 24.612l-51.763-.8c-3.51-.055-6.875 1.41-9.225 4.02l-2.866 3.183a15.94 15.94 0 0 0-1.905 2.604c-1.96 3.344-2.96 5.848-3.015 7.454-.698 20.76-.852 35.834-.463 45.213.176 4.252.756 8.028 1.736 11.326a15.94 15.94 0 0 0 15.279 11.398h59.6c8.803 0 15.94-7.136 15.94-15.94V43.777a15.94 15.94 0 0 0-11.004-15.156l-12.314-4z" class="B G"/><rect x="46.693" y="23.018" width="81.183" height="81.124" rx="21.622"/><g class="B G"><rect x="47.386" y="23.711" width="79.797" height="79.738" rx="16.632"/><path d="M99.282 106.722l.546 18.535h-1.282c-1.423 0-2.576 1.15-2.576 2.57s1.153 2.57 2.576 2.57h4.037c1.915 0 3.467-1.548 3.467-3.458 0-.588-1.423-9.5-1.118-20.216m-28.934-.001l.546 18.535h-1.282c-1.423 0-2.576 1.15-2.576 2.57s1.153 2.57 2.576 2.57H79.3c1.915 0 3.467-1.548 3.467-3.458 0-.588-1.423-9.5-1.118-20.216" class="D H"/></g></g><rect fill="#ece4ff" x="51.618" y="27.648" width="71.379" height="71.194" rx="11.421" class="F"/><path d="M48.595 125.307c2.68-.001 4.803 2.204 4.803 4.647H32.155c0-4.58 3.3-7.943 7.903-7.943 3.087 0 4.69 1.07 6.574 3.6.04.054-1.567 1.232-1.527 1.287-.188.42 1.358-1.58 3.5-1.58z" fill="#f1efff" class="B G"/><g class="B"><path d="M145.275 129.827h-7.307l-1.258-2.198-5.978-9.99-.083-.152c-.89-1.733-.648-3.856 1.09-4.743a3.21 3.21 0 0 1 4.324 1.409c.044.087.1.224.172.4l2.058 6.366c-.1-.557-.563-4.046-1.417-10.467a4.34 4.34 0 0 1 3.959-4.693c.184-.016.37-.02.554-.012l.25.01a4.43 4.43 0 0 1 4.246 4.604c-.003.083-.01.166-.017.248l-1.9 14.397c.024.79.693-1.622 2.008-7.24.512-1.362 2.034-2.053 3.4-1.542.123.046.242.1.356.164 1.48.822 1.577 2.2.758 3.7l-5.212 9.738z" stroke="#110543" fill="#c5fff3"/><path d="M133.75 124.424c3.062 0 5.544 2.476 5.544 5.53h-11.088c0-3.054 2.482-5.53 5.544-5.53z" fill="#f1efff" class="G"/><g class="G D"><path d="M27.166 130.223h121.968m3.88 0h5.544m-140.263 0h5.544m138.046 0h1.663m-149.688 0h1.663"/><path d="M132.29 69.95c5.436 3.166 16.534 8.003 13.965 9.676-6.65 4.33-9.088 2.775-9.088 8 0 9.473 6.2 10.7 9.088 8.215s.314-9.75-3.306-8.215 10.064-5.315 10.064-9.226-16.74-16.665-20.723-17.476" class="C F H"/></g></g><path d="M62.085 33.73c-2.244 1.364-3.834 3.1-4.77 5.205" stroke="#fff" stroke-width="3.326" class="D"/><ellipse cx="55.707" cy="44.001" rx="1.317" ry="1.313" class="C"/><path d="M73.735 67.047c0 1.984-2.235 3.594-5 3.594s-5-1.6-5-3.594 2.235-3.594 5-3.594 5 1.6 5 3.594m23.285 0c0 1.984 2.235 3.594 5 3.594s5-1.6 5-3.594-2.235-3.594-5-3.594-5 1.6-5 3.594" fill-opacity=".1" fill="#f210c3"/><g class="E B"><g class="F"><path d="M76.425 78.383c1.972 3.458 4.878 5.187 8.717 5.187s6.745-1.73 8.717-5.187c1.142-2.567 1.142-4.065 0-4.496-1.713-.645-4.36 1.213-8.717 1.213s-7.1-1.825-8.717-1.213c-1.085.41-1.085 1.907 0 4.496z" class="I"/><path d="M79.254 81.713c1.63 1.238 3.59 1.856 5.888 1.856 2.62 0 4.806-.805 6.556-2.416.814-.75-2.176-2.493-6.535-2.493s-7.003 2.222-5.9 3.053z" fill="#ff0da0"/></g><path d="M97.714 45.62c6.052 1.944 9.08 3.695 9.08 5.25M73.4 45.62c-6.052 1.944-9.08 3.695-9.08 5.25" class="D H"/><path d="M99.67 65.802c-2.966 0-5.695-2.443-5.695-6.165s2.313-5.93 5.28-5.93 5.462 2.672 5.462 6.394-2.08 5.702-5.047 5.702z" class="C"/><path d="M5.972 5.596c-1.108.566-1.72 1.318-1.835 2.256-.15 1.21.057 1.968 1.082 2.94" transform="matrix(.121869 -.992546 -.992546 -.121869 107.20548 67.895591)" class="D"/><path d="M70.957 65.802c2.966 0 5.695-2.443 5.695-6.165s-2.313-5.93-5.28-5.93S65.9 56.378 65.9 60.1s2.08 5.702 5.047 5.702z" class="C"/><path d="M68.25 61.286c.697 1.03 1.518 1.546 2.463 1.546 1.22 0 1.946-.296 2.788-1.432" class="D"/></g><g transform="translate(56.133 48.384)"><g class="E"><path d="M17.563 0a7.14 7.14 0 0 1 6.787 4.926h10.028A7.14 7.14 0 0 1 41.164 0h10.428c3.94 0 7.135 3.195 7.135 7.135V17.5c0 3.94-3.195 7.135-7.135 7.135H41.164c-3.94 0-7.135-3.195-7.135-7.135V12.6h-9.33l.001 4.91c0 3.94-3.195 7.135-7.135 7.135H7.135C3.195 24.635 0 21.44 0 17.5V7.135C0 3.195 3.195 0 7.135 0h10.428z" fill="#afaae8" class="B"/><rect x="37.322" y="4.379" width="15.368" height="15.328" rx="4.391" class="I K"/></g><g transform="translate(37.871 4.927)" class="C"><mask id="E"><use xlink:href="#A"/></mask><use xlink:href="#D" mask="url(#E)"/></g><rect x="3.293" y="4.379" width="15.368" height="15.328" rx="4.391" class="E I K"/><g transform="translate(3.842 4.927)" class="C"><mask id="F"><use xlink:href="#B"/></mask><use xlink:href="#D" mask="url(#F)"/></g><path d="M27.443 4.927h-7.135m8.505 7.663h-6.807" class="B E"/></g><g transform="matrix(.996195 -.087156 .087156 .996195 4.071073 8.5446)"><rect fill="url(#C)" transform="matrix(.996195 .087156 -.087156 .996195 1.622819 -1.48704)" x="1.746" y="1.746" width="32.189" height="32.189" rx="3.219" class="E J"/><path d="M10.83 9.486l3.34.292-1.364 15.588-3.34-.292zm6.4 3.924l.292-3.34 8.907.78-.292 3.34zm-.537 6.125l.292-3.34 8.907.78-.292 3.34zm-.536 6.123l.292-3.34 8.907.78-.292 3.34z" class="C"/></g></g></svg>