<svg id="Layer_1" data-name="Layer 1" xmlns="http://www.w3.org/2000/svg" xmlns:xlink="http://www.w3.org/1999/xlink" viewBox="0 0 256 256"><defs><style>.cls-1{fill:url(#linear-gradient);}</style><linearGradient id="linear-gradient" x1="3.74" y1="252.26" x2="252.26" y2="3.74" gradientUnits="userSpaceOnUse"><stop offset="0" stop-color="#2e2975"/><stop offset="1" stop-color="#f2295b"/></linearGradient></defs><title>elementor-gradient-256px</title><path class="cls-1" d="M243.24,0H12.76A12.76,12.76,0,0,0,0,12.76V243.24A12.76,12.76,0,0,0,12.76,256H243.24A12.76,12.76,0,0,0,256,243.24V12.76A12.76,12.76,0,0,0,243.24,0ZM93.87,184.89H71.11V71.11H93.87V184.89Zm91,0H116.62V162.13h68.27v22.76Zm0-45.51H116.62V116.62h68.27v22.76Zm0-45.51H116.62V71.11h68.27V93.87Z" transform="translate(0 0)"/></svg>