<svg id="Layer_1" data-name="Layer 1" xmlns="http://www.w3.org/2000/svg" viewBox="0 0 126.31 32"><defs><style>.cls-1{fill:#fff;}</style></defs><title>logo-panel</title><path class="cls-1" d="M11,18.06A4.1,4.1,0,0,1,9.7,19.2,8.26,8.26,0,0,1,8,19.93a10.55,10.55,0,0,1-1.81.41q-0.92.13-1.62,0.19a22.24,22.24,0,0,0-.22,2.6,12.7,12.7,0,0,0,.13,2.28A5.83,5.83,0,0,0,5,27.12,1.61,1.61,0,0,0,6,28a2.2,2.2,0,0,0,1.77-.29,7.79,7.79,0,0,0,1.84-1.49A16,16,0,0,0,11.35,24q0.82-1.27,1.46-2.44t1.08-2.15A12.29,12.29,0,0,0,14.46,18a1.19,1.19,0,0,1,.6-0.76,1.35,1.35,0,0,1,.79-0.13,1,1,0,0,1,.63.41,1.11,1.11,0,0,1,.13.92q-0.13.38-.44,1.49a21,21,0,0,1-.92,2.5,28.37,28.37,0,0,1-1.46,2.88A13.59,13.59,0,0,1,11.73,28,11.06,11.06,0,0,1,9,30.1a7.26,7.26,0,0,1-3.45.82A4.29,4.29,0,0,1,2,29.34a8.82,8.82,0,0,1-1.71-4,18.19,18.19,0,0,1-.13-5.16A22.22,22.22,0,0,1,1.25,15,13.22,13.22,0,0,1,3.4,11,3.72,3.72,0,0,1,6.28,9.45a3.93,3.93,0,0,1,2.69,1,7.29,7.29,0,0,1,1.81,2.44,8.14,8.14,0,0,1,.73,2.85A3.29,3.29,0,0,1,11,18.06ZM7,12.42A2.89,2.89,0,0,0,6.14,14a28.73,28.73,0,0,0-1,3.45,6.25,6.25,0,0,0,1.39-.16,1.53,1.53,0,0,0,1-.67,2.39,2.39,0,0,0,.32-1.11,7.13,7.13,0,0,0,0-1.49,4.63,4.63,0,0,0-.32-1.27C7.37,12.47,7.21,12.34,7,12.42Z" transform="translate(-0.02 0)"/><path class="cls-1" d="M15.53,2.67A2.46,2.46,0,0,1,16.36.54,2.69,2.69,0,0,1,18.14,0a2.82,2.82,0,0,1,1.71.7,1.64,1.64,0,0,1,.54,1.65q-0.13.76-.41,3t-0.54,5.1q-0.25,2.88-.44,6t-0.22,5.73A30.88,30.88,0,0,0,19,26.49q0.22,1.68.86,1.68,0.38,0,1-1.39t1.33-3.17q0.67-1.77,1.24-3.45T24.16,18a1,1,0,0,1,.57-0.76,1.36,1.36,0,0,1,.86-0.1,1.25,1.25,0,0,1,.7.44,0.92,0.92,0,0,1,.1.92Q26,19.74,25.39,22a35.59,35.59,0,0,1-1.58,4.5,16.37,16.37,0,0,1-2.28,3.86A4,4,0,0,1,18.38,32a2.74,2.74,0,0,1-2.57-1.81,14.66,14.66,0,0,1-1.17-4.59,44.39,44.39,0,0,1-.22-6.21q0.1-3.42.35-6.68t0.51-6Q15.53,4.06,15.53,2.67Z" transform="translate(-0.02 0)"/><path class="cls-1" d="M34.73,18.06a4.1,4.1,0,0,1-1.27,1.14,8.26,8.26,0,0,1-1.65.73,10.55,10.55,0,0,1-1.81.41q-0.92.13-1.62,0.19a22.24,22.24,0,0,0-.22,2.6,12.7,12.7,0,0,0,.13,2.28,5.83,5.83,0,0,0,.51,1.71,1.61,1.61,0,0,0,1,.89,2.2,2.2,0,0,0,1.77-.29,7.79,7.79,0,0,0,1.84-1.49A16,16,0,0,0,35.14,24Q36,22.73,36.6,21.56t1.08-2.15A12.29,12.29,0,0,0,38.21,18a1.19,1.19,0,0,1,.6-0.76,1.35,1.35,0,0,1,.79-0.13,1,1,0,0,1,.63.41,1.11,1.11,0,0,1,.13.92q-0.13.38-.44,1.49a21,21,0,0,1-.92,2.5,28.37,28.37,0,0,1-1.46,2.88A13.59,13.59,0,0,1,35.49,28a11.06,11.06,0,0,1-2.76,2.06,7.26,7.26,0,0,1-3.45.82,4.29,4.29,0,0,1-3.55-1.58,8.82,8.82,0,0,1-1.71-4,18.19,18.19,0,0,1-.16-5.16A22.22,22.22,0,0,1,25,15a13.22,13.22,0,0,1,2.14-4A3.72,3.72,0,0,1,30,9.45a3.93,3.93,0,0,1,2.69,1,7.29,7.29,0,0,1,1.81,2.44,8.14,8.14,0,0,1,.73,2.85A3.29,3.29,0,0,1,34.73,18.06ZM30.8,12.42a2.89,2.89,0,0,0-1,1.62,28.73,28.73,0,0,0-1,3.45,6.25,6.25,0,0,0,1.39-.16,1.53,1.53,0,0,0,1-.67,2.39,2.39,0,0,0,.32-1.11,7.13,7.13,0,0,0,0-1.49,4.63,4.63,0,0,0-.32-1.27C31.14,12.47,31,12.34,30.8,12.42Z" transform="translate(-0.02 0)"/><path class="cls-1" d="M38.4,14.13a3.56,3.56,0,0,1,1.2-2.19,5.39,5.39,0,0,1,1.93-1.08,3,3,0,0,1,1.71-.06,0.72,0.72,0,0,1,.54,1q-0.19.89-.44,2.41t-0.44,3.1q-0.19,1.58-.32,3t-0.13,2.06a18.71,18.71,0,0,1,.69-1.84q0.38-1,.79-1.87A17.45,17.45,0,0,1,44.74,17a8.24,8.24,0,0,1,.82-1.2,2.82,2.82,0,0,1,1.36-1,4.86,4.86,0,0,1,1.71-.35,1.91,1.91,0,0,1,1.3.44,1,1,0,0,1,.21,1.27,8.59,8.59,0,0,0-.25,1.46Q49.74,18.7,49.62,20a17.7,17.7,0,0,1,1-2q0.63-1.08,1.27-2.06l1.17-1.81a13.76,13.76,0,0,1,.86-1.2,3.24,3.24,0,0,1,1.33-1A4.06,4.06,0,0,1,57,11.52a2.32,2.32,0,0,1,1.39.41,1.44,1.44,0,0,1,.51,1.36l-0.22,1.52q-0.16,1.08-.41,2.47t-0.48,2.91q-0.22,1.52-.38,2.76t-0.23,2q0,0.82.22,0.82a1.73,1.73,0,0,0,1-.89,15,15,0,0,0,1.24-2.12q0.6-1.24,1.14-2.57t0.79-2.15a1.32,1.32,0,0,1,.6-0.79,1.08,1.08,0,0,1,.79-0.13,1.06,1.06,0,0,1,.78,1.28l0,0.08a16,16,0,0,1-.86,2.5,27.53,27.53,0,0,1-1.62,3.26,19.6,19.6,0,0,1-2.09,3,4,4,0,0,1-2.34,1.52,2.66,2.66,0,0,1-2.12-.32,3.14,3.14,0,0,1-1.14-1.65,9.29,9.29,0,0,1-.37-2.47,18.9,18.9,0,0,1,.06-2.69q0.13-1.33.32-2.38a9.65,9.65,0,0,1,.38-1.55,3.18,3.18,0,0,0-1,1.2q-0.56,1-1.22,2.37t-1.24,2.54q-0.57,1.24-.76,1.68V25.47a2.38,2.38,0,0,1-.6.86,3.71,3.71,0,0,1-1.11.76,2.88,2.88,0,0,1-1.17.28,0.74,0.74,0,0,1-.73-0.63A7.84,7.84,0,0,1,45.82,25c0-.74-0.06-1.46-0.06-2.15V21a4.33,4.33,0,0,0,0-1,2.06,2.06,0,0,0-.7,1.14q-0.38,1-.79,2.28T43.54,26a15.81,15.81,0,0,0-.4,2,1.64,1.64,0,0,1-.86,1.24,3.17,3.17,0,0,1-1.58.41,2.68,2.68,0,0,1-1.56-.44,1.43,1.43,0,0,1-.6-1.39,27.53,27.53,0,0,0,0-2.88q-0.1-1.81-.19-3.77t-0.1-3.86A21.92,21.92,0,0,1,38.4,14.13Z" transform="translate(-0.02 0)"/><path class="cls-1" d="M72.14,18.06a4.1,4.1,0,0,1-1.3,1.14,8.26,8.26,0,0,1-1.65.73,10.55,10.55,0,0,1-1.81.41q-0.92.13-1.62,0.19a22.24,22.24,0,0,0-.22,2.6,12.7,12.7,0,0,0,.13,2.28,5.83,5.83,0,0,0,.47,1.71,1.61,1.61,0,0,0,1,.88,2.2,2.2,0,0,0,1.77-.29,7.79,7.79,0,0,0,1.84-1.49A16,16,0,0,0,72.49,24q0.82-1.27,1.46-2.44T75,19.41A12.29,12.29,0,0,0,75.59,18a1.19,1.19,0,0,1,.6-0.76A1.35,1.35,0,0,1,77,17.11a1,1,0,0,1,.63.41,1.11,1.11,0,0,1,.13.92q-0.13.38-.44,1.49a21,21,0,0,1-.92,2.5,28.37,28.37,0,0,1-1.46,2.88,13.59,13.59,0,0,1-2,2.69,11.06,11.06,0,0,1-2.73,2.1,7.26,7.26,0,0,1-3.45.82,4.29,4.29,0,0,1-3.55-1.58,8.82,8.82,0,0,1-1.71-4,18.19,18.19,0,0,1-.16-5.16A22.22,22.22,0,0,1,62.38,15a13.22,13.22,0,0,1,2.15-4,3.72,3.72,0,0,1,2.88-1.58,3.93,3.93,0,0,1,2.69,1,7.29,7.29,0,0,1,1.81,2.44,8.14,8.14,0,0,1,.73,2.85A3.29,3.29,0,0,1,72.14,18.06Zm-4-5.64a2.89,2.89,0,0,0-1,1.62,28.73,28.73,0,0,0-1,3.45,6.25,6.25,0,0,0,1.39-.16,1.53,1.53,0,0,0,1-.67,2.39,2.39,0,0,0,.32-1.11,7.13,7.13,0,0,0,0-1.49,4.63,4.63,0,0,0-.32-1.27C68.51,12.47,68.35,12.34,68.14,12.42Z" transform="translate(-0.02 0)"/><path class="cls-1" d="M75.85,15a2.7,2.7,0,0,1,1.08-1.9,3.51,3.51,0,0,1,1.81-.7,2.61,2.61,0,0,1,1.62.38,1.31,1.31,0,0,1,.57,1.39q-0.13.89-.35,2t-0.44,2.18q-0.19,1.11-.28,2.09a8.51,8.51,0,0,0,0,1.62A19.83,19.83,0,0,1,81,19a15.23,15.23,0,0,1,1.36-2.31,3.27,3.27,0,0,1,1.39-1,4.23,4.23,0,0,1,1.71-.32,2.09,2.09,0,0,1,1.33.47A1,1,0,0,1,87,17.11a10.34,10.34,0,0,0-.35,1.77,18.62,18.62,0,0,0-.16,2.44,15.87,15.87,0,0,0,.13,2.15c0.08,0.61.23,0.92,0.44,0.92a1.71,1.71,0,0,0,1-.7A12.82,12.82,0,0,0,89.34,22a19.9,19.9,0,0,0,1.17-2.09A13.92,13.92,0,0,0,91.3,18a1,1,0,0,1,.54-0.76,1.35,1.35,0,0,1,.79-0.13,1,1,0,0,1,.63.41,1.11,1.11,0,0,1,.13.92,12.62,12.62,0,0,1-.89,2.41,23.13,23.13,0,0,1-1.65,3,14.89,14.89,0,0,1-2.09,2.57,3.27,3.27,0,0,1-2.22,1.11,3.19,3.19,0,0,1-2.63-1,5.11,5.11,0,0,1-1-2.22,9.38,9.38,0,0,1-.19-2.41,4.57,4.57,0,0,0-.06-1.49,1.68,1.68,0,0,0-.67.89,14.94,14.94,0,0,0-.67,1.77q-0.32,1-.57,2.12a13.67,13.67,0,0,0-.32,1.87,1.64,1.64,0,0,1-.85,1.24,3.16,3.16,0,0,1-1.58.41,2.83,2.83,0,0,1-1.55-.44,1.41,1.41,0,0,1-.63-1.39q0.06-1.08,0-2.6t-0.13-3.2q-0.06-1.68-.06-3.26A14.58,14.58,0,0,1,75.85,15Z" transform="translate(-0.02 0)"/><path class="cls-1" d="M92,8.37V6.79a2.46,2.46,0,0,1,.82-2.12,2.64,2.64,0,0,1,1.77-.54,2.79,2.79,0,0,1,1.68.7,1.64,1.64,0,0,1,.54,1.65L96.56,8.12h1.52a2.9,2.9,0,0,1,1.74.41,1.14,1.14,0,0,1,.54.89,1.06,1.06,0,0,1-.57.86,2.83,2.83,0,0,1-1.58.38h-1.9q-0.25,2.28-.44,5t-0.25,5.2a39.9,39.9,0,0,0,.06,4q0.13,1.61.57,1.62a2,2,0,0,0,1-1.14q0.67-1.14,1.36-2.63t1.27-2.91q0.57-1.43.76-1.93a1,1,0,0,1,.57-0.76,1.37,1.37,0,0,1,.86-0.1,1.25,1.25,0,0,1,.7.44,0.92,0.92,0,0,1,.1.92q-0.38,1.27-1,3.29a26.43,26.43,0,0,1-1.58,3.93A13.44,13.44,0,0,1,98,29a4.23,4.23,0,0,1-3.17,1.39,2.4,2.4,0,0,1-2-1,6.4,6.4,0,0,1-1.14-2.5,18.91,18.91,0,0,1-.47-3.58q-0.1-2,0-4.18t0.25-4.34q0.19-2.19.32-4H90.29a2.67,2.67,0,0,1-1.55-.38,1.15,1.15,0,0,1-.6-0.84,1,1,0,0,1,.47-0.82,2.78,2.78,0,0,1,1.65-.38H92Z" transform="translate(-0.02 0)"/><path class="cls-1" d="M106.38,27.5a5.52,5.52,0,0,1-3.74-1.2,6.25,6.25,0,0,1-1.93-3,9.72,9.72,0,0,1-.32-3.87,11.37,11.37,0,0,1,1.08-3.83,8.5,8.5,0,0,1,2.25-2.88,4.54,4.54,0,0,1,3.29-1,5.87,5.87,0,0,1,3.61,1.33,7,7,0,0,1,2,3,9.74,9.74,0,0,1,.52,3.75,9.5,9.5,0,0,1-.92,3.71,7.8,7.8,0,0,1-2.31,2.85A5.71,5.71,0,0,1,106.38,27.5Zm0.82-2.85a1.17,1.17,0,0,0,1.14-.65,5.27,5.27,0,0,0,.63-1.9,14.08,14.08,0,0,0,.16-2.57,12.58,12.58,0,0,0-.32-2.6,6.93,6.93,0,0,0-.79-2,1.44,1.44,0,0,0-1.2-.82,1.27,1.27,0,0,0-1.08.76,6.06,6.06,0,0,0-.67,1.9,13.08,13.08,0,0,0-.22,2.5,12,12,0,0,0,.25,2.53,6.32,6.32,0,0,0,.76,2A1.68,1.68,0,0,0,107.2,24.65Z" transform="translate(-0.02 0)"/><path class="cls-1" d="M114.55,18.82a1.08,1.08,0,0,1-.54.73,1.21,1.21,0,0,1-.86.13,1.12,1.12,0,0,1-.7-0.44,0.89,0.89,0,0,1,0-.92l0.38-1.08a2.08,2.08,0,0,1-.63-1.33,2.75,2.75,0,0,1,.25-1.43,3.17,3.17,0,0,1,.92-1.14,2.14,2.14,0,0,1,1.36-.47,1.21,1.21,0,0,1,1.44.92l0,0.08a4.26,4.26,0,0,1-.38,2.19,2.21,2.21,0,0,0,1.24.06,15.66,15.66,0,0,1,1.62-.16,2.18,2.18,0,0,1,1.27.29,1.29,1.29,0,0,1,.25,1.46q-0.25,1.14-.54,2.72t-0.41,3a11.61,11.61,0,0,0,0,2.44q0.13,1,.7,1a1.8,1.8,0,0,0,1-1.11q0.6-1.11,1.24-2.57t1.14-3a15.79,15.79,0,0,0,.63-2.25,1.26,1.26,0,0,1,.54-0.89,1.42,1.42,0,0,1,.86-0.22,1,1,0,0,1,.73.38,1.3,1.3,0,0,1,.22,1q-0.06.32-.32,1.36T125.26,22q-0.44,1.3-1.08,2.72a14,14,0,0,1-1.52,2.63,8.08,8.08,0,0,1-2,1.93,3.87,3.87,0,0,1-2.41.67A2.47,2.47,0,0,1,116,28.59a8.36,8.36,0,0,1-.89-3.1,15.68,15.68,0,0,1,.1-3.83,20.07,20.07,0,0,1,.79-3.55,3.21,3.21,0,0,1-.63.06h-0.63A2,2,0,0,0,114.55,18.82Z" transform="translate(-0.02 0)"/></svg>