<svg width="465" height="75" viewBox="0 0 465 75" fill="#ffffff" xmlns="http://www.w3.org/2000/svg">
<path d="M15.35 61.23C18.155 64.09 21.713 65.52 25.972 65.52C29.557 65.52 32.492 64.766 34.777 63.258C37.089 61.75 38.569 59.618 39.271 56.862H50.205C49.244 62.296 46.569 66.638 42.154 69.914C37.764 73.19 32.362 74.802 25.972 74.802C20.83 74.802 16.311 73.684 12.415 71.448C8.54501 69.212 5.50601 66.196 3.35001 62.426C1.19401 58.656 0.077 54.548 0 50.154H10.622C10.96 54.704 12.544 58.396 15.376 61.256L15.35 61.23ZM10.415 46.748C10.415 45.578 10.545 44.044 10.83 42.094H38.751C38.465 38.376 37.115 35.386 34.673 33.124C32.232 30.862 28.985 29.718 24.934 29.718C21.142 29.718 18.051 30.81 15.609 33.02C13.168 35.23 11.583 38.246 10.804 42.094H0.181C0.805 38.168 2.181 34.606 4.311 31.408C6.441 28.21 9.272 25.688 12.804 23.868C16.337 22.048 20.388 21.138 24.908 21.138C30.206 21.138 34.725 22.282 38.465 24.596C42.206 26.91 45.037 29.926 46.907 33.67C48.803 37.414 49.738 41.522 49.738 45.994C49.738 47.242 49.66 48.62 49.53 50.128H10.571C10.441 48.49 10.363 47.346 10.363 46.722L10.415 46.748Z"/>
<path d="M57.4 9.49H49.167V0H68.438V73.97H57.4V9.49Z"/>
<path d="M89.97 61.23C92.775 64.09 96.333 65.52 100.593 65.52C104.177 65.52 107.112 64.766 109.397 63.258C111.709 61.75 113.189 59.618 113.891 56.862H124.825C123.864 62.296 121.189 66.638 116.774 69.914C112.384 73.19 106.982 74.802 100.593 74.802C95.45 74.802 90.931 73.684 87.035 71.448C83.165 69.212 80.126 66.196 77.97 62.426C75.814 58.656 74.698 54.548 74.62 50.154H85.243C85.58 54.704 87.165 58.396 89.996 61.256L89.97 61.23ZM85.035 46.748C85.035 45.578 85.165 44.044 85.45 42.094H113.371C113.086 38.376 111.735 35.386 109.294 33.124C106.852 30.862 103.605 29.718 99.554 29.718C95.762 29.718 92.671 30.81 90.229 33.02C87.788 35.23 86.204 38.246 85.424 42.094H74.801C75.425 38.168 76.801 34.606 78.931 31.408C81.061 28.21 83.892 25.688 87.424 23.868C90.957 22.048 95.008 21.138 99.528 21.138C104.826 21.138 109.345 22.282 113.086 24.596C116.826 26.91 119.657 29.926 121.527 33.67C123.423 37.414 124.358 41.522 124.358 45.994C124.358 47.242 124.28 48.62 124.15 50.128H85.191C85.061 48.49 84.983 47.346 84.983 46.722L85.035 46.748Z"/>
<path d="M135.266 31.382H127.033V21.996H146.201V30.758C147.447 27.794 149.395 25.454 152.071 23.738C154.746 22.022 157.941 21.164 161.655 21.164C165.577 21.164 169.031 22.1 172.018 23.946C175.005 25.792 177.005 28.34 178.044 31.59C179.212 28.574 181.394 26.078 184.589 24.102C187.783 22.152 191.264 21.164 195.056 21.164C200.692 21.164 205.159 22.958 208.458 26.52C211.756 30.108 213.393 34.84 213.393 40.768V73.996H202.458V43.862C202.458 39.884 201.497 36.686 199.575 34.268C197.653 31.85 195.082 30.654 191.835 30.654C188.199 30.654 185.264 32.11 183.082 34.996C180.875 37.882 179.784 41.392 179.784 45.526V73.996H168.745V43.862C168.745 39.884 167.81 36.686 165.914 34.268C164.018 31.85 161.473 30.654 158.226 30.654C154.642 30.654 151.759 32.11 149.525 35.048C147.292 37.96 146.175 41.47 146.175 45.526V73.996H135.24V31.382H135.266Z"/>
<path d="M234.82 61.23C237.625 64.09 241.184 65.52 245.443 65.52C249.027 65.52 251.962 64.766 254.248 63.258C256.56 61.75 258.04 59.618 258.741 56.862H269.676C268.715 62.296 266.04 66.638 261.624 69.914C257.235 73.19 251.833 74.802 245.443 74.802C240.301 74.802 235.781 73.684 231.885 71.448C228.015 69.212 224.977 66.196 222.821 62.426C220.665 58.656 219.548 54.548 219.47 50.154H230.093C230.431 54.704 232.015 58.396 234.846 61.256L234.82 61.23ZM229.885 46.748C229.885 45.578 230.015 44.044 230.301 42.094H258.222C257.936 38.376 256.586 35.386 254.144 33.124C251.703 30.862 248.456 29.718 244.404 29.718C240.612 29.718 237.521 30.81 235.08 33.02C232.639 35.23 231.054 38.246 230.275 42.094H219.652C220.275 38.168 221.652 34.606 223.782 31.408C225.912 28.21 228.743 25.688 232.275 23.868C235.807 22.048 239.859 21.138 244.378 21.138C249.677 21.138 254.196 22.282 257.936 24.596C261.676 26.91 264.507 29.926 266.377 33.67C268.273 37.414 269.208 41.522 269.208 45.994C269.208 47.242 269.13 48.62 269.001 50.128H230.041C229.911 48.49 229.833 47.346 229.833 46.722L229.885 46.748Z"/>
<path d="M279.675 31.382H271.442V21.996H290.61V30.758C291.987 27.664 294.142 25.298 297.051 23.634C299.96 21.996 303.363 21.164 307.207 21.164C313.051 21.164 317.726 23.062 321.284 26.884C324.816 30.706 326.582 35.698 326.582 41.886V73.97H315.544V44.148C315.544 40.222 314.479 37.076 312.349 34.658C310.219 32.24 307.414 31.044 303.908 31.044C300.064 31.044 296.869 32.422 294.376 35.178C291.857 37.934 290.61 41.444 290.61 45.708V73.97H279.675V31.382Z"/>
<path d="M345.881 69.342C342.687 66.248 341.076 61.984 341.076 56.55V31.382H330.557V21.996H341.076V5.902H352.011V21.996H367.049V31.382H352.011V56.134C352.011 58.812 352.712 60.892 354.115 62.374C355.517 63.856 357.465 64.584 359.933 64.584H367.049V73.97H358.816C353.387 73.97 349.076 72.41 345.881 69.316V69.342Z"/>
<path d="M383.282 71.344C379.204 69.03 376.01 65.858 373.698 61.802C371.387 57.746 370.244 53.144 370.244 47.97C370.244 42.796 371.387 38.194 373.698 34.138C376.01 30.082 379.204 26.91 383.282 24.596C387.36 22.282 391.983 21.138 397.152 21.138C402.32 21.138 406.917 22.282 411.021 24.596C415.099 26.91 418.294 30.082 420.605 34.138C422.917 38.194 424.06 42.796 424.06 47.97C424.06 53.144 422.917 57.746 420.605 61.802C418.294 65.858 415.099 69.03 411.021 71.344C406.943 73.658 402.32 74.802 397.152 74.802C391.983 74.802 387.386 73.658 383.282 71.344ZM408.528 60.424C411.437 57.226 412.917 53.092 412.917 47.996C412.917 42.9 411.463 38.766 408.528 35.568C405.619 32.37 401.801 30.758 397.152 30.758C392.502 30.758 388.71 32.344 385.801 35.568C382.918 38.766 381.464 42.9 381.464 47.996C381.464 53.092 382.918 57.226 385.801 60.424C388.684 63.622 392.477 65.234 397.152 65.234C401.827 65.234 405.619 63.648 408.528 60.424Z"/>
<path d="M434.111 31.382H425.878V21.996H445.046V31.694C446.292 28.314 447.98 25.87 450.136 24.31C452.292 22.75 455.175 21.996 458.733 21.996H464.915V31.382H457.175C452.915 31.382 449.825 33.046 447.903 36.374C445.981 39.702 445.02 44.278 445.02 50.05V73.996H434.085V31.382H434.111Z"/>
</svg>
