<svg width="125" height="125" viewBox="0 0 125 125" fill="none" xmlns="http://www.w3.org/2000/svg">
<rect width="124" height="124" transform="translate(0.166016 0.418945)" fill="white"/>
<path d="M25.9994 103.752H98.3327M36.3325 83.0855C29.8859 83.0855 23.7034 80.636 19.1449 76.2757C14.5865 71.9155 12.0256 66.0018 12.0256 59.8355C12.0256 53.6692 14.5865 47.7555 19.1449 43.3953C23.7034 39.0351 29.8859 36.5855 36.3325 36.5855C37.855 29.8026 42.3091 23.8418 48.7148 20.0145C55.1206 16.1872 62.9533 14.8069 70.4899 16.1772C78.0264 17.5475 84.6495 21.5561 88.9021 27.3213C93.1546 33.0865 94.6883 40.1359 93.1658 46.9188H98.3325C103.128 46.9188 107.728 48.824 111.119 52.2153C114.511 55.6066 116.416 60.2062 116.416 65.0022C116.416 69.7982 114.511 74.3977 111.119 77.789C107.728 81.1803 103.128 83.0855 98.3325 83.0855H36.3325Z" stroke="#525962" stroke-width="4" stroke-linecap="round" stroke-linejoin="round"/>
</svg>
