<svg xmlns="http://www.w3.org/2000/svg" width="360px" height="64px" viewBox="0 0 360 64" role="img" aria-label="Elementor Logo">
  <defs>
    <style>
      .e-logo-color {
        fill: #ed01ee;
      }
	  .e-symbol-color {
		fill: #fff;
	  }
      @media (prefers-color-scheme: dark) {
        .e-logo-color {
          fill: #fff;
        }
		.e-symbol-color {
			fill: #ed01ee;
		}
      }
    </style>
  </defs>
<ellipse class="e-logo-color" cx="31.3" cy="32" rx="31.3" ry="31.2"/>
<path class="e-symbol-color" d="M21.9,47.6h-6.3V16.4h6.3V47.6z M47,47.6H28.2v-6.2H47V47.6z M47,35.1H28.2v-6.2H47V35.1z M47,22.6H28.2v-6.2H47V22.6z"/>
<path class="e-logo-color" d="M90.2,41.7c1.7,1.7,3.8,2.6,6.4,2.6c2.2,0,3.9-0.5,5.3-1.4c1.4-0.9,2.3-2.2,2.7-3.8h6.6c-0.6,3.3-2.2,5.9-4.8,7.8
	c-2.6,2-5.9,2.9-9.7,2.9c-3.1,0-5.8-0.7-8.1-2c-2.3-1.3-4.2-3.2-5.4-5.4s-2-4.7-2-7.4h6.4C87.6,37.8,88.6,40,90.2,41.7L90.2,41.7
	L90.2,41.7z M87.3,33c0-0.7,0.1-1.6,0.2-2.8h16.8c-0.2-2.2-1-4-2.4-5.4c-1.5-1.4-3.4-2-5.8-2c-2.3,0-4.1,0.7-5.6,2
	c-1.5,1.3-2.4,3.1-2.9,5.4h-6.4c0.4-2.4,1.2-4.5,2.5-6.4c1.3-1.9,3-3.4,5.1-4.5c2.1-1.1,4.6-1.6,7.3-1.6c3.2,0,5.9,0.7,8.1,2.1
	c2.2,1.4,3.9,3.2,5.1,5.4c1.1,2.2,1.7,4.7,1.7,7.4c0,0.8-0.1,1.6-0.1,2.5H87.4C87.3,34,87.3,33.4,87.3,33L87.3,33L87.3,33z"/>
<path class="e-logo-color" d="M115.5,10.7h-4.9V5h11.6v44.4h-6.6C115.5,49.4,115.5,10.7,115.5,10.7z"/>
<path class="e-logo-color" d="M135,41.7c1.7,1.7,3.8,2.6,6.4,2.6c2.1,0,3.9-0.5,5.3-1.4c1.4-0.9,2.3-2.2,2.7-3.8h6.6c-0.6,3.3-2.2,5.9-4.8,7.8
	c-2.6,2-5.9,2.9-9.7,2.9c-3.1,0-5.8-0.7-8.1-2c-2.3-1.3-4.1-3.2-5.4-5.4c-1.3-2.3-2-4.7-2-7.4h6.4C132.4,37.8,133.3,40,135,41.7
	L135,41.7L135,41.7z M132.1,33c0-0.7,0.1-1.6,0.2-2.8h16.8c-0.2-2.2-1-4-2.4-5.4s-3.4-2-5.8-2c-2.3,0-4.1,0.7-5.6,2
	c-1.5,1.3-2.4,3.1-2.9,5.4h-6.4c0.4-2.4,1.2-4.5,2.5-6.4c1.3-1.9,3-3.4,5.1-4.5c2.1-1.1,4.6-1.6,7.3-1.6c3.2,0,5.9,0.7,8.1,2.1
	c2.2,1.4,3.9,3.2,5.1,5.4c1.1,2.2,1.7,4.7,1.7,7.4c0,0.8-0.1,1.6-0.1,2.5h-23.4C132.1,34,132,33.4,132.1,33L132.1,33L132.1,33z"/>
<path class="e-logo-color" d="M162.2,23.8h-4.9v-5.6h11.5v5.3c0.8-1.8,1.9-3.2,3.5-4.2c1.6-1,3.5-1.5,5.8-1.5c2.4,0,4.4,0.6,6.2,1.7s3,2.6,3.6,4.6
	c0.7-1.8,2-3.3,3.9-4.5c1.9-1.2,4-1.8,6.3-1.8c3.4,0,6.1,1.1,8,3.2c2,2.1,3,5,3,8.5v19.9h-6.6V31.3c0-2.4-0.6-4.3-1.7-5.8
	s-2.7-2.2-4.6-2.2c-2.2,0-3.9,0.9-5.2,2.6c-1.3,1.7-2,3.8-2,6.3v17.1h-6.6V31.3c0-2.4-0.6-4.3-1.7-5.8s-2.7-2.2-4.6-2.2
	c-2.1,0-3.9,0.9-5.2,2.6c-1.3,1.8-2,3.9-2,6.3v17.1h-6.6L162.2,23.8L162.2,23.8L162.2,23.8z"/>
<path class="e-logo-color" d="M221.9,41.7c1.7,1.7,3.8,2.6,6.4,2.6c2.1,0,3.9-0.5,5.3-1.4c1.4-0.9,2.3-2.2,2.7-3.8h6.6c-0.6,3.3-2.2,5.9-4.8,7.8
	c-2.6,2-5.9,2.9-9.7,2.9c-3.1,0-5.8-0.7-8.1-2c-2.3-1.3-4.1-3.2-5.4-5.4c-1.3-2.3-2-4.7-2-7.4h6.4C219.3,37.8,220.2,40,221.9,41.7
	L221.9,41.7L221.9,41.7z M219,33c0-0.7,0.1-1.6,0.2-2.8H236c-0.2-2.2-1-4-2.4-5.4c-1.5-1.4-3.4-2-5.8-2c-2.3,0-4.1,0.7-5.6,2
	c-1.5,1.3-2.4,3.1-2.9,5.4h-6.4c0.4-2.4,1.2-4.5,2.5-6.4s3-3.4,5.1-4.5c2.1-1.1,4.6-1.6,7.3-1.6c3.2,0,5.9,0.7,8.1,2.1
	c2.2,1.4,3.9,3.2,5.1,5.4c1.1,2.2,1.7,4.7,1.7,7.4c0,0.8-0.1,1.6-0.1,2.5h-23.4C219,34,219,33.4,219,33L219,33L219,33z"/>
<path class="e-logo-color" d="M248.9,23.8h-4.9v-5.6h11.5v5.3c0.8-1.9,2.1-3.3,3.9-4.3c1.8-1,3.8-1.5,6.1-1.5c3.5,0,6.3,1.1,8.5,3.4
	c2.1,2.3,3.2,5.3,3.2,9v19.2h-6.6V31.5c0-2.4-0.6-4.2-1.9-5.7s-3-2.2-5.1-2.2c-2.3,0-4.2,0.8-5.7,2.5c-1.5,1.6-2.3,3.8-2.3,6.3v17
	h-6.6L248.9,23.8L248.9,23.8z"/>
<path class="e-logo-color" d="M288.6,46.6c-1.9-1.9-2.9-4.4-2.9-7.7V23.8h-6.3v-5.6h6.3V8.5h6.6v9.7h9v5.6h-9v14.8c0,1.6,0.4,2.8,1.3,3.7
	c0.8,0.9,2,1.3,3.5,1.3h4.3v5.6h-4.9C293.1,49.3,290.5,48.4,288.6,46.6L288.6,46.6L288.6,46.6z"/>
<path class="e-logo-color" d="M311,47.8c-2.5-1.4-4.4-3.3-5.8-5.7c-1.4-2.4-2.1-5.2-2.1-8.3s0.7-5.9,2.1-8.3c1.4-2.4,3.3-4.3,5.8-5.7s5.2-2.1,8.3-2.1
	s5.9,0.7,8.3,2.1c2.5,1.4,4.4,3.3,5.8,5.7c1.4,2.4,2.1,5.2,2.1,8.3s-0.7,5.9-2.1,8.3c-1.4,2.4-3.3,4.3-5.8,5.7s-5.2,2.1-8.3,2.1
	S313.5,49.2,311,47.8z M326.2,41.2c1.8-1.9,2.6-4.4,2.6-7.5s-0.9-5.5-2.6-7.5c-1.8-1.9-4-2.9-6.8-2.9s-5.1,1-6.8,2.9
	c-1.7,1.9-2.6,4.4-2.6,7.5s0.9,5.5,2.6,7.5s4,2.9,6.8,2.9S324.4,43.2,326.2,41.2z"/>
<path class="e-logo-color" d="M341.5,23.8h-4.9v-5.6h11.5V24c0.8-2,1.8-3.5,3-4.4c1.3-0.9,3-1.4,5.2-1.4h3.7v5.6h-4.6c-2.6,0-4.4,1-5.6,3
	s-1.7,4.7-1.7,8.2v14.4h-6.6L341.5,23.8L341.5,23.8L341.5,23.8z"/>
</svg>
