<svg xmlns="http://www.w3.org/2000/svg" width="94.525" height="95.5245" viewBox="0 0 94.525 95.5245"><path d="M94.3516,39.1831A47.7579,47.7579,0,0,0,81.4189,14.73,46.989,46.989,0,0,0,8.7041,21.9668a48.145,48.145,0,0,0,5.8774,60.3037,46.8856,46.8856,0,0,0,59.6753,5.94A47.4967,47.4967,0,0,0,91.6621,66.7764,48.069,48.069,0,0,0,94.3516,39.1831Zm-3.17,27.396a46.9775,46.9775,0,0,1-17.2158,21.2,46.3636,46.3636,0,0,1-59.0146-5.874A47.6242,47.6242,0,0,1,9.1377,22.2539,46.7018,46.7018,0,0,1,30.1143,4.8555,46.3793,46.3793,0,0,1,81.05,15.0957,47.61,47.61,0,0,1,91.1816,66.5791Z" /></svg>
