<svg xmlns="http://www.w3.org/2000/svg" width="139" height="20.5" viewBox="0 0 139 20.5"><path d="M115.9961,10.8105C110.2676,5.8647,104.3428.75,92.667.75S75.0664,5.8647,69.3364,10.811c-5.66,4.8863-11.5127,9.939-23.0029,9.939S28.99,15.6973,23.33,10.8105C17.6006,5.8647,11.6763.75,0,.75v.5c11.49,0,17.3428,5.0527,23.0029,9.939C28.7324,16.1357,34.6567,21.25,46.3335,21.25s17.6006-5.1143,23.33-10.06C75.3232,6.3027,81.1768,1.25,92.667,1.25S110.01,6.3027,115.67,11.189c5.73,4.9467,11.6533,10.061,23.33,10.061v-.5C127.51,20.75,121.6562,15.6973,115.9961,10.8105Z" /></svg>
