<svg xmlns="http://www.w3.org/2000/svg" viewBox="0 0 283.5 27.8" preserveAspectRatio="none">
	<path class="elementor-shape-fill" style="opacity: .33" d="M134.1,18.6c-57.8,24.4-74.6-9.4-90.8,0C18.7,32.9,0,16.5,0,16.5L0,0h283.5v16.5	c0,0-17.6,7.2-26.9,8.1c-9.3,0.9-17.8-3.4-21.5-6.1c-6.6-4.8-23.8-16.1-38.1-17.2S139.6,16.3,134.1,18.6z"/>
	<path class="elementor-shape-fill" style="opacity: .66" d="M208.1,18.6c-12.9,0-21.9-6.4-36.6-10.8c-8.1-2.4-42.6-2.8-72,10.8	c-29.4,13.6-26-9.5-42.3,0C32.8,32.7,0,11,0,11V0l283.5,0v10.1c0,0-8-5.1-26.1-5.1C229.7,5,219.9,18.6,208.1,18.6z"/>
	<path class="elementor-shape-fill" d="M217.2,8c-56.7-15.9-75.4,18.1-112,5.4C68.6,0.5,68.6,1.5,52.4,5.7	c-16.1,4.2-14.9,6.7-26.9,8.8C8.1,17.6,0,0,0,0h283.5c0,0-2.8,11.3-23.7,13.3S235.2,13,217.2,8z"/>
</svg>