<?xml version="1.0" standalone="no"?>
<!DOCTYPE svg PUBLIC "-//W3C//DTD SVG 1.1//EN" "http://www.w3.org/Graphics/SVG/1.1/DTD/svg11.dtd">
<svg xmlns="http://www.w3.org/2000/svg">
<metadata>Elementor Icon Font by Elementor.com</metadata>
<defs>
<font id="eicons" horiz-adv-x="1000" >
<font-face font-family="eicons" font-weight="400" font-stretch="normal" units-per-em="1000" ascent="850" descent="-150" />
<missing-glyph horiz-adv-x="1000" />
<glyph glyph-name="elementor" unicode="&#xe800;" d="M0 850h200v-1000h-200v1000z m400-800h600v-200h-600v200z m0 400h600v-200h-600v200z m0 400h600v-200h-600v200z" horiz-adv-x="1000" />

<glyph glyph-name="elementor-square" unicode="&#xe801;" d="M950 850h-900c-28 0-50-22-50-50v-900c0-28 22-50 50-50h900c28 0 50 22 50 50v900c0 28-22 50-50 50z m-583-722h-89v444h89v-444z m355 0h-266v89h266v-89z m0 178h-266v88h266v-88z m0 177h-266v89h266v-89z" horiz-adv-x="1000" />

<glyph glyph-name="pojome" unicode="&#xe802;" d="M500-150a474 474 0 0 0-188 37l-12 6v272l32-22a407 407 0 0 1 80-44 292 292 0 0 1 191 6 286 286 0 0 1 87 59 299 299 0 0 1 58 83 292 292 0 0 1 19 105 284 284 0 0 1-19 103 298 298 0 0 1-58 83 229 229 0 0 1-87 58h0a210 210 0 0 1-103 21 214 214 0 0 1-103-20 231 231 0 0 1-87-58 256 256 0 0 1-54-83 251 251 0 0 1-22-103v-429l-34 26a559 559 0 0 0-53 46 484 484 0 0 0-147 354 487 487 0 0 0 147 356 489 489 0 0 0 353 144 488 488 0 0 0 353-144 487 487 0 0 0 147-356 484 484 0 0 0-147-353 484 484 0 0 0-353-147z m-159 71a435 435 0 0 1 159-29 443 443 0 0 1 324 134 444 444 0 0 1 134 324 447 447 0 0 1-134 327 448 448 0 0 1-324 130 448 448 0 0 1-324-130 447 447 0 0 1-134-327 444 444 0 0 1 135-324l15-15v342a292 292 0 0 0 25 119 295 295 0 0 0 66 95 268 268 0 0 0 100 68 252 252 0 0 0 117 23 251 251 0 0 0 118-22 270 270 0 0 0 99-69 340 340 0 0 0 67-95 325 325 0 0 0 23-119 333 333 0 0 0-23-122 341 341 0 0 0-67-98 328 328 0 0 0-99-68 330 330 0 0 0-221-7 462 462 0 0 0-56 31v-167z m159 232a222 222 0 0 0-76 13 214 214 0 0 0-64 43 287 287 0 0 0-44 62 194 194 0 0 0-17 82 187 187 0 0 0 17 77 210 210 0 0 0 106 106 223 223 0 0 0 154 0 215 215 0 0 0 64-43 159 159 0 0 0 44-65 184 184 0 0 0 16-76 194 194 0 0 0-17-80 190 190 0 0 0-44-63 212 212 0 0 0-63-44 222 222 0 0 0-76-12z m0 356a180 180 0 0 1-62-11 168 168 0 0 1-84-87 145 145 0 0 1-13-60 152 152 0 0 1 13-63 243 243 0 0 1 36-52 171 171 0 0 1 50-34 188 188 0 0 1 122 0 170 170 0 0 1 49 34 151 151 0 0 1 35 50 154 154 0 0 1 13 64 145 145 0 0 1-13 60 119 119 0 0 1-34 50 174 174 0 0 1-52 36 180 180 0 0 1-60 13z" horiz-adv-x="1000" />

<glyph glyph-name="plus" unicode="&#xe803;" d="M792 308h-250v-250h-84v250h-250v84h250v250h84v-250h250v-84z" horiz-adv-x="1000" />

<glyph glyph-name="menu" unicode="&#xe804;" d="M125 100h750v83h-750v-83z m0 208h750v84h-750v-84z m0 292v-83h750v83h-750z" horiz-adv-x="1000" />

<glyph glyph-name="apps" unicode="&#xe805;" d="M167 517h166v166h-166v-166z m250-500h166v166h-166v-166z m-250 0h166v166h-166v-166z m0 250h166v166h-166v-166z m250 0h166v166h-166v-166z m250 416v-166h166v166h-166z m-250-166h166v166h-166v-166z m250-250h166v166h-166v-166z m0-250h166v166h-166v-166z" horiz-adv-x="1000" />

<glyph glyph-name="accordion" unicode="&#xe806;" d="M938 600h-875c-35 0-63-28-63-62v-375c0-35 28-63 63-63h875c34 0 62 28 62 63v375c0 34-28 62-62 62z m20-437c0-12-9-21-20-21h-875c-12 0-21 9-21 21v375c0 11 9 20 21 20h875c11 0 20-9 20-20v-375z m-854 520h792c11 0 21 10 21 21s-10 21-21 21h-792c-11 0-21-9-21-21s10-21 21-21z m0 125h792c11 0 21 10 21 21s-10 21-21 21h-792c-11 0-21-9-21-21s10-21 21-21z m792-916h-792c-11 0-21-10-21-21s10-21 21-21h792c11 0 21 9 21 21s-10 21-21 21z m0 125h-792c-11 0-21-10-21-21s10-21 21-21h792c11 0 21 9 21 21s-10 21-21 21z" horiz-adv-x="1000" />

<glyph glyph-name="alert" unicode="&#xe807;" d="M500 829c-264 0-479-215-479-479s215-479 479-479 479 215 479 479-215 479-479 479z m0-917c-241 0-437 197-437 438s196 438 437 438 438-197 438-438-197-438-438-438z m0 542c-34 0-62-28-62-62v-250c0-35 28-63 62-63s63 28 63 63v250c0 34-28 62-63 62z m21-312c0-12-9-21-21-21s-21 9-21 21v250c0 11 10 21 21 21s21-10 21-21v-250z m-21 479c-34 0-62-28-62-63s28-62 62-62 63 28 63 62-28 63-63 63z m0-83c-11 0-21 9-21 20s10 21 21 21 21-9 21-21-9-20-21-20z" horiz-adv-x="1000" />

<glyph glyph-name="animation-text" unicode="&#xe808;" d="M165 545c-6 16-33 16-39 0l-125-333c-4-11 2-23 13-27 10-4 22 1 26 12l42 112c1 0 1-1 1-1h125c1 0 1 1 1 1l42-112c4-8 11-14 20-14 2 0 5 1 7 2 11 4 16 16 12 27l-125 333z m-67-195l48 128 48-128h-96z m590 83c34 0 62-28 62-62 0-12 9-21 21-21s21 9 21 21c0 57-47 104-104 104s-105-47-105-104v-83c0-58 47-105 105-105s104 47 104 105c0 11-10 20-21 20s-21-9-21-20c0-35-28-63-62-63s-63 28-63 63v83c0 34 28 62 63 62z m-250 42c-24 0-45-8-63-21v84c0 11-9 20-21 20s-21-9-21-20v-167-21-42-20-84c0-11 10-21 21-21s21 10 21 21v1c18-13 39-22 63-22 57 0 104 47 104 105v83c0 57-47 104-104 104z m62-187c0-35-28-63-62-63s-63 28-63 63v20 42 21c0 34 28 62 63 62s62-28 62-62v-83z m497-239c-1 2-27 41-80 49v210h21c11 0 20 10 20 21s-9 21-20 21h-21v252c53 9 79 48 80 49 6 10 3 23-7 29-9 6-22 3-28-6-1-2-22-32-66-32s-65 30-66 32c-6 9-19 12-28 6-10-6-13-19-7-28 1-2 26-41 80-50v-252h-21c-11 0-21-9-21-21s10-21 21-21h21v-210c-54-8-79-48-80-49-6-10-3-23 6-29 10-6 23-3 29 6 1 2 22 32 66 32s65-30 66-31c4-7 10-10 17-10 4 0 8 1 11 3 10 6 13 19 7 29z" horiz-adv-x="1000" />

<glyph glyph-name="animation" unicode="&#xe809;" d="M973 365l-208 208c-2 2-4 4-7 5-1 0-2 0-3 0-2 1-3 1-5 1-1 0-2 0-3 0-2-1-3-1-5-1-2-1-5-3-7-5l0 0-208-208c-8-8-8-22 0-30l208-208c1-1 2-1 3-2 1-1 2-2 4-2 3-2 5-2 8-2s5 0 8 2c2 0 4 2 6 4 0 0 1 0 1 0l208 208c8 8 8 22 0 30z m-339-77l95 95v-66l-62-62-33 33z m95-30v-66l-33 33 33 33z m0 250v-66l-125-125-33 33 158 158z m42-316v316l158-158-158-158z m-423 298c-8 8-21 8-29 0l-125-125c-8-8-8-22 0-30l125-125c4-4 9-6 14-6 6 0 11 2 15 6 8 8 8 22 0 30l-110 110 110 110c8 8 8 22 0 30z m57-140l151 152c9 8 9 21 0 29s-21 9-29 0l-167-166c-8-8-8-22 0-30l167-166c4-4 9-6 15-6s10 2 14 6c9 8 9 21 0 29l-151 152z m-265 98c-8 8-22 8-30 0l-83-83c-8-8-8-22 0-30l83-83c4-4 10-6 15-6s11 2 15 6c8 8 8 21 0 29l-69 69 69 69c8 8 8 21 0 29z" horiz-adv-x="1000" />

<glyph glyph-name="banner" unicode="&#xe810;" d="M999 378c-2 6-7 11-13 13l-113 37 22 105c2 6 1 11-3 16-3 5-7 8-13 9-9 2-220 42-379 42s-370-40-379-42c-5-1-10-4-13-9s-4-10-3-16l22-105-113-37c-6-2-10-7-13-13-2-6-1-12 2-18l59-98-20-138c-1-7 2-15 7-19 4-3 9-5 14-5 2 0 4 0 7 1 1 1 169 62 243 62 6 0 12 3 16 8 4 5 5 11 4 18l-16 62c54 8 118 16 183 16 65 0 129-8 183-16l-16-63c-1-6 0-12 4-17s10-8 17-8c73 0 241-61 242-62 3-1 5-1 8-1 4 0 9 2 13 5 5 4 8 12 7 19l-20 138 59 98c3 6 4 12 2 18z m-713-175c-62-7-151-35-198-51l16 112c1 5 0 9-3 14l-49 81 84 28 31-145c1-6 5-11 10-14 3-2 7-3 11-3 1 0 3 0 5 1 1 0 33 9 83 18l10-41z m214 105c-125 0-248-25-297-37l-53 250c58 10 223 37 350 37 127 0 292-27 350-37l-53-250c-49 12-172 37-297 37z m399-31c-3-4-4-8-3-13l16-112c-47 16-136 44-198 51l10 41c50-9 82-18 83-18 6-2 12-1 16 2 5 3 9 8 10 14l31 145 84-28-49-82z" horiz-adv-x="1000" />

<glyph glyph-name="blockquote" unicode="&#xe811;" d="M396 683h-292c-34 0-62-28-62-62v-292c0-34 28-62 62-62h104v-69c0-40-22-75-57-93l-98-49c-8-4-13-14-11-23 2-10 11-16 21-16h141c99 0 186 63 217 156 25 74 37 150 37 228v220c0 34-28 62-62 62z m21-282c0-73-12-145-35-214-26-77-97-129-178-129h-53l18 10c50 25 81 75 81 130v90c0 11-9 20-21 20h-125c-11 0-21 10-21 21v292c0 11 10 21 21 21h292c11 0 21-10 21-21 0 0 0-220 0-220z m479 282h-292c-34 0-62-28-62-62v-292c0-34 28-62 62-62h104v-69c0-40-22-75-57-93l-98-49c-8-4-13-14-11-23 2-10 11-16 21-16h141c99 0 186 63 217 156 25 74 37 150 37 228v220c0 34-28 62-62 62z m21-282c0-73-12-145-35-214-26-77-97-129-178-129h-53l18 10c50 25 81 75 81 130v90c0 11-9 20-21 20h-125c-11 0-21 10-21 21v292c0 11 10 21 21 21h292c11 0 21-10 21-21v-220z" horiz-adv-x="1000" />

<glyph glyph-name="button" unicode="&#xe812;" d="M451 470c-6 5-15 7-22 3-8-3-12-11-12-19v-375c0-8 5-16 13-19 7-3 16-1 22 4l63 63 71-141c2-5 7-9 12-10 2-1 4-1 6-1 4 0 8 1 11 3l93 54c5 3 8 8 10 13 1 6 0 11-3 16l-74 122h88c9 0 17 6 20 14 3 8 0 17-6 23l-292 250z m153-245c-7 0-14-4-18-11-4-6-4-14 0-21l83-135-56-33-73 147c-3 6-9 10-16 11-1 0-2 0-3 0-6 0-11-2-15-6l-48-47v279l215-184c0 0-69 0-69 0z m292 500h-792c-57 0-104-47-104-104v-250c0-58 47-104 104-104h250c12 0 21 9 21 21s-9 20-21 20h-250c-34 0-62 28-62 63v250c0 34 28 62 62 62h792c34 0 62-28 62-62v-250c0-35-28-63-62-63h-146c-11 0-21-9-21-20s10-21 21-21h146c57 0 104 46 104 104v250c0 57-47 104-104 104z" horiz-adv-x="1000" />

<glyph glyph-name="call-to-action" unicode="&#xe813;" d="M938 621h-875c-35 0-63-28-63-63v-416c0-35 28-63 63-63h875c34 0 62 28 62 63v416c0 35-28 63-62 63z m20-479c0-12-9-21-20-21h-875c-12 0-21 9-21 21v416c0 12 9 21 21 21h875c11 0 20-9 20-21v-416z m-229 354c-80 0-146-66-146-146s66-146 146-146 146 66 146 146-65 146-146 146z m0-250c-57 0-104 47-104 104s47 104 104 104 104-47 104-104-46-104-104-104z m-250 0h-333c-12 0-21-9-21-21s9-21 21-21h333c12 0 21 10 21 21s-9 21-21 21z m0 125h-333c-12 0-21-9-21-21s9-21 21-21h333c12 0 21 10 21 21s-9 21-21 21z m0 125h-333c-12 0-21-9-21-21s9-21 21-21h333c12 0 21 10 21 21s-9 21-21 21z" horiz-adv-x="1000" />

<glyph glyph-name="captcha" unicode="&#xe814;" d="M104 246c-11 0-21-9-21-21s-9-21-20-21-21 10-21 21v83c0 12 9 21 21 21s20-9 20-21 10-20 21-20 21 9 21 20c0 35-28 63-62 63s-63-28-63-63v-83c0-34 28-62 63-62s62 28 62 62c0 12-9 21-21 21z m417 104c11 0 21-9 21-21s9-21 21-21 20 10 20 21c0 35-28 63-62 63s-63-28-63-63v-83c0-35 28-63 63-63s62 28 62 63c0 11-9 21-20 21s-21-10-21-21-10-21-21-21-21 9-21 21v83c0 12 9 21 21 21z m478-159l-63 166c-6 17-33 17-39 0l-62-166c-4-11 1-23 12-27 11-4 23 1 27 12l10 28h65l11-28c3-8 11-13 19-13 3 0 5 0 8 1 10 4 16 16 12 27z m-99 55l17 45 17-45h-34z m-672 28c-6 16-33 16-39 0l-63-167c-4-10 2-22 13-26 10-4 22 1 26 12l11 28h65l10-28c4-9 11-14 20-14 2 0 5 1 7 2 11 4 16 16 12 26l-62 167z m-36-111l16 44 17-44h-33z m162 291h-41c-12 0-21-9-21-21v-166c0-12 9-21 21-21s20 9 20 21v62h21c35 0 63 28 63 63s-28 62-63 62z m0-83h-21v42h21c12 0 21-10 21-21s-9-21-21-21z m417-83c-12 0-21-10-21-21v-63h-83v63c0 11-10 21-21 21s-21-10-21-21v-167c0-11 9-21 21-21s21 10 21 21v63h83v-63c0-11 9-21 21-21s21 10 21 21v167c0 11-10 21-21 21z m-313 145c0-11 10-20 21-20s21 9 21 20v146h42c11 0 21 10 21 21s-10 21-21 21h-125c-12 0-21-9-21-21s9-21 21-21h41v-146z" horiz-adv-x="1000" />

<glyph glyph-name="carousel" unicode="&#xe815;" d="M98 406c-8 9-21 9-29 0l-42-41c-8-8-8-22 0-30l42-41c4-4 9-6 14-6s11 2 15 6c8 8 8 21 0 29l-27 27 27 27c8 8 8 21 0 29z m875-41l-42 41c-8 9-21 9-29 0s-8-21 0-29l27-27-27-27c-8-8-8-21 0-29 4-4 9-6 15-6s10 2 14 6l42 41c8 8 8 22 0 30z m-640 68h-166c-12 0-21-9-21-20v-125c0-12 9-21 21-21h166c12 0 21 9 21 21v125c0 11-9 20-21 20z m-20-125h-125v84h125v-84z m270 125h-166c-12 0-21-9-21-20v-125c0-12 9-21 21-21h166c12 0 21 9 21 21v125c0 11-9 20-21 20z m-20-125h-125v84h125v-84z m270 125h-166c-12 0-21-9-21-20v-125c0-12 9-21 21-21h166c12 0 21 9 21 21v125c0 11-9 20-21 20z m-20-125h-125v84h125v-84z" horiz-adv-x="1000" />

<glyph glyph-name="checkbox" unicode="&#xe816;" d="M229 142h-166c-35 0-63-28-63-63v-167c0-34 28-62 63-62h166c35 0 63 28 63 62v167c0 35-28 63-63 63z m21-230c0-11-9-20-21-20h-166c-12 0-21 9-21 20v167c0 12 9 21 21 21h166c12 0 21-9 21-21v-167z m146 730h583c12 0 21 9 21 21s-9 20-21 20h-583c-12 0-21-9-21-20s9-21 21-21z m583-292h-583c-12 0-21-9-21-21s9-21 21-21h583c12 0 21 10 21 21s-9 21-21 21z m0-333h-583c-12 0-21-10-21-21s9-21 21-21h583c12 0 21 9 21 21s-9 21-21 21z m-684 824l-30-44c-10 7-23 11-36 11h-166c-35 0-63-28-63-62v-167c0-34 28-62 63-62h166c35 0 63 28 63 62v167c0 5-1 10-2 14l40 57c6 10 4 23-6 29-9 7-22 5-29-5z m-45-262c0-11-9-21-21-21h-166c-12 0-21 10-21 21v167c0 11 9 21 21 21h166c5 0 8-2 12-4l-77-110-45 45c-8 8-21 8-30 0s-8-21 0-29l63-63c4-4 9-6 15-6 0 0 1 0 2 0 6 1 11 4 15 9l66 95v-125z m45-71l-30-44c-10 7-23 11-36 11h-166c-35 0-63-28-63-62v-167c0-35 28-63 63-63h166c35 0 63 28 63 63v167c0 5-1 9-2 14l40 57c6 9 4 22-6 29-9 7-22 4-29-5z m-45-262c0-12-9-21-21-21h-166c-12 0-21 9-21 21v167c0 11 9 20 21 20h166c5 0 8-1 12-3l-77-110-45 45c-8 8-21 8-30 0s-8-22 0-30l63-62c4-4 9-6 15-6 0 0 1 0 2 0 6 0 11 4 15 9l66 94v-124z" horiz-adv-x="1000" />

<glyph glyph-name="columns" unicode="&#xe817;" d="M438 683h-417c-12 0-21-9-21-20s9-21 21-21h417c11 0 20 9 20 21s-9 20-20 20z m0-125h-417c-12 0-21-9-21-20s9-21 21-21h417c11 0 20 9 20 21s-9 20-20 20z m0-125h-417c-12 0-21-9-21-20s9-21 21-21h417c11 0 20 9 20 21s-9 20-20 20z m0-125h-417c-12 0-21-9-21-20s9-21 21-21h417c11 0 20 9 20 21s-9 20-20 20z m0-125h-417c-12 0-21-9-21-20s9-21 21-21h417c11 0 20 9 20 21s-9 20-20 20z m-125-125h-292c-12 0-21-9-21-20s9-21 21-21h292c11 0 20 9 20 21s-9 20-20 20z m250 584h416c12 0 21 9 21 21s-9 20-21 20h-416c-12 0-21-9-21-20s9-21 21-21z m416-84h-416c-12 0-21-9-21-20s9-21 21-21h416c12 0 21 9 21 21s-9 20-21 20z m0-125h-416c-12 0-21-9-21-20s9-21 21-21h416c12 0 21 9 21 21s-9 20-21 20z m0-125h-416c-12 0-21-9-21-20s9-21 21-21h416c12 0 21 9 21 21s-9 20-21 20z m0-125h-416c-12 0-21-9-21-20s9-21 21-21h416c12 0 21 9 21 21s-9 20-21 20z m-125-125h-291c-12 0-21-9-21-20s9-21 21-21h291c12 0 21 9 21 21s-9 20-21 20z" horiz-adv-x="1000" />

<glyph glyph-name="countdown" unicode="&#xe818;" d="M779 624l50 68c7 9 5 22-4 29-9 7-22 5-29-4l-50-68c-54 37-116 61-183 71v88h20c12 0 21 10 21 21s-9 21-21 21h-41-84-41c-12 0-21-9-21-21s9-21 21-21h21v-88c-67-10-130-34-183-70l-51 67c-7 9-20 11-29 4s-11-20-4-29l50-68c-97-80-158-201-158-336 0-242 196-438 437-438s438 196 438 438c0 135-62 256-159 336z m-300 184h42v-84c-7 0-14 1-21 1s-14-1-21-1v84z m21-916c-218 0-396 177-396 396s178 395 396 395 396-177 396-395-178-396-396-396z m0 750c-11 0-21-10-21-21v-333c0-12 10-21 21-21h333c12 0 21 9 21 21 0 195-159 354-354 354z m21-334v291c156-10 281-135 291-291h-291z" horiz-adv-x="1000" />

<glyph glyph-name="counter" unicode="&#xe819;" d="M994 584l-125 125 0 0c-2 1-4 3-7 4-1 1-3 1-4 1-2 0-3 1-4 1-1 0-3-1-4-1-1-1-3-1-4-1-2-1-5-3-7-5l-124-124c-9-9-9-22 0-30s21-8 29 0l89 89v-637c0-11 10-21 21-21s21 10 21 21v637l89-89c5-4 10-6 15-6s11 2 15 6c8 8 8 21 0 30z m-884-79c-8 3-18 0-23-8l-83-125c-7-10-4-22 5-29 10-6 23-4 29 6l45 68v-265c0-11 10-21 21-21s21 10 21 21v333c0 10-6 18-15 20z m203 1c-58 0-105-46-105-104 0-11 10-21 21-21s21 10 21 21c0 35 28 63 63 63s62-28 62-63v-12c0-14-5-28-14-39l-148-186c-5-6-6-15-3-22 4-7 11-12 19-12h167c11 0 21 10 21 21s-10 21-21 21h-123l121 152c15 18 23 41 23 65v12c0 58-47 104-104 104z m395-104c0 58-46 104-104 104s-104-46-104-104c0-11 9-21 21-21s21 10 21 21c0 35 28 63 62 63s63-28 63-63-28-62-63-62c-11 0-21-10-21-21s10-21 21-21c35 0 63-28 63-63s-28-62-63-62-62 28-62 62c0 12-10 21-21 21s-21-9-21-21c0-57 47-104 104-104s104 47 104 104c0 35-16 65-41 84 25 19 41 49 41 83z" horiz-adv-x="1000" />

<glyph glyph-name="date" unicode="&#xe820;" d="M938 663h-875c-35 0-63-28-63-63v-500c0-34 28-62 63-62h875c34 0 62 28 62 62v500c0 35-28 63-62 63z m20-563c0-11-9-21-20-21h-875c-12 0-21 10-21 21v500c0 12 9 21 21 21h875c11 0 20-9 20-21v-500z m-555 436c-11 4-23-1-27-12l-125-333c-4-11 2-23 13-27 2-1 4-1 7-1 8 0 16 5 19 13l125 333c4 11-1 23-12 27z m334 0c-11 4-23-1-27-12l-125-333c-4-11 1-23 12-27 2-1 5-1 7-1 9 0 17 5 20 13l125 333c4 11-2 23-12 27z m-549-332h-84c-11 0-21-9-21-21 0-11 10-20 21-20h84c11 0 20 9 20 20s-9 21-20 21z m333 0h-167c-11 0-21-9-21-21 0-11 10-20 21-20h167c11 0 21 9 21 20s-10 21-21 21z m375 0h-208c-12 0-21-9-21-21 0-11 9-20 21-20h208c11 0 21 9 21 20s-10 21-21 21z" horiz-adv-x="1000" />

<glyph glyph-name="divider-shape" unicode="&#xe821;" d="M991 409c-9 6-22 4-29-5-15-21-62-75-103-75-40 0-88 54-103 75-8 11-26 11-34 0-15-21-62-75-103-75s-87 54-102 75c-4 5-11 9-17 9-7 0-13-4-17-9-15-21-63-75-103-75-40 0-88 54-103 75-4 5-10 9-17 9-6 0-13-4-17-9-15-21-62-75-102-75-41 0-88 54-103 75-7 9-20 11-29 5-10-7-12-20-5-29 7-10 68-92 137-92 49 0 95 43 119 70 24-27 70-70 120-70 50 0 96 43 120 71 24-28 70-71 119-71 50 0 96 43 120 71 24-28 70-71 120-71 69 0 130 82 137 92 7 9 5 22-5 29z" horiz-adv-x="1000" />

<glyph glyph-name="divider" unicode="&#xe822;" d="M42 454h916c12 0 21 10 21 21s-9 21-21 21h-916c-12 0-21-9-21-21s9-21 21-21z m333 167h250c8 0 15 5 19 12s2 15-2 21l-125 167c-8 11-26 11-34 0l-125-167c-4-6-5-14-2-21 4-7 11-12 19-12z m125 153l83-111h-166l83 111z m125-695h-250c-8 0-15-4-19-11-3-7-2-16 2-22l125-167c4-5 11-8 17-8s13 3 17 8l125 167c4 6 5 15 2 22-4 7-11 11-19 11z m-125-152l-83 111h166l-83-111z m458 319h-916c-12 0-21-9-21-21s9-21 21-21h916c12 0 21 10 21 21s-9 21-21 21z" horiz-adv-x="1000" />

<glyph glyph-name="download-button" unicode="&#xe823;" d="M875 704h-750c-57 0-104-47-104-104v-250c0-57 47-104 104-104h292c11 0 21 9 21 21s-10 21-21 21h-292c-34 0-62 28-62 62v250c0 35 28 63 62 63h750c35 0 63-28 63-63v-250c0-34-28-62-63-62h-292c-11 0-20-10-20-21s9-21 20-21h292c57 0 104 47 104 104v250c0 57-47 104-104 104z m-265-548l-89-89v366c0 12-9 21-21 21s-21-9-21-21v-366l-89 89c-8 9-22 9-30 0s-8-21 0-29l125-125c4-4 10-6 15-6s11 2 15 6l125 125c8 8 8 21 0 29-8 9-22 9-30 0z" horiz-adv-x="1000" />

<glyph glyph-name="dual-button" unicode="&#xe824;" d="M326 470c-6 5-15 7-22 3-8-3-12-11-12-19v-375c0-8 5-16 13-19 7-3 16-1 22 4l63 63 71-141c2-5 7-9 12-10 2-1 4-1 6-1 4 0 8 1 11 3l93 54c5 3 9 8 10 13 1 6 0 11-3 16l-74 122h88c9 0 17 6 20 14 3 8 0 17-6 23l-292 250z m153-245c-7 0-14-4-18-11-4-6-4-14 0-21l83-135-56-33-73 147c-3 6-9 10-16 11-1 0-2 0-3 0-6 0-11-2-15-6l-48-47v279l215-184c0 0-69 0-69 0z m417 500h-792c-57 0-104-47-104-104v-250c0-58 47-104 104-104h125c12 0 21 9 21 21s-9 20-21 20h-125c-34 0-62 28-62 63v250c0 34 28 62 62 62h396v-104c0 0 0 0 0 0v-125c0 0 0 0 0 0v-62c0-12 9-21 21-21s21 9 21 21v54l238 237h66l-298-297c-8-9-8-22 0-30 4-4 9-6 15-6s10 2 14 6l327 327c17-3 32-12 42-25-1-1-2-1-2-2l-334-333c-7-7-7-17-3-25-1-3-3-7-3-10 0-12 10-21 21-21h271c57 0 104 47 104 104v250c0 57-47 104-104 104z m-300-42l-54-53v53h54z m-54-178v66l113 112h66l-179-178z m304-197h-66l178 179v-66l-112-113z m112 304v-66l-237-238h-66l303 304z m-53-303l52 52c-4-26-25-47-52-52z" horiz-adv-x="1000" />

<glyph glyph-name="email-field" unicode="&#xe825;" d="M938 663h-875c-35 0-63-28-63-63v-500c0-34 28-62 63-62h875c34 0 62 28 62 62v500c0 35-28 63-62 63z m20-563c0-11-9-21-20-21h-875c-12 0-21 10-21 21v500c0 12 9 21 21 21h875c11 0 20-9 20-21v-500z m-645 479c-127 0-230-103-230-229s103-229 230-229c59 0 116 23 159 64 8 8 8 22 0 30s-21 8-29 0c-35-34-81-52-130-52-104 0-188 84-188 187s84 188 188 188c102 0 185-83 187-185 0-1-1-2-1-3 0-23-19-42-42-42-21 0-39 17-41 39 0 1 1 2 1 3 0 57-47 104-104 104s-105-47-105-104 47-104 105-104c35 0 67 18 85 45 16-15 36-24 59-24 43 0 79 33 83 75 1 2 2 5 2 8 0 126-103 229-229 229z m0-291c-35 0-63 28-63 62s28 63 63 63c33 0 60-27 62-60 0-1-1-2-1-3 0-2 0-3 1-5-3-32-30-57-62-57z" horiz-adv-x="1000" />

<glyph glyph-name="facebook-comments" unicode="&#xe826;" d="M896 725h-792c-57 0-104-47-104-104v-417c0-57 47-104 104-104h262l119-119c4-4 10-6 15-6s11 2 15 6l119 119h262c57 0 104 47 104 104v417c0 57-47 104-104 104z m62-521c0-34-28-62-62-62h-271c-5 0-11-2-15-6l-110-111-110 111c-4 4-9 6-15 6h-271c-34 0-62 28-62 62v417c0 34 28 62 62 62h792c34 0 62-28 62-62v-417z m-645 396h-42c-58 0-104-47-104-104v-21h-21c-12 0-21-9-21-21s9-21 21-21h21v-187c0-12 9-21 21-21s20 9 20 21v187h63c11 0 21 10 21 21s-10 21-21 21h-63v21c0 34 28 62 63 62h42c11 0 20 10 20 21s-9 21-20 21z m416-292h-291c-12 0-21-9-21-20s9-21 21-21h291c12 0 21 9 21 21s-9 20-21 20z m125 125h-416c-12 0-21-9-21-20s9-21 21-21h416c12 0 21 9 21 21s-9 20-21 20z m0 125h-416c-12 0-21-9-21-20s9-21 21-21h416c12 0 21 9 21 21s-9 20-21 20z" horiz-adv-x="1000" />

<glyph glyph-name="facebook-like-box" unicode="&#xe827;" d="M896 850h-792c-57 0-104-47-104-104v-792c0-57 47-104 104-104h792c57 0 104 47 104 104v792c0 57-47 104-104 104z m62-896c0-34-28-62-62-62h-792c-34 0-62 28-62 62v792c0 34 28 62 62 62h792c34 0 62-28 62-62v-792z m-197 479h-156l1 20c13 27 19 56 19 85 0 30-7 61-21 88l-11 23c-11 21-32 34-56 34h-16c-34 0-63-28-63-62v-75c0-3 0-6-1-8l-75-188h-7v21c0 11-9 21-21 21h-208c-12 0-21-10-21-21v-375c0-12 9-21 21-21h208c12 0 21 9 21 21v50l53-27c3-2 6-2 10-2h300c53 0 98 40 104 92l23 209c3 29-6 59-26 81-20 22-48 34-78 34z m-428-416h-166v333h166v-333z m490 305l-23-208c-3-32-30-56-62-56h-296l-67 34v216h21c8 0 16 6 19 14l81 200c3 8 4 16 4 24v75c0 11 9 21 21 21h16c8 0 15-5 18-12l12-23c11-21 16-45 16-69s-5-48-16-70c-1-3-2-5-2-8l-2-46c-1-6 1-12 5-16s10-6 15-6h178c18 0 35-8 47-21 12-13 17-31 15-49z" horiz-adv-x="1000" />

<glyph glyph-name="form-horizontal" unicode="&#xe828;" d="M21 808h958c12 0 21 10 21 21s-9 21-21 21h-958c-12 0-21-9-21-21s9-21 21-21z m958-83h-958c-12 0-21-9-21-21s9-21 21-21h958c12 0 21 10 21 21s-9 21-21 21z m0-125h-958c-12 0-21-9-21-21v-500c0-11 9-21 21-21h958c12 0 21 10 21 21v500c0 12-9 21-21 21z m-937-42h916v-345l-112-113h-804v458z m863-458l53 54v-54h-53z m-613-83h-209c-46 0-83-38-83-84s37-83 83-83h209c46 0 83 37 83 83s-37 84-83 84z m0-125h-209c-23 0-41 18-41 41s18 42 41 42h209c23 0 41-19 41-42s-18-41-41-41z" horiz-adv-x="1000" />

<glyph glyph-name="form-vertical" unicode="&#xe829;" d="M271 433h-250c-12 0-21-9-21-20v-125c0-12 9-21 21-21h250c11 0 21 9 21 21v125c0 11-10 20-21 20z m-21-125h-208v84h208v-84z m354 125h-250c-11 0-21-9-21-20v-125c0-12 10-21 21-21h250c12 0 21 9 21 21v125c0 11-9 20-21 20z m-21-125h-208v84h208v-84z m334 125h-167c-46 0-83-37-83-83s37-83 83-83h167c46 0 83 37 83 83s-37 83-83 83z m0-125h-167c-23 0-42 19-42 42s19 42 42 42h167c23 0 41-19 41-42s-18-42-41-42z" horiz-adv-x="1000" />

<glyph glyph-name="gallery-grid" unicode="&#xe830;" d="M292 663h-250c-12 0-21-10-21-21v-250c0-12 9-21 21-21h250c11 0 21 9 21 21v250c0 11-10 21-21 21z m-21-250h-208v208h208v-208z m354 250h-250c-11 0-21-10-21-21v-250c0-12 10-21 21-21h250c12 0 21 9 21 21v250c0 11-9 21-21 21z m-21-250h-208v208h208v-208z m354 250h-250c-11 0-20-10-20-21v-250c0-12 9-21 20-21h250c12 0 21 9 21 21v250c0 11-9 21-21 21z m-20-250h-209v208h209v-208z m-646-84h-250c-12 0-21-9-21-21v-250c0-11 9-20 21-20h250c11 0 21 9 21 20v250c0 12-10 21-21 21z m-21-250h-208v209h208v-209z m354 250h-250c-11 0-21-9-21-21v-250c0-11 10-20 21-20h250c12 0 21 9 21 20v250c0 12-9 21-21 21z m-21-250h-208v209h208v-209z m354 250h-250c-11 0-20-9-20-21v-250c0-11 9-20 20-20h250c12 0 21 9 21 20v250c0 12-9 21-21 21z m-20-250h-209v209h209v-209z" horiz-adv-x="1000" />

<glyph glyph-name="gallery-group" unicode="&#xe831;" d="M979 621h-208c-12 0-21-9-21-21v-208c0-12 9-21 21-21h208c12 0 21 9 21 21v208c0 12-9 21-21 21z m-21-208h-166v166h166v-166z m21-84h-208c-12 0-21-9-21-21v-208c0-11 9-21 21-21h208c12 0 21 10 21 21v208c0 12-9 21-21 21z m-21-208h-166v167h166v-167z m-270 500h-667c-12 0-21-9-21-21v-500c0-11 9-21 21-21h667c11 0 20 10 20 21v500c0 12-9 21-20 21z m-21-500h-625v458h625v-458z" horiz-adv-x="1000" />

<glyph glyph-name="gallery-justified" unicode="&#xe832;" d="M21 517h208c12 0 21 9 21 21v208c0 11-9 21-21 21h-208c-12 0-21-10-21-21v-208c0-12 9-21 21-21z m21 208h166v-167h-166v167z m271-208h375c11 0 20 9 20 21v208c0 11-9 21-20 21h-375c-12 0-21-10-21-21v-208c0-12 9-21 21-21z m20 208h334v-167h-334v167z m646 42h-208c-12 0-21-10-21-21v-208c0-12 9-21 21-21h208c12 0 21 9 21 21v208c0 11-9 21-21 21z m-21-209h-166v167h166v-167z m-270-83h-209c-11 0-21-9-21-21v-208c0-12 10-21 21-21h209c11 0 20 9 20 21v208c0 12-9 21-20 21z m-21-208h-167v166h167v-166z m-646-42h375c11 0 21 9 21 21v208c0 12-10 21-21 21h-375c-12 0-21-9-21-21v-208c0-12 9-21 21-21z m21 208h333v-166h-333v166z m937 42h-208c-12 0-21-9-21-21v-208c0-12 9-21 21-21h208c12 0 21 9 21 21v208c0 12-9 21-21 21z m-21-208h-166v166h166v-166z m-770-84h-167c-12 0-21-9-21-20v-209c0-11 9-21 21-21h167c11 0 20 10 20 21v209c0 11-9 20-20 20z m-21-208h-125v167h125v-167z m437 208h-333c-12 0-21-9-21-20v-209c0-11 9-21 21-21h333c12 0 21 10 21 21v209c0 11-9 20-21 20z m-21-208h-291v167h291v-167z m396 208h-291c-12 0-21-9-21-20v-209c0-11 9-21 21-21h291c12 0 21 10 21 21v209c0 11-9 20-21 20z m-21-208h-250v167h250v-167z" horiz-adv-x="1000" />

<glyph glyph-name="gallery-masonry" unicode="&#xe833;" d="M292 746h-250c-12 0-21-9-21-21v-250c0-11 9-21 21-21h250c11 0 21 10 21 21v250c0 12-10 21-21 21z m-21-250h-208v208h208v-208z m354 250h-250c-11 0-21-9-21-21v-417c0-11 10-20 21-20h250c12 0 21 9 21 20v417c0 12-9 21-21 21z m-21-417h-208v375h208v-375z m354 417h-250c-11 0-20-9-20-21v-333c0-12 9-21 20-21h250c12 0 21 9 21 21v333c0 12-9 21-21 21z m-20-333h-209v291h209v-291z m-646 0h-250c-12 0-21-10-21-21v-250c0-12 9-21 21-21h250c11 0 21 9 21 21v250c0 11-10 21-21 21z m-21-250h-208v208h208v-208z m354 83h-250c-11 0-21-9-21-21v-250c0-12 10-21 21-21h250c12 0 21 9 21 21v250c0 12-9 21-21 21z m-21-250h-208v208h208v-208z m354 333h-250c-11 0-20-9-20-21v-250c0-11 9-20 20-20h250c12 0 21 9 21 20v250c0 12-9 21-21 21z m-20-250h-209v209h209v-209z" horiz-adv-x="1000" />

<glyph glyph-name="icon-box" unicode="&#xe834;" d="M229 225h542c11 0 21 9 21 21s-10 21-21 21h-542c-11 0-21-10-21-21s10-21 21-21z m542-83h-542c-11 0-21-10-21-21s10-21 21-21h542c11 0 21 9 21 21s-10 21-21 21z m0-125h-542c-11 0-21-10-21-21s10-21 21-21h542c11 0 21 9 21 21s-10 21-21 21z m0-125h-542c-11 0-21-10-21-21s10-21 21-21h542c11 0 21 9 21 21s-10 21-21 21z m-271 458c138 0 250 112 250 250s-112 250-250 250-250-112-250-250 112-250 250-250z m0 458c115 0 208-93 208-208s-93-208-208-208-208 93-208 208 93 208 208 208z m0-333c69 0 125 56 125 125s-56 125-125 125-125-56-125-125 56-125 125-125z m0 208c46 0 83-37 83-83s-37-83-83-83-83 37-83 83 37 83 83 83z" horiz-adv-x="1000" />

<glyph glyph-name="image-before-after" unicode="&#xe835;" d="M229 392c58 0 104 46 104 104s-46 104-104 104-104-47-104-104 47-104 104-104z m0 166c35 0 63-28 63-62s-28-63-63-63-62 28-62 63 28 62 62 62z m750 167h-479v83h21c11 0 21 10 21 21s-10 21-21 21h-83c-12 0-21-9-21-21s9-21 21-21h20v-83h-437c-12 0-21-9-21-21v-708c0-12 9-21 21-21h437v-83h-20c-12 0-21-10-21-21s9-21 21-21h83c11 0 21 9 21 21s-10 21-21 21h-21v83h479c12 0 21 9 21 21v708c0 12-9 21-21 21z m-521-42v-285l-127-201-128 146c-4 5-11 7-18 7-6-1-12-5-16-10l-127-224v567h416z m-416-666v15l149 262 127-145c4-5 11-8 17-7 7 0 12 4 16 9l107 169v-303h-416z m916 0h-458v666h458v-666z" horiz-adv-x="1000" />

<glyph glyph-name="image-box" unicode="&#xe836;" d="M875 829c0 12-9 21-21 21h-708c-12 0-21-9-21-21v-458c0-3 1-5 2-8 0-1 0-1 0-1 1-2 2-4 4-6 4-4 10-6 15-6l0 0h708c5 0 9 2 12 4 0 0 1 0 1 1 0 0 1 0 1 0 1 1 2 3 3 4 1 1 1 2 2 3 0 1 1 2 1 4 0 1 1 2 1 4 0 0 0 0 0 1v458z m-42-21v-377l-192 244c-3 5-9 8-15 8-7 1-12-2-16-7l-155-172-110 70c-9 5-19 4-26-3l-152-150v387h666z m-22-416h-614l139 138 111-71c9-5 20-4 27 4l150 167 187-238z m-40-125h-542c-11 0-21-10-21-21s10-21 21-21h542c11 0 21 9 21 21s-10 21-21 21z m0-125h-542c-11 0-21-10-21-21s10-21 21-21h542c11 0 21 9 21 21s-10 21-21 21z m0-125h-542c-11 0-21-10-21-21s10-21 21-21h542c11 0 21 9 21 21s-10 21-21 21z m0-125h-542c-11 0-21-10-21-21s10-21 21-21h542c11 0 21 9 21 21s-10 21-21 21z m-438 708c46 0 84 37 84 83s-38 84-84 84-83-38-83-84 37-83 83-83z m0 125c23 0 42-19 42-42s-19-41-42-41-41 18-41 41 18 42 41 42z" horiz-adv-x="1000" />

<glyph glyph-name="image-hotspot" unicode="&#xe837;" d="M229 308c58 0 104 47 104 105s-46 104-104 104-104-47-104-104 47-105 104-105z m0 167c35 0 63-28 63-62s-28-63-63-63-62 28-62 63 28 62 62 62z m750 167h-147c1 7 1 14 1 21 0 80-65 145-145 145s-146-65-146-145c0-7 0-14 1-21h-522c-12 0-21-10-21-21v-709c0-11 9-20 21-20h958c12 0 21 9 21 20v709c0 11-9 21-21 21z m-291 125c57 0 104-47 104-104 0-75-71-199-104-253-34 54-105 178-105 253 0 57 47 104 105 104z m-136-167c29-106 114-234 118-241 4-5 11-9 18-9s13 4 17 9c4 7 89 135 118 241h135v-547l-171 206c-8 10-24 10-32 0l-85-102-131 224c-4 7-10 11-18 11-6-1-14-4-18-10l-172-268-128 146c-4 5-11 7-18 7-6-1-12-5-16-11l-127-223v567h510z m-510-667v16l149 261 127-145c4-4 10-7 17-7 6 1 12 4 16 10l169 263 129-221c3-6 9-9 16-10 7 0 13 2 18 8l88 105 187-225v-55h-916z m708 730c0 34-28 62-62 62s-63-28-63-62 28-63 63-63 62 28 62 63z m-83 0c0 11 9 20 21 20s20-9 20-20-9-21-20-21-21 9-21 21z" horiz-adv-x="1000" />

<glyph glyph-name="image-rollover" unicode="&#xe838;" d="M125 621c0-58 47-104 104-104s104 46 104 104-46 104-104 104-104-47-104-104z m167 0c0-35-28-63-63-63s-62 28-62 63 28 62 62 62 63-28 63-62z m687 229h-958c-12 0-21-9-21-21v-708c0-12 9-21 21-21h458c12 0 21 9 21 21s-9 21-21 21h-437v15l149 262 127-145c4-5 11-8 17-7 7 0 13 4 16 10l104 166c6 10 3 23-6 29-10 6-23 3-29-7l-89-143-128 146c-4 5-11 8-18 7-6-1-12-5-16-10l-127-224v567h916v-562c0-12 10-21 21-21s21 9 21 21v583c0 12-9 21-21 21z m-402-298c-6 6-15 8-22 5-8-3-13-11-13-19v-578c0-7 4-15 11-18 8-4 16-3 22 2l106 83 92-166c4-7 11-11 19-11 3 0 6 1 9 2l125 63c5 2 9 7 11 12 1 6 1 11-2 16l-87 157h131c9 0 16 5 19 13 4 8 2 17-4 23l-417 416z m236-410c-8 0-15-4-18-11-4-6-4-14-1-20l94-169-88-44-94 170c-3 6-8 10-14 11-2 0-3 0-4 0-5 0-10-1-13-4l-92-72v484l346-345h-116z" horiz-adv-x="1000" />

<glyph glyph-name="info-box" unicode="&#xe839;" d="M854 850h-708c-12 0-21-9-21-21v-458c0 0 0 0 0 0v-500c0-12 9-21 21-21h708c12 0 21 9 21 21v958c0 12-9 21-21 21z m-21-42v-377l-192 244c-3 5-9 8-15 8-6 1-12-2-16-7l-155-172-110 70c-9 5-19 4-26-3l-152-150v387h666z m-22-416h-614l139 138 111-71c9-5 20-4 27 4l150 167 187-238z m-644-500v458h666v-458h-666z m562 375h-458c-12 0-21-10-21-21s9-21 21-21h458c12 0 21 9 21 21s-9 21-21 21z m-83-167h-292c-11 0-21-9-21-21v-83c0-12 10-21 21-21h292c11 0 21 9 21 21v83c0 12-10 21-21 21z m-21-83h-250v41h250v-41z m-292 583c46 0 84 37 84 83s-38 84-84 84-83-38-83-84 37-83 83-83z m0 125c23 0 42-19 42-42s-19-41-42-41-41 18-41 41 18 42 41 42z" horiz-adv-x="1000" />

<glyph glyph-name="inner-section" unicode="&#xe840;" d="M979 850h-958c-12 0-21-9-21-21v-958c0-12 9-21 21-21h958c12 0 21 9 21 21v958c0 12-9 21-21 21z m-521-500h500v-208h-500v208z m500 42h-250v416h250v-416z m-291 416v-416h-625v416h625z m-625-458h375v-458h-375v458z m416-458v208h500v-208h-500z" horiz-adv-x="1000" />

<glyph glyph-name="mailchimp" unicode="&#xe841;" d="M917 175v21c8 10 21 28 21 50 0 31-63 96-105 118v90c0 35-18 80-42 115 22 19 84 80 84 135 0 87-64 104-167 104-25 0-57-7-94-20-16 20-54 62-93 62-46 0-198-44-307-152-105-105-172-239-172-285 0-35 35-70 56-89-9-17-15-36-15-57 0-71 60-129 131-125 57-175 200-292 359-292 96 0 188 44 258 118 1 2 3 3 4 5 25 27 47 59 66 94 21 7 57 23 57 54 0 26-25 45-41 54z m-21 71c0-9-7-18-12-23-24-8-135-40-196-40-12 0-23 1-33 1-46 1-80 1-99-18-10-9-14-21-14-39-1-15-1-38 19-58 22-23 63-33 128-33 69 0 120 7 154 14-12-17-25-33-38-48-16-7-74-27-159-27-92 0-167 91-167 167 0 64 81 101 90 105 28 2 66 18 109 38 46 20 97 43 132 44 27-10 82-68 86-83z m-104 208v-86c-8-1-15-2-22-4 0 2 1 5 1 7v21c0 11-9 21-21 21s-21-10-21-21v-21c0-7 4-13 9-16-25-9-51-21-77-32-9-4-18-9-27-12 7 3 12 10 12 18v21c0 12-9 21-21 21s-21-9-21-21v-21c0-11 10-21 21-21 3 0 5 1 7 2-27-12-51-21-67-22-17 7-86 36-86 83 0 31 8 83 63 83 23 0 46-5 68-11 19-5 38-10 57-10 27 0 52 18 69 31 6 5 14 10 14 11l6 0c9 0 25 1 31-5 3-3 5-8 5-16z m41 250c0-31-40-77-69-103-9 8-18 15-27 18-43 19-270 94-484-236-10 4-21 6-32 8 119 230 382 376 487 376 125 0 125-31 125-63z m-750-291c0 27 57 151 161 256 97 96 239 139 277 139 14 0 36-18 52-36-137-62-313-197-401-386-19-6-35-15-49-28-19 17-40 41-40 55z m172-262c5 2 11 5 16 8 10 6 13 19 8 28-6 10-19 14-29 8-13-8-27-12-42-12-46 0-83 38-83 84s37 83 83 83c15 0 29-4 42-12 10-5 22-2 28 7 200 320 404 253 443 236 16-7 37-34 52-65-7 1-13 1-18 1l-5 0c-13 0-24-9-39-19-13-10-30-23-44-23-14 0-30 4-47 9-23 5-49 12-78 12-51 0-104-33-104-125 0-52 44-87 78-106-34-22-78-63-78-123 0-97 91-209 208-209 33 0 61 3 86 7-49-31-103-48-159-48-140 0-266 103-318 259z m626-46c0 0-1-1-1-1-1 0-1 0-2 0-1-1-62-27-189-27-65 0-89 12-99 21-6 7-7 15-7 28 0 0 0 4 0 4 0 3 1 5 2 6 7 7 40 7 69 6 11 0 22 0 34 0 55 0 143 22 187 34v-13c0-9 5-16 13-20 15-6 28-18 29-20-3-5-20-14-36-18z" horiz-adv-x="1000" />

<glyph glyph-name="menu-card" unicode="&#xe842;" d="M750 725h-62v104c0 7-4 13-9 17-5 4-12 5-18 3l-417-125c0 0-1 0-1 0-1-1-3-2-4-2-1-1-2-2-3-2-1-1-2-3-2-4-1-1-2-2-3-3 0-1 0-2-1-4 0-1 0-2-1-4 0 0 0 0 0-1v-833c0-12 10-21 21-21h500c12 0 21 9 21 21v833c0 12-9 21-21 21z m-104 0h-254l254 76v-76z m83-833h-458v791h458v-791z m-229 416c-11 0-21-9-21-20v-42c0-36-10-51-21-57v99c0 11-9 20-20 20s-21-9-21-20v-99c-11 6-21 21-21 57v42c0 11-9 20-21 20s-21-9-21-20v-42c0-56 23-92 63-102v-148c0-12 9-21 21-21s20 9 20 21v148c40 10 63 46 63 102v42c0 11-9 20-21 20z m125 0c-26 0-50-23-69-70-13-32-22-72-22-98 0-37 22-40 29-40h41v-104c0-12 10-21 21-21s21 9 21 21v292c0 11-9 20-21 20z m-21-166h-28c0 21 11 68 28 100v-100z m21 333h-250c-11 0-21-9-21-21s10-21 21-21h250c12 0 21 10 21 21s-9 21-21 21z" horiz-adv-x="1000" />

<glyph glyph-name="navigation-horizontal" unicode="&#xe843;" d="M125 454c-57 0-104-47-104-104s47-104 104-104 104 47 104 104-46 104-104 104z m0-166c-34 0-62 28-62 62s28 63 62 63 63-28 63-63-28-62-63-62z m375 166c-57 0-104-47-104-104s47-104 104-104 104 47 104 104-46 104-104 104z m0-166c-34 0-62 28-62 62s28 63 62 63 63-28 63-63-28-62-63-62z m375 166c-57 0-104-47-104-104s47-104 104-104 104 47 104 104-46 104-104 104z m0-166c-34 0-62 28-62 62s28 63 62 63 63-28 63-63-28-62-63-62z" horiz-adv-x="1000" />

<glyph glyph-name="navigation-menu" unicode="&#xe844;" d="M958 683h-291-334-291c-12 0-21-9-21-20v-125c0-12 9-21 21-21h271v-479c0-12 9-21 20-21h417c12 0 21 9 21 21v479h187c12 0 21 9 21 21v125c0 11-9 20-21 20z m-312-125h-292v84h292v-84z m-583 84h250v-84h-250v84z m666-584h-375v459h313 62v-459z m209 500h-188-62v84h250v-84z m-521-125c-12 0-21-9-21-20s9-21 21-21h250c11 0 21 9 21 21s-10 20-21 20h-250z m250-125h-250c-12 0-21-9-21-20s9-21 21-21h250c11 0 21 9 21 21s-10 20-21 20z m0-125h-250c-12 0-21-9-21-20s9-21 21-21h250c11 0 21 9 21 21s-10 20-21 20z" horiz-adv-x="1000" />

<glyph glyph-name="navigation-vertical" unicode="&#xe845;" d="M500 621c58 0 104 47 104 104s-46 104-104 104-104-47-104-104 47-104 104-104z m0 167c35 0 63-28 63-63s-28-62-63-62-62 28-62 62 28 63 62 63z m0-334c-57 0-104-47-104-104s47-104 104-104 104 47 104 104-46 104-104 104z m0-166c-34 0-62 28-62 62s28 63 62 63 63-28 63-63-28-62-63-62z m0-209c-57 0-104-47-104-104s47-104 104-104 104 47 104 104-46 104-104 104z m0-167c-34 0-62 28-62 63s28 63 62 63 63-28 63-63-28-63-63-63z" horiz-adv-x="1000" />

<glyph glyph-name="number-field" unicode="&#xe846;" d="M938 663h-875c-35 0-63-28-63-63v-500c0-34 28-62 63-62h875c34 0 62 28 62 62v500c0 35-28 63-62 63z m20-563c0-11-9-21-20-21h-875c-12 0-21 10-21 21v500c0 12 9 21 21 21h875c11 0 20-9 20-21v-500z m-723 437c-8 2-18-1-23-9l-83-125c-7-9-4-22 5-29 10-6 23-3 29 6l45 68v-265c0-11 10-20 21-20s21 9 21 20v334c0 9-6 17-15 20z m203 1c-58 0-105-47-105-105 0-11 10-20 21-20s21 9 21 20c0 35 28 63 63 63s62-28 62-63v-12c0-14-5-28-14-39l-148-186c-5-6-6-14-3-22 4-7 11-11 19-11h167c11 0 21 9 21 20s-10 21-21 21h-123l121 152c15 18 23 41 23 65v12c0 58-47 105-104 105z m395-105c0 58-46 105-104 105s-104-47-104-105c0-11 9-20 21-20s21 9 21 20c0 35 28 63 62 63s63-28 63-63-28-62-63-62c-11 0-21-9-21-21s10-21 21-21c35 0 63-28 63-62s-28-63-63-63-62 28-62 63c0 11-10 21-21 21s-21-10-21-21c0-58 47-104 104-104s104 46 104 104c0 34-16 64-41 83 25 19 41 49 41 83z" horiz-adv-x="1000" />

<glyph glyph-name="parallax" unicode="&#xe847;" d="M1000 350c0 7-4 14-10 18l-120 68 119 62c7 4 11 11 11 19s-4 15-11 18l-479 250c-6 3-13 3-20 0l-479-250c-7-3-11-10-11-18 0-8 4-15 11-19l119-62-119-68c-7-4-11-11-11-18 0-8 5-15 11-18l119-62-119-68c-7-4-11-11-11-19 0-8 5-15 11-18l479-250c3-2 7-3 10-3s7 1 10 3l479 250c7 3 11 10 11 18s-4 15-10 18l-120 69 119 62c7 3 11 10 11 18z m-500 393l434-226-434-227-434 227 434 226z m436-559l-436-227-436 227 110 63 316-165c3-2 7-3 10-3s7 1 10 3l316 165 110-63z m-436-60l-436 227 110 62 316-165c3-1 7-2 10-2s7 1 10 2l316 165 110-62-436-227z" horiz-adv-x="1000" />

<glyph glyph-name="php7" unicode="&#xe848;" d="M170 454h-87c-9 0-18-6-20-16l-41-166c0 0-1 0-1-1l-20-83c-3-11 4-22 15-25 2 0 3 0 5 0 9 0 18 6 20 15l17 68h85c48 0 90 32 101 79l7 26c6 25 1 51-15 71-16 21-40 32-66 32z m40-93l-6-26c-7-28-32-47-61-47h-75l32 125h70c13 0 25-6 33-16 8-11 11-24 7-36z m460 93h-87c-9 0-18-6-20-16l-41-166c0 0-1 0-1-1l-20-83c-3-11 4-22 15-25 2 0 3 0 5 0 9 0 18 6 20 15l17 68h85c48 0 90 32 101 79l7 26c6 25 1 51-15 71-16 21-40 32-66 32z m40-93l-6-26c-7-28-32-47-61-47h-75l32 125h70c13 0 25-6 33-16 8-11 11-24 7-36z m-224 61c-16 21-40 32-66 32h-60l14 58c3 11-4 22-15 25-11 3-22-4-25-15l-62-250c-3-11 3-23 15-25 1-1 3-1 5-1 9 0 18 6 20 16l38 151h70c13 0 25-6 33-16 8-11 11-24 7-36l-22-89c-3-11 4-23 15-25 2-1 4-1 5-1 10 0 18 6 21 16l22 89c6 25 1 51-15 71z m512 105c-4 6-11 11-19 11h-166c-12 0-21-10-21-21s9-21 21-21h127l-145-218c-6-9-4-22 6-29 4-2 8-3 12-3 6 0 13 3 17 9l167 250c4 7 4 15 1 22z" horiz-adv-x="1000" />

<glyph glyph-name="post-list" unicode="&#xe849;" d="M271 829h-250c-12 0-21-9-21-21v-250c0-11 9-20 21-20h250c11 0 21 9 21 20v250c0 12-10 21-21 21z m-21-250h-208v209h208v-209z m146 84h583c12 0 21 9 21 20s-9 21-21 21h-583c-12 0-21-9-21-21s9-20 21-20z m0 83h250c11 0 21 9 21 21s-10 21-21 21h-250c-12 0-21-10-21-21s9-21 21-21z m583-125h-583c-12 0-21-9-21-21s9-21 21-21h583c12 0 21 10 21 21s-9 21-21 21z m-708-125h-250c-12 0-21-9-21-21v-250c0-11 9-21 21-21h250c11 0 21 10 21 21v250c0 12-10 21-21 21z m-21-250h-208v208h208v-208z m729 125h-583c-12 0-21-9-21-21s9-21 21-21h583c12 0 21 10 21 21s-9 21-21 21z m-583 42h250c11 0 21 9 21 20s-10 21-21 21h-250c-12 0-21-9-21-21s9-20 21-20z m583-125h-583c-12 0-21-10-21-21s9-21 21-21h583c12 0 21 9 21 21s-9 21-21 21z m-708-125h-250c-12 0-21-10-21-21v-250c0-12 9-21 21-21h250c11 0 21 9 21 21v250c0 11-10 21-21 21z m-21-251h-208v209h208v-209z m729 126h-583c-12 0-21-10-21-21s9-21 21-21h583c12 0 21 9 21 21s-9 21-21 21z m-583 41h250c11 0 21 10 21 21s-10 21-21 21h-250c-12 0-21-9-21-21s9-21 21-21z m583-125h-583c-12 0-21-9-21-21s9-21 21-21h583c12 0 21 10 21 21s-9 21-21 21z" horiz-adv-x="1000" />

<glyph glyph-name="post-slider" unicode="&#xe850;" d="M813 621h-625c-12 0-21-9-21-21v-500c0-11 9-21 21-21h625c11 0 20 10 20 21v500c0 12-9 21-20 21z m-21-500h-584v458h584v-458z m-521 42h167c11 0 20 9 20 20s-9 21-20 21h-167c-12 0-21-9-21-21 0-11 9-20 21-20z m0 83h458c12 0 21 9 21 21s-9 21-21 21h-458c-12 0-21-10-21-21s9-21 21-21z m0 83h458c12 0 21 10 21 21s-9 21-21 21h-458c-12 0-21-9-21-21s9-21 21-21z m-152 119c-8 8-21 8-29 0l-84-83c-8-8-8-22 0-30l84-83c4-4 9-6 14-6s11 2 15 6c8 8 8 21 0 29l-69 69 69 69c8 8 8 21 0 29z m875-83l-83 83c-8 8-22 8-30 0s-8-21 0-29l69-69-69-69c-8-8-8-21 0-29 4-4 10-6 15-6s11 2 15 6l83 83c8 8 8 22 0 30z" horiz-adv-x="1000" />

<glyph glyph-name="post" unicode="&#xe851;" d="M998 467c1 3 2 5 2 8 0 76-43 156-131 244s-168 131-244 131c-3 0-5-1-8-2-2 0-4-2-6-3 0-1 0-1-1-1l0 0c0 0 0 0 0 0-53-53-83-130-66-212l-150-150c-57 34-185 44-263-34-69-69 30-202 131-306l-256-257c-8-8-8-21 0-29 4-4 10-6 15-6s11 2 15 6l256 256c80-78 177-154 249-154 22 0 41 7 57 23 78 78 68 205 34 263l150 150c15-3 31-5 46-5 64 0 123 28 166 71 1 1 2 3 2 4 1 1 2 2 2 3z m-42 32c-50 12-131 56-191 116-60 60-104 141-116 191 58-9 121-47 191-117 69-69 108-132 116-190z m-387-488c-36-36-137 20-263 145-125 126-181 227-145 263 65 65 168 51 208 29-10-32 5-85 75-154 57-57 102-78 135-78 7 0 13 1 19 3 22-40 36-143-29-208z m21 250c0 0 0 0-1 0 0 0 0 0 0 0-8-9-49-5-116 62-67 67-71 108-62 116l147 148c15-35 38-71 73-106 35-35 71-58 106-73l-147-147z m71 250c-102 101-93 202-48 270 18-61 66-139 122-196 57-56 135-104 197-122-69-45-170-54-271 48z" horiz-adv-x="1000" />

<glyph glyph-name="posts-carousel" unicode="&#xe852;" d="M119 427c-8 8-21 8-29 0l-84-83c-8-8-8-21 0-30l84-83c4-4 9-6 14-6s11 2 15 6c8 8 8 22 0 30l-69 68 69 69c8 8 8 21 0 29z m875-83l-83 83c-8 8-22 8-30 0s-8-21 0-29l69-69-69-68c-8-9-8-22 0-30 4-4 10-6 15-6s11 2 15 6l83 83c8 9 8 22 0 30z m-681 173h-125c-12 0-21-10-21-21v-125c0-12 9-21 21-21h125c11 0 20 9 20 21v125c0 11-9 21-20 21z m-21-125h-84v83h84v-83z m271 125h-125c-12 0-21-10-21-21v-125c0-12 9-21 21-21h125c11 0 20 9 20 21v125c0 11-9 21-20 21z m-21-125h-84v83h84v-83z m271 125h-125c-12 0-21-10-21-21v-125c0-12 9-21 21-21h125c11 0 20 9 20 21v125c0 11-9 21-20 21z m-21-125h-84v83h84v-83z m-479-84h-125c-12 0-21-9-21-20s9-21 21-21h125c11 0 20 9 20 21s-9 20-20 20z m250 0h-125c-12 0-21-9-21-20s9-21 21-21h125c11 0 20 9 20 21s-9 20-20 20z m250 0h-125c-12 0-21-9-21-20s9-21 21-21h125c11 0 20 9 20 21s-9 20-20 20z m-542-83h-83c-12 0-21-9-21-21s9-21 21-21h83c11 0 21 10 21 21s-10 21-21 21z m250 0h-83c-12 0-21-9-21-21s9-21 21-21h83c11 0 21 10 21 21s-10 21-21 21z m250 0h-83c-12 0-21-9-21-21s9-21 21-21h83c11 0 21 10 21 21s-10 21-21 21z" horiz-adv-x="1000" />

<glyph glyph-name="posts-grid" unicode="&#xe853;" d="M292 767h-250c-12 0-21-10-21-21v-250c0-12 9-21 21-21h250c11 0 21 9 21 21v250c0 11-10 21-21 21z m-21-250h-208v208h208v-208z m-21-125c12 0 21 9 21 21s-9 20-21 20h-167c-11 0-20-9-20-20s9-21 20-21h167z m375 375h-250c-11 0-21-10-21-21v-250c0-12 10-21 21-21h250c12 0 21 9 21 21v250c0 11-9 21-21 21z m-21-250h-208v208h208v-208z m-21-125c12 0 21 9 21 21s-9 20-21 20h-166c-12 0-21-9-21-20s9-21 21-21h166z m375 375h-250c-11 0-20-10-20-21v-250c0-12 9-21 20-21h250c12 0 21 9 21 21v250c0 11-9 21-21 21z m-20-250h-209v208h209v-208z m-21-125c11 0 21 9 21 21s-10 20-21 20h-167c-11 0-21-9-21-20s10-21 21-21h167z m-625-84h-250c-12 0-21-9-21-20v-250c0-12 9-21 21-21h250c11 0 21 9 21 21v250c0 11-10 20-21 20z m-21-250h-208v209h208v-209z m-21-83h-167c-11 0-20-9-20-21s9-21 20-21h167c12 0 21 10 21 21s-9 21-21 21z m375 333h-250c-11 0-21-9-21-20v-250c0-12 10-21 21-21h250c12 0 21 9 21 21v250c0 11-9 20-21 20z m-21-250h-208v209h208v-209z m-21-83h-166c-12 0-21-9-21-21s9-21 21-21h166c12 0 21 10 21 21s-9 21-21 21z m375 333h-250c-11 0-20-9-20-20v-250c0-12 9-21 20-21h250c12 0 21 9 21 21v250c0 11-9 20-21 20z m-20-250h-209v209h209v-209z m-21-83h-167c-11 0-21-9-21-21s10-21 21-21h167c11 0 21 10 21 21s-10 21-21 21z" horiz-adv-x="1000" />

<glyph glyph-name="posts-group" unicode="&#xe854;" d="M979 767h-250c-11 0-21-10-21-21v-250c0-12 10-21 21-21h250c12 0 21 9 21 21v250c0 11-9 21-21 21z m-21-250h-208v208h208v-208z m-20-125c11 0 20 9 20 21s-9 20-20 20h-167c-12 0-21-9-21-20s9-21 21-21h167z m41-84h-250c-11 0-21-9-21-20v-250c0-12 10-21 21-21h250c12 0 21 9 21 21v250c0 11-9 20-21 20z m-21-250h-208v209h208v-209z m-20-83h-167c-12 0-21-9-21-21s9-21 21-21h167c11 0 20 10 20 21s-9 21-20 21z m-292 792h-625c-12 0-21-10-21-21v-792c0-11 9-21 21-21h625c11 0 21 10 21 21v792c0 11-10 21-21 21z m-21-792h-583v750h583v-750z m-479 83h250c11 0 21 10 21 21s-10 21-21 21h-250c-12 0-21-9-21-21s9-21 21-21z m0 125h375c11 0 21 10 21 21s-10 21-21 21h-375c-12 0-21-9-21-21s9-21 21-21z m0 125h375c11 0 21 10 21 21s-10 21-21 21h-375c-12 0-21-9-21-21s9-21 21-21z" horiz-adv-x="1000" />

<glyph glyph-name="posts-justified" unicode="&#xe855;" d="M21 600h208c12 0 21 9 21 21v208c0 12-9 21-21 21h-208c-12 0-21-9-21-21v-208c0-12 9-21 21-21z m21 208h166v-166h-166v166z m271-208h375c11 0 20 9 20 21v208c0 12-9 21-20 21h-375c-12 0-21-9-21-21v-208c0-12 9-21 21-21z m20 208h334v-166h-334v166z m646 42h-208c-12 0-21-9-21-21v-208c0-12 9-21 21-21h208c12 0 21 9 21 21v208c0 12-9 21-21 21z m-21-208h-166v166h166v-166z m-895-84c-12 0-21-9-21-20s9-21 21-21h125c11 0 20 9 20 21s-9 20-20 20h-125z m520-20c0 11-9 20-20 20h-125c-12 0-21-9-21-20s9-21 21-21h125c11 0 20 9 20 21z m355-21c11 0 20 9 20 21s-9 20-20 20h-125c-12 0-21-9-21-20s9-21 21-21h125z m-459-292h209c11 0 20 9 20 21v208c0 12-9 21-20 21h-209c-11 0-21-9-21-21v-208c0-12 10-21 21-21z m21 208h167v-166h-167v166z m-479-208h375c11 0 21 9 21 21v208c0 12-10 21-21 21h-375c-12 0-21-9-21-21v-208c0-12 9-21 21-21z m21 208h333v-166h-333v166z m937 42h-208c-12 0-21-9-21-21v-208c0-12 9-21 21-21h208c12 0 21 9 21 21v208c0 12-9 21-21 21z m-21-208h-166v166h166v-166z m-312-84h-125c-12 0-21-9-21-20s9-21 21-21h125c11 0 21 9 21 21s-10 20-21 20z m-500 0c-12 0-21-9-21-20s9-21 21-21h125c11 0 21 9 21 21s-10 20-21 20h-125z m792-41c11 0 20 9 20 21s-9 20-20 20h-125c-12 0-21-9-21-20s9-21 21-21h125z m-750-42h-167c-12 0-21-9-21-21v-208c0-12 9-21 21-21h167c11 0 20 9 20 21v208c0 12-9 21-20 21z m-21-208h-125v166h125v-166z m437 208h-333c-12 0-21-9-21-21v-208c0-12 9-21 21-21h333c12 0 21 9 21 21v208c0 12-9 21-21 21z m-21-208h-291v166h291v-166z m396 208h-291c-12 0-21-9-21-21v-208c0-12 9-21 21-21h291c12 0 21 9 21 21v208c0 12-9 21-21 21z m-21-208h-250v166h250v-166z" horiz-adv-x="1000" />

<glyph glyph-name="posts-masonry" unicode="&#xe856;" d="M292 850h-250c-12 0-21-9-21-21v-250c0-11 9-21 21-21h250c11 0 21 10 21 21v250c0 12-10 21-21 21z m-21-250h-208v208h208v-208z m-21-125c12 0 21 9 21 21s-9 21-21 21h-167c-11 0-20-10-20-21s9-21 20-21h167z m375 375h-250c-11 0-21-9-21-21v-416c0-12 10-21 21-21h250c12 0 21 9 21 21v416c0 12-9 21-21 21z m-21-417h-208v375h208v-375z m-21-125c12 0 21 10 21 21s-9 21-21 21h-166c-12 0-21-9-21-21s9-21 21-21h166z m375 542h-250c-11 0-20-9-20-21v-333c0-12 9-21 20-21h250c12 0 21 9 21 21v333c0 12-9 21-21 21z m-20-333h-209v291h209v-291z m-21-125c11 0 21 9 21 21s-10 20-21 20h-167c-11 0-21-9-21-20s10-21 21-21h167z m-625 0h-250c-12 0-21-10-21-21v-250c0-12 9-21 21-21h250c11 0 21 9 21 21v250c0 11-10 21-21 21z m-21-250h-208v208h208v-208z m-21-84h-167c-11 0-20-9-20-20s9-21 20-21h167c12 0 21 9 21 21s-9 20-21 20z m375 167h-250c-11 0-21-9-21-21v-250c0-11 10-21 21-21h250c12 0 21 10 21 21v250c0 12-9 21-21 21z m-21-250h-208v208h208v-208z m-21-83h-166c-12 0-21-10-21-21s9-21 21-21h166c12 0 21 9 21 21s-9 21-21 21z m375 416h-250c-11 0-20-9-20-20v-250c0-12 9-21 20-21h250c12 0 21 9 21 21v250c0 11-9 20-21 20z m-20-250h-209v209h209v-209z m-21-83h-167c-11 0-21-9-21-21s10-21 21-21h167c11 0 21 10 21 21s-10 21-21 21z" horiz-adv-x="1000" />

<glyph glyph-name="posts-ticker" unicode="&#xe857;" d="M471 788c-41 0-75-18-97-51-2-3-4-7-6-10-1-1-2-2-2-3l-5-9c0-1 0-2-1-3l-126-264-171-109c-40-25-63-68-63-114v-7c0-42 19-80 51-106 24-20 54-29 84-29 21 0 41 5 60 14l83-15 40-81c14-28 39-48 69-57l107-31c2 0 4-1 6-1 4 0 8 1 11 3 5 4 8 8 9 14l4 20c11 55-19 108-71 126l-46 125 266-36c1 0 1 0 2 0l10-1c1 0 3 0 4 0 2 0 4 0 6 0 42 0 75 17 98 50 41 59 39 160-3 270-65 171-205 305-319 305z m-394-643c-22 17-35 44-35 73v7c0 32 16 61 43 79l145 92c5-67 25-136 98-174l-146-85c-33-19-75-16-105 8z m356-107c35-9 57-43 51-78l-86 24c-19 5-34 18-43 36l-45 89c-3 6-8 10-14 12l-44 8 112 66 54-144c2-6 8-11 15-13z m-53 207c-94 28-109 104-109 184l75 157c4-37 14-77 30-118 39-102 105-190 175-245l-171 22z m379-8c-15-22-36-33-64-33-5 0-10 1-16 2l-3 0c-91 15-207 136-261 277-32 83-38 161-17 211l0 1c3 7 6 13 10 19 15 21 36 32 63 32 94 0 222-128 280-278 37-96 40-184 8-231z m-187 338c-32 9-66 4-95-14-9-6-13-18-7-28 6-10 19-13 29-7 19 11 41 14 63 9 22-5 40-19 51-38 12-19 15-41 10-63-6-22-19-40-38-51-10-6-13-19-8-29 4-6 11-10 18-10 4 0 8 1 11 3 29 17 49 44 57 77 8 32 3 66-14 94-17 29-45 49-77 57z m221-3c3-8 11-14 20-14 2 0 4 1 7 2l167 62c10 4 16 16 12 27-4 11-16 16-27 12l-167-62c-11-4-16-16-12-27z m-22 91c5 0 11 2 15 6l83 83c8 8 8 21 0 29s-21 9-30 0l-83-83c-8-8-8-21 0-29 4-4 10-6 15-6z m208-167h-125c-11 0-21-9-21-21s10-21 21-21h125c12 0 21 10 21 21s-9 21-21 21z" horiz-adv-x="1000" />

<glyph glyph-name="price-list" unicode="&#xe858;" d="M646-25h-521v583h229c12 0 21 10 21 21v229h417v-562c0-12 9-21 21-21s20 9 20 21v583c0 12-9 21-20 21h-459c-3 0-5-1-8-2-1 0-1-1-2-1-2-1-3-2-5-3l-250-250c0-1-1-2-2-3-1-2-1-2-2-4-1-2-2-5-2-8v-625c0-11 10-21 21-21h542c11 0 21 10 21 21s-10 21-21 21z m-491 625l178 179v-179h-178z m762-635c0 47-51 63-84 69v64c24-5 41-17 42-28 1-11 12-19 23-19 11 2 20 12 19 23-4 34-38 60-84 66v23c0 11-9 20-20 20s-21-9-21-20v-23c-48-6-84-35-84-71 0-48 51-63 84-70v-63c-24 4-41 16-42 27-1 12-12 20-23 19-11-1-20-11-18-23 3-33 37-60 83-66v-22c0-12 9-21 21-21s20 9 20 21v22c49 7 84 36 84 72z m-167 104c0 11 17 24 42 29v-56c-34 8-42 19-42 27z m83-134v57c34-8 42-19 42-27 0-12-17-25-42-30z m-562 540c-35 0-63-28-63-62s28-63 63-63 62 28 62 63-28 62-62 62z m0-83c-12 0-21 9-21 21s9 20 21 20 21-9 21-20-10-21-21-21z m0-84c-35 0-63-28-63-62s28-63 63-63 62 28 62 63-28 62-62 62z m0-83c-12 0-21 9-21 21s9 21 21 21 21-10 21-21-10-21-21-21z m0-83c-35 0-63-28-63-63s28-62 63-62 62 28 62 62-28 63-62 63z m0-84c-12 0-21 10-21 21s9 21 21 21 21-9 21-21-10-21-21-21z m167 375c-12 0-21-9-21-20s9-21 21-21h250c11 0 20 9 20 21s-9 20-20 20h-250z m250-166h-250c-12 0-21-10-21-21s9-21 21-21h250c11 0 20 9 20 21s-9 21-20 21z m-42-167h-208c-12 0-21-9-21-21s9-21 21-21h208c11 0 21 10 21 21s-10 21-21 21z" horiz-adv-x="1000" />

<glyph glyph-name="price-table" unicode="&#xe859;" d="M958 663h-187v62c0 12-9 21-21 21h-500c-11 0-21-9-21-21v-62h-187c-12 0-21-10-21-21v-584c0-11 9-20 21-20h187v-63c0-12 10-21 21-21h500c12 0 21 9 21 21v63h187c12 0 21 9 21 20v584c0 11-9 21-21 21z m-20-42v-83h-167v83h167z m-667 83h458v-125h-458v125z m-42-83v-83h-166v83h166z m-166-542v417h166v-417h-166z m666-83h-458v542h458v-542z m42 83v417h167v-417h-167z m-250 204v85c23-5 40-20 42-37 1-11 11-19 22-19 12 1 20 12 19 23-3 39-38 69-83 76v22c0 12-9 21-21 21s-21-9-21-21v-22c-47-8-83-42-83-82 0-39 27-65 83-79v-85c-23 6-40 20-42 37 0 11-12 20-22 19-11-1-20-11-19-23 3-38 38-68 83-75v-23c0-11 10-21 21-21s21 10 21 21v23c47 7 83 41 83 81 0 39-27 66-83 79z m-83 46c0 18 17 33 41 39v-75c-28 8-41 20-41 36z m83-164v75c28-8 42-19 42-36 0-17-18-33-42-39z" horiz-adv-x="1000" />

<glyph glyph-name="radio" unicode="&#xe860;" d="M146 829c-81 0-146-65-146-146s65-145 146-145 146 65 146 145-66 146-146 146z m0-250c-58 0-104 47-104 104s46 105 104 105 104-47 104-105-47-104-104-104z m0-83c-81 0-146-66-146-146s65-146 146-146 146 66 146 146-66 146-146 146z m0-250c-58 0-104 47-104 104s46 104 104 104 104-47 104-104-47-104-104-104z m0-83c-81 0-146-66-146-146s65-146 146-146 146 65 146 146-66 146-146 146z m0-251c-58 0-104 47-104 105s46 104 104 104 104-47 104-104-47-105-104-105z m250 751h583c12 0 21 9 21 20s-9 21-21 21h-583c-12 0-21-9-21-21s9-20 21-20z m583-292h-583c-12 0-21-9-21-21s9-21 21-21h583c12 0 21 10 21 21s-9 21-21 21z m0-333h-583c-12 0-21-10-21-21s9-21 21-21h583c12 0 21 9 21 21s-9 21-21 21z m-833 375c-35 0-63-28-63-63s28-62 63-62 62 28 62 62-28 63-62 63z m0-84c-12 0-21 10-21 21s9 21 21 21 21-9 21-21-10-21-21-21z" horiz-adv-x="1000" />

<glyph glyph-name="rtl" unicode="&#xe861;" d="M229 308c12 0 21 10 21 21v104h93l77-115c4-6 11-10 18-10 4 0 8 2 11 4 10 6 12 19 6 29l-66 99c40 14 69 52 69 98v41c0 58-46 104-104 104h-125c-11 0-21-9-21-20v-334c0-11 10-21 21-21z m21 334h104c35 0 63-28 63-63v-41c0-35-28-63-63-63h-104v167z m229 0h104v-313c0-11 10-21 21-21s21 10 21 21v313h104c12 0 21 9 21 21s-9 20-21 20h-250c-11 0-21-9-21-20s10-21 21-21z m334-334h166c12 0 21 10 21 21s-9 21-21 21h-146v313c0 11-9 20-20 20s-21-9-21-20v-334c0-11 9-21 21-21z m166-125h-908l90 90c8 8 8 21 0 29s-22 8-30 0l-125-125c0 0 0 0 0 0-2-2-3-4-4-6-3-6-3-11 0-16 0-2 1-3 2-4 1-1 1-2 2-3l125-125c4-4 10-6 15-6s11 2 15 6c8 8 8 21 0 29l-90 90h908c12 0 21 9 21 21s-9 20-21 20z" horiz-adv-x="1000" />

<glyph glyph-name="scroll" unicode="&#xe862;" d="M583 850h-166c-150 0-271-121-271-271v-375c0-195 159-354 354-354s354 159 354 354v375c0 150-121 271-271 271z m-83-167c12 0 21-9 21-20v-125c0-12-9-21-21-21s-21 9-21 21v125c0 11 10 20 21 20z m313-479c0-172-141-312-313-312s-312 140-312 312v375c0 127 102 229 229 229h62v-87c-24-8-41-31-41-58v-125c0-35 28-63 62-63s63 28 63 63v125c0 27-18 50-42 58v87h62c127 0 230-102 230-229v-375z" horiz-adv-x="1000" />

<glyph glyph-name="search" unicode="&#xe863;" d="M994-115l-304 305c63 70 102 163 102 264 0 218-178 396-396 396s-396-178-396-396 178-396 396-396c102 0 194 39 264 102l304-304c5-4 10-6 15-6s11 2 15 6c8 8 8 21 0 29z m-952 569c0 196 159 354 354 354s354-158 354-354-159-354-354-354-354 159-354 354z" horiz-adv-x="1000" />

<glyph glyph-name="select" unicode="&#xe864;" d="M938 663h-875c-35 0-63-28-63-63v-500c0-34 28-62 63-62h875c34 0 62 28 62 62v500c0 35-28 63-62 63z m20-563c0-11-9-21-20-21h-875c-12 0-21 10-21 21v500c0 12 9 21 21 21h875c11 0 20-9 20-21v-500z m-119 306l-151-151-152 151c-9 9-22 9-30 0s-8-21 0-29l167-167c4-4 9-6 15-6s10 2 14 6l167 167c8 8 8 21 0 29-8 9-21 9-30 0z" horiz-adv-x="1000" />

<glyph glyph-name="share" unicode="&#xe865;" d="M833 183c-57 0-108-29-138-74l-372 186c6 17 10 36 10 55s-4 38-10 55l372 186c30-45 81-74 138-74 92 0 167 74 167 166s-75 167-167 167-166-75-166-167c0-19 4-37 10-55l-372-185c-30 44-81 74-138 74-92 0-167-75-167-167s75-167 167-167c57 0 108 30 138 75l372-186c-6-18-10-36-10-55 0-92 74-167 166-167s167 75 167 167-75 166-167 166z m0 625c69 0 125-56 125-125s-56-125-125-125c-48 0-90 29-111 69 0 1 0 1 0 1 0 0 0 0 0 0-8 17-14 35-14 55 0 69 56 125 125 125z m-666-583c-69 0-125 56-125 125s56 125 125 125c48 0 90-28 111-69 0 0 0 0 0 0 0 0 0 0 0 0 9-17 14-36 14-56 0-20-5-38-14-55 0 0 0 0 0-1 0 0 0 0 0 0-21-41-63-69-111-69z m666-333c-69 0-125 56-125 125 0 20 6 38 14 55 0 0 0 0 0 0 0 0 0 0 0 1 21 40 63 69 111 69 69 0 125-56 125-125s-56-125-125-125z" horiz-adv-x="1000" />

<glyph glyph-name="sidebar" unicode="&#xe866;" d="M979 850h-958c-12 0-21-9-21-21v-958c0-12 9-21 21-21h958c12 0 21 9 21 21v958c0 12-9 21-21 21z m-21-42v-166h-916v166h916z m-916-208h541v-708h-541v708z m583-708v708h333v-708h-333z m229 125h-125c-11 0-21-10-21-21s10-21 21-21h125c12 0 21 9 21 21s-9 21-21 21z m0 125h-125c-11 0-21-10-21-21s10-21 21-21h125c12 0 21 9 21 21s-9 21-21 21z m0 125h-125c-11 0-21-10-21-21s10-21 21-21h125c12 0 21 9 21 21s-9 21-21 21z m0 125h-125c-11 0-21-10-21-21s10-21 21-21h125c12 0 21 9 21 21s-9 21-21 21z m0 125h-125c-11 0-21-10-21-21s10-21 21-21h125c12 0 21 9 21 21s-9 21-21 21z" horiz-adv-x="1000" />

<glyph glyph-name="skill-bar" unicode="&#xe867;" d="M938 829h-875c-35 0-63-28-63-62v-84c0-34 28-62 63-62h749c0 0 0 0 1 0s0 0 0 0h125c34 0 62 28 62 62v84c0 34-28 62-62 62z m-146-166h-96l96 95v-95z m-155 0h-66l125 125h66l-125-125z m-191 0l125 125h66l-125-125h-66z m-125 0l125 125h66l-125-125h-66z m-125 0l125 125h66l-125-125h-66z m-125 0l125 125h66l-125-125h-66z m-8 125h74l-95-96v75c0 11 9 21 21 21z m895-105c0-11-9-20-20-20h-105v125h105c11 0 20-10 20-21v-84z m-20-104h-875c-35 0-63-28-63-62v-84c0-34 28-62 63-62h499c0 0 0 0 1 0s0 0 0 0h375c34 0 62 28 62 62v84c0 34-28 62-62 62z m-396-166h-96l96 95v-95z m-155 0h-66l125 125h66l-125-125z m-191 0l125 125h66l-125-125h-66z m-125 0l125 125h66l-125-125h-66z m-8 125h74l-95-96v75c0 11 9 21 21 21z m895-105c0-11-9-20-20-20h-355v125h355c11 0 20-10 20-21v-84z m-20-354h-875c-35 0-63-28-63-62v-84c0-34 28-62 63-62h249c0 0 0 0 1 0s0 0 0 0h625c34 0 62 28 62 62v84c0 34-28 62-62 62z m-646-167h-96l96 96v-96z m-155 0h-66l125 126h66l-125-126z m-74 126h74l-95-96v75c0 11 9 21 21 21z m895-105c0-11-9-21-20-21h-605v126h605c11 0 20-10 20-21v-84z m-20 396h-875c-35 0-63-28-63-62v-84c0-34 28-62 63-62h624c0 0 0 0 1 0s0 0 0 0h250c34 0 62 28 62 62v84c0 34-28 62-62 62z m-271-166h-96l96 95v-95z m-155 0h-66l125 125h66l-125-125z m-191 0l125 125h66l-125-125h-66z m-125 0l125 125h66l-125-125h-66z m-125 0l125 125h66l-125-125h-66z m-8 125h74l-95-96v75c0 11 9 21 21 21z m895-105c0-11-9-20-20-20h-230v125h230c11 0 20-10 20-21v-84z" horiz-adv-x="1000" />

<glyph glyph-name="slider-3d" unicode="&#xe868;" d="M792 621h-584c-11 0-20-9-20-21v-417c0-11 9-20 20-20h584c11 0 21 9 21 20v417c0 12-10 21-21 21z m-21-417h-542v375h542v-375z m-655 373l-84-42c-10-5-14-17-9-28 5-10 18-14 28-9l53 27v-266l-53 26c-10 5-23 1-28-9-5-10-1-23 9-28l84-42c3-1 6-2 9-2 4 0 8 1 11 3 6 4 10 11 10 18v333c0 8-4 14-10 18-6 4-14 4-20 1z m833-292l-53-26v266l53-27c10-5 23-1 28 9 5 11 1 23-9 28l-84 42c-6 3-14 3-20-1-6-4-10-10-10-18v-333c0-7 4-14 10-18 3-2 7-3 11-3 3 0 6 1 9 2l84 42c10 5 14 18 9 28-5 10-18 14-28 9z" horiz-adv-x="1000" />

<glyph glyph-name="slider-album" unicode="&#xe869;" d="M971 533c-5 4-11 5-18 4l-140-35v56c0 12-10 21-21 21h-584c-11 0-20-9-20-21v-56l-141 35c-6 1-13 0-18-4s-8-10-8-16v-334c0-6 3-12 8-16 4-3 8-4 13-4 1 0 3 0 5 0l141 35v-56c0-12 9-21 20-21h584c11 0 21 9 21 21v56l140-35c2 0 4 0 5 0 5 0 10 1 13 4 5 4 8 10 8 16v334c0 6-3 12-8 16z m-908-323v280l125-31v-218l-125-31z m708-47h-542v375h542v-375z m167 47l-125 31v218l125 31v-280z" horiz-adv-x="1000" />

<glyph glyph-name="slider-device" unicode="&#xe870;" d="M125 288c5 0 11 2 15 6 8 8 8 21 0 29l-69 69 69 68c8 8 8 22 0 30s-22 8-30 0l-83-84c-8-8-8-21 0-29l83-83c4-4 10-6 15-6z m848 118l-83 84c-8 8-22 8-30 0-8-8-8-22 0-30l69-68-69-69c-8-8-8-21 0-29 4-4 10-6 15-6s11 2 15 6l83 83c8 8 8 21 0 29z m-98-160h-62v354c0 35-28 63-63 63h-500c-34 0-62-28-62-63v-354h-63c-11 0-21-9-21-21v-42c0-34 28-62 63-62h666c35 0 63 28 63 62v42c0 12-9 21-21 21z m-646 354c0 12 10 21 21 21h500c12 0 21-9 21-21v-354h-542v354z m625-417c0-11-9-20-21-20h-666c-12 0-21 9-21 20v21h62 584 62v-21z" horiz-adv-x="1000" />

<glyph glyph-name="slider-full-screen" unicode="&#xe871;" d="M958 704h-916c-12 0-21-9-21-21v-666c0-12 9-21 21-21h916c12 0 21 9 21 21v666c0 12-9 21-21 21z m-20-666h-875v625h875v-625z m-744 214c4-4 9-6 14-6s11 2 15 6c8 8 8 21 0 29l-68 69 68 69c8 8 8 21 0 29s-21 8-29 0l-84-83c-8-8-8-22 0-30l84-83z m583 0c4-4 9-6 15-6s10 2 14 6l84 83c8 8 8 22 0 30l-84 83c-8 8-21 8-29 0s-8-21 0-29l69-69-69-69c-8-8-8-21 0-29z m-460-80c0-1 1-2 2-3 0-1 1-1 2-2 1-1 3-2 4-3 3-1 6-1 8-1h84c11 0 21 9 21 20s-10 21-21 21h-33l68 69c8 8 8 21 0 29s-21 8-29 0l-69-68v33c0 11-9 21-21 21s-20-10-20-21v-84c0-2 0-5 1-8 1-1 2-2 3-3z m-4 345v-84c0-11 9-20 20-20s21 9 21 20v33l69-68c4-4 9-6 15-6s10 2 14 6c8 8 8 21 0 29l-68 69h33c11 0 21 9 21 21s-10 21-21 21h-84c-1 0-2-1-3-1-2 0-3 0-5-1-2-1-4-3-6-5l0 0c-1 0-1 0-1 0-1-2-3-4-4-6-1-3-1-6-1-8z m250-125c5 0 10 2 14 6l69 68v-33c0-11 9-20 21-20 11 0 21 9 21 20v84c0 1-1 3-1 4-1 1-1 3-1 4-2 5-6 9-11 11-2 0-3 0-4 1-1 0-3 1-4 1h-84c-11 0-20-10-20-21s9-21 20-21h33l-68-69c-8-8-8-21 0-29 4-4 9-6 15-6z m53-188h-33c-11 0-20-9-20-21 0-11 9-20 20-20h84c2 0 5 0 8 1 2 1 4 3 6 4 0 0 0 0 0 1l0 0c2 2 4 4 5 6 1 2 1 3 1 5 0 1 1 2 1 3v84c0 11-10 21-21 21s-21-10-21-21v-33l-69 68c-8 8-21 8-29 0s-8-21 0-29l68-69z" horiz-adv-x="1000" />

<glyph glyph-name="slider-push" unicode="&#xe872;" d="M792 621h-584c-11 0-20-9-20-21v-417c0-11 9-20 20-20h584c11 0 21 9 21 20v417c0 12-10 21-21 21z m-21-417h-542v375h542v-375z m-646 417h-83c-12 0-21-9-21-21s9-21 21-21h62v-375h-62c-12 0-21-9-21-21 0-11 9-20 21-20h83c12 0 21 9 21 20v417c0 12-9 21-21 21z m833-417h-62v375h62c12 0 21 10 21 21s-9 21-21 21h-83c-11 0-21-9-21-21v-417c0-11 10-20 21-20h83c12 0 21 9 21 20s-9 21-21 21z" horiz-adv-x="1000" />

<glyph glyph-name="slider-vertical" unicode="&#xe873;" d="M958 663h-916c-12 0-21-10-21-21v-584c0-11 9-20 21-20h916c12 0 21 9 21 20v584c0 11-9 21-21 21z m-20-584h-875v542h875v-542z m-369-89l-69-69-69 69c-8 8-21 8-29 0s-8-22 0-30l83-83c4-4 10-6 15-6s11 2 15 6l83 83c8 8 8 22 0 30-8 8-21 8-29 0z m-138 720l69 69 69-69c4-4 9-6 14-6s11 2 15 6c8 8 8 22 0 30l-83 83c-8 8-22 8-30 0l-83-83c-8-8-8-22 0-30s21-8 29 0z" horiz-adv-x="1000" />

<glyph glyph-name="slider-video" unicode="&#xe874;" d="M792 579h-584c-11 0-20-9-20-21v-416c0-12 9-21 20-21h584c11 0 21 9 21 21v416c0 12-10 21-21 21z m-21-416h-542v375h542v-375z m-631 285c-8 8-22 8-30 0l-83-83c-8-8-8-22 0-30l83-83c4-4 10-6 15-6s11 2 15 6c8 8 8 21 0 29l-69 69 69 69c8 8 8 21 0 29z m833-83l-83 83c-8 8-22 8-30 0s-8-21 0-29l69-69-69-69c-8-8-8-21 0-29 4-4 10-6 15-6s11 2 15 6l83 83c8 8 8 22 0 30z m-524-117c3-1 6-2 9-2 4 0 8 1 12 3l125 84c6 4 9 10 9 17s-3 14-9 17l-125 84c-7 4-15 4-21 1-7-4-11-11-11-19v-166c0-8 4-15 11-19z m30 146l67-44-67-44v88z" horiz-adv-x="1000" />

<glyph glyph-name="slideshow" unicode="&#xe875;" d="M792 621h-584c-11 0-20-9-20-21v-417c0-11 9-20 20-20h584c11 0 21 9 21 20v417c0 12-10 21-21 21z m-21-417h-542v375h542v-375z m-631 286c-8 8-22 8-30 0l-83-84c-8-8-8-21 0-29l83-83c4-4 10-6 15-6s11 2 15 6c8 8 8 21 0 29l-69 69 69 68c8 8 8 22 0 30z m833-84l-83 84c-8 8-22 8-30 0s-8-22 0-30l69-68-69-69c-8-8-8-21 0-29 4-4 10-6 15-6s11 2 15 6l83 83c8 8 8 21 0 29z" horiz-adv-x="1000" />

<glyph glyph-name="social-icons" unicode="&#xe876;" d="M926 796l-105 9c-47 4-95 4-142 0l-105-9c-42-4-74-38-74-80v-190c0-42 32-77 74-80l105-10c24-2 47-3 71-3s47 1 71 3l105 10c42 3 74 38 74 80v190c0 42-32 76-74 80z m32-270c0-20-15-37-35-39l-106-9c-44-4-90-4-134 0l-106 9c-20 2-35 19-35 39v190c0 20 15 37 35 39l106 9c22 2 45 3 67 3s45-1 67-3l106-9c20-2 35-19 35-39v-190z m-259 196c-6 4-15 4-21 1-7-4-11-11-11-19v-166c0-8 4-15 11-19 3-1 6-2 10-2 4 0 8 1 11 3l125 84c6 3 9 10 9 17s-3 13-9 17l-125 84z m9-146v89l67-44-67-45z m-264-308c1 2 2 5 2 8 3 8-1 17-8 22-7 5-16 5-23 1-5-3-23-11-37-15-38 30-83 32-128 7-34-20-45-55-46-83-69 10-112 47-137 78-5 5-11 8-18 7-7 0-13-4-16-10-15-24-19-51-12-78 1-5 2-9 4-13 0-1-1-1-1-1-7-4-12-11-12-19 0-32 14-57 32-74 0 0-1-1-1-1-5-6-7-15-3-23 11-24 29-42 52-54-22-7-46-10-69-7-10 1-19-5-22-15-3-9 1-20 10-24 48-27 98-41 146-40 50 0 98 14 141 43 75 50 122 138 118 218 12 9 28 24 39 41 5 8 4 19-2 26-3 3-6 5-9 6z m-169-257c-32-21-92-48-170-30 21 7 40 18 56 31 6 6 8 15 5 23s-10 13-19 14c-17 0-32 5-44 13 6 2 11 5 16 9 7 5 9 14 7 22s-10 14-18 15c-7 0-30 10-44 31 5 0 11 0 16 1 8 2 15 8 16 17 2 9-2 17-10 21-7 5-20 18-25 37-1 6-2 12-2 18 36-33 89-65 166-69 6-1 13 3 17 8 4 5 6 12 4 18-3 11-2 49 25 64 33 19 61 16 87-8 3-3 7-4 11-5-1-3-1-6 0-9 1-6 5-11 9-14-3-4-5-10-4-15 8-69-33-147-99-192z m121 797h-333c-35 0-63-28-63-62v-333c0-35 28-63 63-63h333c34 0 62 28 62 63v333c0 34-28 62-62 62z m21-395c0-12-10-21-21-21h-146v166h42c11 0 21 10 21 21s-10 21-21 21h-42c0 23 19 42 42 42h21c11 0 20 9 20 21s-9 20-20 20h-21c-46 0-84-37-84-83h-20c-12 0-21-9-21-21s9-21 21-21h20v-166h-145c-12 0-21 9-21 21v333c0 11 9 21 21 21h333c11 0 21-10 21-21v-333z m437-21h-208c-81 0-146-66-146-146v-208c0-81 65-146 146-146h208c81 0 146 65 146 146v208c0 80-65 146-146 146z m104-354c0-58-46-105-104-105h-208c-58 0-104 47-104 105v208c0 57 46 104 104 104h208c58 0 104-47 104-104v-208z m-208 229c-69 0-125-56-125-125s56-125 125-125 125 56 125 125-56 125-125 125z m0-209c-46 0-83 38-83 84s37 83 83 83 83-37 83-83-37-84-83-84z" horiz-adv-x="1000" />

<glyph glyph-name="spacer" unicode="&#xe877;" d="M42 663h916c12 0 21 9 21 20s-9 21-21 21h-916c-12 0-21-9-21-21s9-20 21-20z m583-250c8 0 15 4 19 11s2 16-2 22l-125 167c-8 10-26 10-34 0l-125-167c-4-6-5-15-2-22 4-7 11-11 19-11h104v-125h-104c-8 0-15-5-19-12-3-7-2-15 2-22l125-166c4-6 11-9 17-9s13 3 17 9l125 166c4 7 5 15 2 22-4 7-11 12-19 12h-104v125h104z m-125-278l-83 111h166l-83-111z m0 430l83-111h-166l83 111z m458-527h-916c-12 0-21-10-21-21s9-21 21-21h916c12 0 21 9 21 21s-9 21-21 21z" horiz-adv-x="1000" />

<glyph glyph-name="table" unicode="&#xe878;" d="M979 725h-958c-12 0-21-9-21-21v-708c0-12 9-21 21-21h958c12 0 21 9 21 21v708c0 12-9 21-21 21z m-602-542v125h248v-125h-248z m248-41v-125h-248v125h248z m0 333v-125h-248v125h248z m42 0h291v-125h-291v125z m-332-125h-293v125h293v-125z m-293-42h293v-125h-293v125z m625 0h291v-125h-291v125z m291 375v-166h-916v166h916z m-916-541h293v-125h-293v125z m625-125v125h291v-125h-291z" horiz-adv-x="1000" />

<glyph glyph-name="tabs" unicode="&#xe879;" d="M988 574l-42 111c-9 24-32 40-58 40h-191c-21 0-40-10-51-26-12 16-30 26-51 26h-190c-21 0-39-10-51-26-11 16-30 26-51 26h-191c-26 0-49-16-58-40l-45-120c-6-16-9-32-9-49v-478c0-35 28-63 63-63h875c34 0 62 28 62 63v500c0 13-5 26-12 36z m-291 109h191c9 0 16-5 20-13l26-70h-252l-14 42 9 27c3 9 11 14 20 14z m-292 0h190c9 0 17-5 20-14l23-69h-248l-14 42 9 27c3 9 11 14 20 14z m553-645c0-12-9-21-20-21h-875c-12 0-21 9-21 21v478c0 12 2 23 6 34l45 120c3 8 10 13 19 13h191c9 0 17-5 20-14l32-96c3-9 11-15 20-15h563c5 0 10-2 13-5l1-3c1-2 3-4 5-6 1-2 1-4 1-6v-500z" horiz-adv-x="1000" />

<glyph glyph-name="tel-field" unicode="&#xe880;" d="M938 663h-875c-35 0-63-28-63-63v-500c0-34 28-62 63-62h875c34 0 62 28 62 62v500c0 35-28 63-62 63z m20-563c0-11-9-21-20-21h-875c-12 0-21 10-21 21v500c0 12 9 21 21 21h875c11 0 20-9 20-21v-500z m-460 190c-26 0-52 4-76 12-16 5-34 1-43-9l-45-34c-52 28-85 61-113 112l33 43c11 12 16 29 11 45-9 24-13 50-13 76 0 24-19 44-44 44h-81c-24 0-44-20-44-44 0-228 186-414 415-414 24 0 44 20 44 44v81c0 24-20 44-44 44z m0-127c-206 0-373 167-371 375l84-3c0-30 5-60 14-89l20 7-23-11-42-56c-5-7-5-15-2-22 36-70 78-112 148-148 7-4 16-3 22 2l56 42c1 0 4 2 5 2 28-9 58-14 91-16l-2-83z" horiz-adv-x="1000" />

<glyph glyph-name="text-area" unicode="&#xe881;" d="M938 767h-875c-35 0-63-28-63-63v-708c0-35 28-63 63-63h875c34 0 62 28 62 63v708c0 35-28 63-62 63z m-896-771v708c0 12 9 21 21 21h875c11 0 20-9 20-21v-616l-112-113h-783c-12 0-21 9-21 21z m896-21h-33l53 54v-33c0-12-9-21-20-21z m-689 653c-6 16-33 16-39 0l-125-333c-4-11 1-23 12-27 11-4 23 1 27 12l42 112c0 0 0 0 1 0h125c0 0 0 0 1 0l42-112c3-8 11-13 19-13 3 0 5 0 8 1 10 4 16 16 12 27l-125 333z m-68-195l48 129 48-129h-96z m694-62c0 11-9 21-21 21s-21-10-21-21c0-35-28-63-62-63s-63 28-63 63v83c0 35 28 63 63 63s62-28 62-63c0-11 10-21 21-21s21 10 21 21c0 58-47 104-104 104s-104-46-104-104v-83c0-58 46-104 104-104s104 46 104 104z m-354 187c-24 0-45-8-63-21v84c0 11-9 21-20 21s-21-10-21-21v-167-21-41-21-83c0-12 9-21 21-21s20 9 20 21v0c18-13 39-21 63-21 57 0 104 46 104 104v83c0 58-47 104-104 104z m62-187c0-35-28-63-62-63s-63 28-63 63v21 41 21c0 35 28 63 63 63s62-28 62-63v-83z" horiz-adv-x="1000" />

<glyph glyph-name="text-field" unicode="&#xe882;" d="M938 663h-875c-35 0-63-28-63-63v-500c0-34 28-62 63-62h875c34 0 62 28 62 62v500c0 35-28 63-62 63z m20-563c0-11-9-21-20-21h-875c-12 0-21 10-21 21v500c0 12 9 21 21 21h875c11 0 20-9 20-21v-500z m-729 438c12 0 21 9 21 20s-9 21-21 21h-83c-12 0-21-9-21-21s9-20 21-20h21v-375h-21c-12 0-21-10-21-21s9-21 21-21h83c12 0 21 9 21 21s-9 21-21 21h-21v375h21z" horiz-adv-x="1000" />

<glyph glyph-name="thumbnails-down" unicode="&#xe883;" d="M792 663h-584c-11 0-20-10-20-21v-417c0-11 9-21 20-21h584c11 0 21 10 21 21v417c0 11-10 21-21 21z m-21-417h-542v375h542v-375z m-631 244c-8 8-22 8-30 0l-83-84c-8-8-8-21 0-29l83-83c4-4 10-6 15-6s11 2 15 6c8 8 8 21 0 29l-69 69 69 68c8 8 8 22 0 30z m833-84l-83 84c-8 8-22 8-30 0s-8-22 0-30l69-68-69-69c-8-8-8-21 0-29 4-4 10-6 15-6s11 2 15 6l83 83c8 8 8 21 0 29z m-681-243h-84c-11 0-20-10-20-21v-84c0-11 9-20 20-20h84c11 0 21 9 21 20v84c0 11-10 21-21 21z m-21-84h-42v42h42v-42z m187 84h-83c-11 0-21-10-21-21v-84c0-11 10-20 21-20h83c12 0 21 9 21 20v84c0 11-9 21-21 21z m-20-84h-42v42h42v-42z m187 84h-83c-12 0-21-10-21-21v-84c0-11 9-20 21-20h83c12 0 21 9 21 20v84c0 11-9 21-21 21z m-21-84h-41v42h41v-42z m188 84h-84c-11 0-20-10-20-21v-84c0-11 9-20 20-20h84c11 0 21 9 21 20v84c0 11-10 21-21 21z m-21-84h-42v42h42v-42z" horiz-adv-x="1000" />

<glyph glyph-name="thumbnails-half" unicode="&#xe884;" d="M479 663h-458c-12 0-21-10-21-21v-584c0-11 9-20 21-20h458c12 0 21 9 21 20v584c0 11-9 21-21 21z m-21-584h-416v542h416v-542z m521 584h-83c-12 0-21-10-21-21v-84c0-11 9-20 21-20h83c12 0 21 9 21 20v84c0 11-9 21-21 21z m-21-84h-41v42h41v-42z m21-83h-83c-12 0-21-9-21-21v-83c0-12 9-21 21-21h83c12 0 21 9 21 21v83c0 12-9 21-21 21z m-21-83h-41v41h41v-41z m21-84h-83c-12 0-21-9-21-21v-83c0-11 9-21 21-21h83c12 0 21 10 21 21v83c0 12-9 21-21 21z m-21-83h-41v42h41v-42z m21-83h-83c-12 0-21-10-21-21v-84c0-11 9-20 21-20h83c12 0 21 9 21 20v84c0 11-9 21-21 21z m-21-84h-41v42h41v-42z m-145 584h-84c-11 0-21-10-21-21v-84c0-11 10-20 21-20h84c11 0 20 9 20 20v84c0 11-9 21-20 21z m-21-84h-42v42h42v-42z m21-83h-84c-11 0-21-9-21-21v-83c0-12 10-21 21-21h84c11 0 20 9 20 21v83c0 12-9 21-20 21z m-21-83h-42v41h42v-41z m21-84h-84c-11 0-21-9-21-21v-83c0-11 10-21 21-21h84c11 0 20 10 20 21v83c0 12-9 21-20 21z m-21-83h-42v42h42v-42z m21-83h-84c-11 0-21-10-21-21v-84c0-11 10-20 21-20h84c11 0 20 9 20 20v84c0 11-9 21-20 21z m-21-84h-42v42h42v-42z m-146 584h-83c-12 0-21-10-21-21v-84c0-11 9-20 21-20h83c11 0 21 9 21 20v84c0 11-10 21-21 21z m-21-84h-42v42h42v-42z m21-83h-83c-12 0-21-9-21-21v-83c0-12 9-21 21-21h83c11 0 21 9 21 21v83c0 12-10 21-21 21z m-21-83h-42v41h42v-41z m21-84h-83c-12 0-21-9-21-21v-83c0-11 9-21 21-21h83c11 0 21 10 21 21v83c0 12-10 21-21 21z m-21-83h-42v42h42v-42z m21-83h-83c-12 0-21-10-21-21v-84c0-11 9-20 21-20h83c11 0 21 9 21 20v84c0 11-10 21-21 21z m-21-84h-42v42h42v-42z" horiz-adv-x="1000" />

<glyph glyph-name="thumbnails-right" unicode="&#xe885;" d="M813 663h-792c-12 0-21-10-21-21v-584c0-11 9-20 21-20h792c11 0 20 9 20 20v584c0 11-9 21-20 21z m-21-584h-750v542h750v-542z m187 584h-83c-12 0-21-10-21-21v-84c0-11 9-20 21-20h83c12 0 21 9 21 20v84c0 11-9 21-21 21z m-21-84h-41v42h41v-42z m21-83h-83c-12 0-21-9-21-21v-83c0-12 9-21 21-21h83c12 0 21 9 21 21v83c0 12-9 21-21 21z m-21-83h-41v41h41v-41z m21-84h-83c-12 0-21-9-21-21v-83c0-11 9-21 21-21h83c12 0 21 10 21 21v83c0 12-9 21-21 21z m-21-83h-41v42h41v-42z m21-83h-83c-12 0-21-10-21-21v-84c0-11 9-20 21-20h83c12 0 21 9 21 20v84c0 11-9 21-21 21z m-21-84h-41v42h41v-42z" horiz-adv-x="1000" />

<glyph glyph-name="time-line" unicode="&#xe886;" d="M667 454h250c34 0 62 28 62 63v250c0 34-28 62-62 62h-250c-35 0-63-28-63-62v-33l-54-55c-8 10-18 17-29 21v108c0 12-9 21-21 21s-21-9-21-21v-108c-24-8-41-31-41-58s17-50 41-59v-174c-11-4-21-12-29-21l-54 54v33c0 34-28 63-63 63h-250c-34 0-62-29-62-63v-250c0-34 28-62 62-62h250c35 0 63 28 63 62v33l54 55c8-10 18-18 29-22v-174c-24-9-41-32-41-59s17-50 41-58v-108c0-12 10-21 21-21s21 9 21 21v108c11 4 21 11 29 21l54-55v-33c0-34 28-62 63-62h250c34 0 62 28 62 62v250c0 35-28 63-62 63h-250c-35 0-63-28-63-63v-33l-54-54c-8 10-18 17-29 21v174c24 9 42 32 42 59s-18 50-42 59v174c11 4 21 12 29 21l54-54v-33c0-35 28-63 63-63z m-167 209c12 0 21-10 21-21v0c0-12-9-21-21-21s-21 9-21 21 10 21 21 21z m-140-382c-4-3-6-9-6-14v-42c0-11-9-21-21-21h-250c-11 0-20 10-20 21v250c0 12 9 21 20 21h250c12 0 21-9 21-21v-42c0-5 2-10 6-14l69-69-69-69z m140-202c12 0 21-9 21-21v0c0-11-9-20-21-20s-21 9-21 20 10 21 21 21z m140 48c4 4 6 9 6 15v41c0 12 9 21 21 21h250c11 0 21-9 21-21v-250c0-11-10-21-21-21h-250c-12 0-21 10-21 21v42c0 5-2 11-6 15l-69 68 69 69z m-140 202c-11 0-21 10-21 21v0c0 12 10 21 21 21s21-9 21-21-9-21-21-21z m71 313l69 68c4 4 6 9 6 15v42c0 11 9 21 21 21h250c11 0 21-10 21-21v-250c0-12-10-21-21-21h-250c-12 0-21 9-21 21v41c0 6-2 11-6 15l-69 69z" horiz-adv-x="1000" />

<glyph glyph-name="toggle" unicode="&#xe887;" d="M229 829h-166c-35 0-63-28-63-62v-167c0-34 28-62 63-62h166c35 0 63 28 63 62v167c0 34-28 62-63 62z m21-229c0-11-9-21-21-21h-166c-12 0-21 10-21 21v167c0 11 9 21 21 21h166c12 0 21-10 21-21v-167z m-62 104h-21v21c0 12-10 21-21 21s-21-9-21-21v-21h-21c-11 0-21-9-21-21s10-20 21-20h21v-21c0-12 9-21 21-21s21 9 21 21v21h21c11 0 20 9 20 20s-9 21-20 21z m41-208h-166c-35 0-63-28-63-63v-166c0-35 28-63 63-63h166c35 0 63 28 63 63v166c0 35-28 63-63 63z m21-229c0-12-9-21-21-21h-166c-12 0-21 9-21 21v166c0 12 9 21 21 21h166c12 0 21-9 21-21v-166z m-62 104h-21v21c0 11-10 21-21 21s-21-10-21-21v-21h-21c-11 0-21-9-21-21s10-21 21-21h21v-21c0-11 9-20 21-20s21 9 21 20v21h21c11 0 20 10 20 21s-9 21-20 21z m41-208h-166c-35 0-63-28-63-63v-167c0-34 28-62 63-62h166c35 0 63 28 63 62v167c0 35-28 63-63 63z m21-230c0-11-9-21-21-21h-166c-12 0-21 10-21 21v167c0 12 9 21 21 21h166c12 0 21-9 21-21v-167z m-62 105h-21v20c0 12-10 21-21 21s-21-9-21-21v-20h-21c-11 0-21-10-21-21s10-21 21-21h21v-21c0-12 9-21 21-21s21 9 21 21v21h21c11 0 20 9 20 21s-9 21-20 21z m208 625h583c12 0 21 9 21 20s-9 21-21 21h-583c-12 0-21-9-21-21s9-20 21-20z m583-292h-583c-12 0-21-9-21-21s9-21 21-21h583c12 0 21 10 21 21s-9 21-21 21z m0-333h-583c-12 0-21-10-21-21s9-21 21-21h583c12 0 21 9 21 21s-9 21-21 21z" horiz-adv-x="1000" />

<glyph glyph-name="url" unicode="&#xe888;" d="M938 621h-875c-35 0-63-28-63-63v-416c0-35 28-63 63-63h875c34 0 62 28 62 63v416c0 35-28 63-62 63z m20-479c0-12-9-21-20-21h-875c-12 0-21 9-21 21v416c0 12 9 21 21 21h875c11 0 20-9 20-21v-416z m-640 312c-12 2-23-4-26-16l-26-106-38 89c-7 15-32 15-39 0l-38-89-27 106c-2 12-14 18-25 16-11-3-18-15-15-26l42-166c2-9 9-15 18-16 10-1 18 4 21 13l43 101 44-101c3-8 11-13 19-13 0 0 1 0 2 0 8 1 16 7 18 16l42 166c3 11-4 23-15 26z m291 0c-11 2-22-4-25-16l-27-106-38 89c-6 15-32 15-38 0l-38-89-27 106c-3 12-14 18-25 16-11-3-18-15-15-26l41-166c3-9 10-15 19-16 9-1 17 4 21 13l43 101 43-101c4-8 11-13 20-13 0 0 1 0 1 0 9 1 17 7 19 16l41 166c3 11-4 23-15 26z m292 0c-11 2-23-4-25-16l-27-106-38 89c-7 15-32 15-38 0l-39-89-26 106c-3 12-14 18-25 16-12-3-18-15-16-26l42-166c2-9 10-15 19-16 9-1 17 4 20 13l44 101 43-101c3-8 11-13 19-13 1 0 1 0 2 0 9 1 16 7 18 16l42 166c3 11-4 23-15 26z" horiz-adv-x="1000" />

<glyph glyph-name="type-tool" unicode="&#xe889;" d="M647-108c0 0-1 0-1 0h-292c-11 0-21 9-21 20s10 21 21 21c35 0 63 28 63 63v646h-271c-35 0-63-28-63-63 0-11-9-21-20-21s-21 10-21 21v209c0 11 9 20 21 20h875c11 0 20-9 20-20v-209c0-11-9-21-20-21s-21 10-21 21c0 35-28 63-63 63h-271v-646c0-35 28-63 63-63 0 0 0 0 0 0h1c11 0 21-9 21-21s-10-20-21-20z m-209 41h125c-13 18-21 39-21 63v667c0 11 9 20 21 20h291c24 0 45-7 63-20v104h-834v-104c18 13 39 20 63 20h292c11 0 20-9 20-20v-667c0-24-7-45-20-63z" horiz-adv-x="1000" />

<glyph glyph-name="wordpress" unicode="&#xe890;" d="M876 679c-4 5-8 9-12 13-92 97-221 158-364 158-276 0-500-224-500-500s224-500 500-500 500 224 500 500c0 126-47 241-124 329z m-19-47c9-17 24-70-13-202-14 36-35 72-53 104-20 34-41 69-41 87 0 62 27 62 42 62 9 0 22-2 35-12 6-7 12-14 18-20 4-6 8-12 12-19z m-357 176c100 0 192-32 267-86-28-8-59-32-59-101 0-29 22-66 47-108 33-56 74-126 58-178 0-2 0-4 0-6-24-74-53-166-78-242l-149 466c9 2 17 4 25 6 11 4 17 16 13 27-4 11-15 17-26 13-29-10-80-9-110-9h-9-9c-29 0-80-1-109 9-11 3-23-2-27-13-3-11 3-23 14-27 14-4 32-7 49-9l80-224-79-226-145 453c8 2 17 4 25 6 10 4 16 16 13 27-4 11-16 17-27 13-29-10-79-10-109-9h-9c-15 0-26 1-34 3 81 129 224 215 388 215z m164-885l-143 405c0 6-2 11-6 15l-72 205c10 0 19 0 28 0h8 9c3 0 7 0 11 0 14 0 29 0 45 1l165-518c1-3 4-5 6-8-16-50-26-83-26-83l8-3c-10-5-21-10-33-14z m-334 2l-222 626c11-2 22-3 38-3h8c4 0 8 0 12 0 13 0 29 0 44 1l165-514-39-112c-2 0-4 1-6 2z m-288 425c0 60 12 118 33 170l202-570c-140 78-235 228-235 400z m333-441l124 355 126-355c-40-11-82-17-125-17-43 0-85 6-125 17z m364 50c27 85 100 316 135 426 21 67 33 125 35 172 31-63 49-133 49-207 0-165-88-310-219-391z" horiz-adv-x="1000" />

<glyph glyph-name="align-left-1" unicode="&#xe891;" d="M979 642h-958c-12 0-21 9-21 21s9 20 21 20h958c12 0 21-9 21-20s-9-21-21-21z m-291-125h-667c-12 0-21 9-21 21s9 20 21 20h667c11 0 20-9 20-20s-9-21-20-21z m291-125h-958c-12 0-21 9-21 21s9 20 21 20h958c12 0 21-9 21-20s-9-21-21-21z m-291-125h-667c-12 0-21 9-21 21s9 20 21 20h667c11 0 20-9 20-20s-9-21-20-21z m291-125h-958c-12 0-21 9-21 21s9 20 21 20h958c12 0 21-9 21-20s-9-21-21-21z m-291-125h-667c-12 0-21 9-21 21s9 20 21 20h667c11 0 20-9 20-20s-9-21-20-21z" horiz-adv-x="1000" />

<glyph glyph-name="anchor" unicode="&#xe892;" d="M500-154c-10 0-19 8-20 17-8 7-38 16-61 24-79 24-196 61-245 167h-28c-3 0-6 1-9 2-10 5-95 50-95 269 0 9 5 16 13 20 7 3 16 1 22-5 102-101 204-163 205-164 9-5 12-17 8-27l-14-28c65-62 108-67 120-67 16 0 21 24 21 25l0 392h-63c-20-26-51-42-83-42-58 0-104 47-104 105s46 104 104 104c32 0 63-16 83-42h63v32c-27 24-42 57-42 93 0 69 56 125 125 125s125-56 125-125c0-36-15-69-42-93v-32h63c20 26 51 42 83 42 58 0 104-47 104-104s-46-105-104-105c-32 0-63 16-83 42h-63v-396c0 0 0 0 0 0 1 0 6-21 21-21 12 0 55 5 121 67l-14 28c-5 10-2 22 7 27 2 1 104 63 205 164 6 6 15 8 23 5 7-4 12-11 12-20 0-219-85-264-95-269-3-1-6-2-9-2h-28c-49-106-166-143-244-167-24-8-54-17-61-24-2-9-11-17-21-17z m-348 250h36c8 0 16-5 19-13 38-98 150-133 224-157 29-9 53-16 69-26 16 10 40 17 69 26 74 24 186 59 224 157 3 8 11 13 20 13h35c12 9 57 50 67 179-68-62-130-105-159-124l13-25c4-8 2-17-4-24-58-57-115-89-161-89-41 0-59 38-62 59l0 420c0 11 9 21 21 21h94c8 0 15-4 18-11 12-19 32-31 54-31 35 0 63 28 63 63s-28 62-63 62c-22 0-42-12-54-31-3-7-10-11-18-11h-94c-12 0-21 10-21 21v63c0 7 3 13 8 17 21 16 33 40 33 66 0 46-37 83-83 83s-83-37-83-83c0-26 12-50 33-66 5-4 8-10 8-17v-63c0-11-9-21-20-21h-95c-8 0-15 4-18 11-12 19-32 31-54 31-35 0-63-28-63-62s28-63 63-63c22 0 42 12 54 31 3 7 10 11 18 11h95c11 0 20-10 20-21v-417c-3-24-21-62-62-62-46 0-103 32-161 89-6 7-8 16-4 24l13 25c-29 19-91 62-159 124 10-129 54-170 67-179z" horiz-adv-x="1000" />

<glyph glyph-name="bullet-list" unicode="&#xe893;" d="M979 663h-708c-12 0-21 9-21 20s9 21 21 21h708c12 0 21-9 21-21s-9-20-21-20z m0-334h-708c-12 0-21 10-21 21s9 21 21 21h708c12 0 21-9 21-21s-9-21-21-21z m0-333h-708c-12 0-21 9-21 21s9 21 21 21h708c12 0 21-10 21-21s-9-21-21-21z m-875 250c-57 0-104 47-104 104s47 104 104 104 104-47 104-104-46-104-104-104z m0 167c-34 0-62-28-62-63s28-62 62-62 63 28 63 62-28 63-63 63z m0-501c-57 0-104 47-104 105s47 104 104 104 104-47 104-104-46-105-104-105z m0 167c-34 0-62-28-62-62s28-63 62-63 63 28 63 63-28 62-63 62z m0 500c-57 0-104 47-104 104s47 105 104 105 104-47 104-105-46-104-104-104z m0 167c-34 0-62-28-62-63s28-62 62-62 63 28 63 62-28 63-63 63z" horiz-adv-x="1000" />

<glyph glyph-name="coding" unicode="&#xe894;" d="M313-129c-3 0-6 0-8 1-11 5-16 17-12 27l375 917c5 11 17 16 27 12 11-5 16-17 12-28l-375-916c-3-8-11-13-19-13z m416 167c-5 0-9 1-13 5-9 7-10 20-3 29l239 278-239 278c-7 9-6 22 3 30 8 7 22 6 29-3l250-291c7-8 7-20 0-27l-250-292c-4-5-10-7-16-7z m-458 0c-6 0-12 2-16 7l-250 292c-7 7-7 19 0 27l250 291c8 9 21 10 29 3 9-8 10-21 3-30l-239-278 239-278c7-9 6-22-3-29-3-4-8-5-13-5z" horiz-adv-x="1000" />

<glyph glyph-name="favorite" unicode="&#xe895;" d="M500-150c-276 0-500 224-500 500s224 500 500 500 500-224 500-500-224-500-500-500z m0 958c-253 0-458-205-458-458s205-458 458-458 458 205 458 458-205 458-458 458z m188-750c-4 0-8 2-12 4l-176 117-176-117c-7-5-17-5-24 0-7 5-10 14-8 23l59 215-176 138c-7 5-10 15-7 23 3 8 11 14 20 14h215l78 195c6 16 32 16 38 0l78-195h216c8 0 16-6 19-14 3-8 0-18-7-23l-176-138 59-215c2-9-1-18-8-23-4-2-8-4-12-4z m-188 167c4 0 8-1 12-3l141-95-48 176c-2 8 1 17 7 22l140 108h-169c-8 0-16 6-19 13l-64 160-64-159c-3-8-11-14-19-14h-169l140-108c6-5 9-14 7-22l-48-176 141 95c4 2 8 3 12 3z" horiz-adv-x="1000" />

<glyph glyph-name="google-maps" unicode="&#xe896;" d="M750 100c-10 0-18 7-20 17-33 162-91 252-137 324-12 18-23 35-33 52-18 26-30 57-35 90-3 14-4 26-4 38 0 126 103 229 229 229s229-103 229-229c0-12-1-24-4-38-5-33-17-64-36-91-8-16-20-33-31-51-47-72-105-162-138-324-1-10-10-17-20-17z m0 708c-103 0-187-84-187-187 0-9 1-19 3-30 4-29 14-54 29-76 10-17 21-34 33-52 39-61 87-136 122-255 35 119 83 193 123 255 11 18 22 35 31 51 16 23 26 48 30 76 3 12 4 22 4 31 0 103-85 187-188 187z m0-291c-57 0-104 46-104 104s47 104 104 104 104-47 104-104-47-104-104-104z m0 166c-34 0-62-28-62-62s28-63 62-63 63 28 63 63-28 62-63 62z m83-833h-708c-57 0-104 47-104 104v667c0 57 47 104 104 104h417c11 0 21-9 21-21s-10-21-21-21h-417c-34 0-62-28-62-62v-667c0-34 28-62 62-62h708c35 0 63 28 63 62v521c0 12 9 21 21 21s21-9 21-21v-521c0-57-47-104-105-104z m-750 42c-5 0-10 2-14 6-8 8-8 21 0 29l520 521c9 8 22 8 30 0s8-21 0-29l-521-521c-4-4-9-6-15-6z m792 0c-5 0-11 2-15 6l-396 396c-8 8-8 21 0 29s22 8 30 0l396-396c8-8 8-21 0-29-4-4-10-6-15-6z m-667 583c-46 0-83 37-83 83s37 84 83 84 84-38 84-84-38-83-84-83z m0 125c-23 0-41-19-41-42s18-41 41-41 42 18 42 41-19 42-42 42z m84 0h-84c-11 0-20 9-20 21s9 21 20 21h84c11 0 21-10 21-21s-10-21-21-21z m-84-292c-71 0-104 49-104 84 0 39 37 65 110 78-3 8-6 16-6 26 0 11 10 21 21 21s21-10 21-21c0-10 9-19 23-32 18-17 40-39 40-72 0-74-51-84-105-84z m37 125c-73-10-99-28-99-41 0-9 11-42 62-42 60 0 63 14 63 42 0 14-10 25-26 41z" horiz-adv-x="1000" />

<glyph glyph-name="insert-image" unicode="&#xe897;" d="M979-46h-958c-12 0-21 9-21 21v750c0 12 9 21 21 21h958c12 0 21-9 21-21v-750c0-12-9-21-21-21z m-937 42h916v708h-916v-708z m937-42c-7 0-14 4-18 10l-335 553-150-261c-3-5-8-9-15-10-6-1-13 1-17 6l-108 108-298-398c-7-9-20-11-30-4-9 7-11 20-4 29l313 417c3 5 9 8 15 9 6 0 12-2 16-7l106-105 153 268c4 6 10 10 18 10 6-1 14-3 18-10l354-583c6-10 3-23-7-29-3-2-7-3-11-3z m-625 500c-57 0-104 47-104 104s47 105 104 105 104-47 104-105-46-104-104-104z m0 167c-34 0-62-28-62-63s28-62 62-62 63 28 63 62-28 63-63 63z" horiz-adv-x="1000" />

<glyph glyph-name="photo-library" unicode="&#xe898;" d="M729 142h-708c-12 0-21 9-21 21v625c0 11 9 20 21 20h708c12 0 21-9 21-20v-625c0-12-9-21-21-21z m-687 41h666v584h-666v-584z m687-41c-7 0-15 4-18 11l-212 424-148-258c-3-6-8-10-15-10-6-1-13 1-17 5l-107 107-174-270c-6-9-19-12-28-6-10 6-13 19-7 29l188 291c3 6 9 9 15 10 6 1 13-2 17-6l106-106 153 268c4 7 11 11 19 11 7 0 14-5 18-12l229-458c5-10 1-23-9-28-3-2-7-2-10-2z m-500 375c-57 0-104 46-104 104s47 104 104 104 104-47 104-104-46-104-104-104z m0 166c-34 0-62-28-62-62s28-63 62-63 63 28 63 63-28 62-63 62z m584-625h-709c-11 0-21 10-21 21v84c0 11 10 20 21 20s21-9 21-20v-63h667v583h-42c-11 0-21 10-21 21s10 21 21 21h63c11 0 20-9 20-21v-625c0-11-9-21-20-21z m83-83h-708c-12 0-21 9-21 21v83c0 12 9 21 21 21s20-9 20-21v-62h667v583h-62c-12 0-21 9-21 21s9 21 21 21h83c11 0 21-10 21-21v-625c0-12-10-21-21-21z m83-83h-708c-12 0-21 9-21 20v84c0 11 9 21 21 21s21-10 21-21v-63h666v542h-62c-12 0-21 9-21 21s9 21 21 21h83c12 0 21-10 21-21v-584c0-11-9-20-21-20z" horiz-adv-x="1000" />

<glyph glyph-name="woocommerce" unicode="&#xe899;" d="M896 642h-792c-57 0-104-47-104-104v-292c0-58 47-104 104-104h403l128-80c3-3 7-4 11-4 5 0 11 3 15 7 7 7 8 18 2 26l-34 51h267c57 0 104 46 104 104v292c0 57-47 104-104 104z m62-396c0-35-28-63-62-63h-306c-7 0-14-4-18-11s-3-15 1-21l2-3-51 32c-4 2-8 3-11 3h-409c-34 0-62 28-62 63v292c0 34 28 62 62 62h792c34 0 62-28 62-62v-292z m-537 325c-47-60-61-198-65-273-23 43-41 115-51 156-11 49-15 63-34 63-17 0-19 0-85-144-10-21-22-47-32-68-6 41-12 99-18 142-4 36-8 69-11 93-2 12-12 20-24 18-11-1-19-12-17-23 3-24 7-57 11-93 26-217 27-217 51-217 17 0 18 0 78 131 13 28 29 62 41 88 23-96 50-192 101-217 3-1 6-2 9-2 4 0 8 1 11 3 6 4 10 11 10 18 0 87 16 245 58 300 7 9 5 22-4 29-9 7-22 5-29-4z m166-54c-54 0-109-63-125-142-9-50-1-96 22-123 14-18 33-27 54-27 55 0 109 62 125 142 9 49 1 95-22 123-14 17-33 27-54 27z m35-142c-13-64-54-108-84-108-9 0-16 3-22 11-15 18-20 52-13 89 13 64 54 108 84 108 9 0 16-4 22-11 15-18 20-52 13-89z m215 142c-54 0-109-63-125-142-9-50-1-96 22-123 14-18 33-27 54-27 55 0 109 62 125 142 9 49 1 95-22 123-14 17-33 27-54 27z m35-142c-13-64-54-108-84-108-9 0-16 3-22 11-15 18-20 52-13 89 13 64 54 108 84 108 9 0 16-4 22-11 15-18 20-52 13-89z" horiz-adv-x="1000" />

<glyph glyph-name="youtube" unicode="&#xe900;" d="M500-19c-49 0-98 2-146 6l-221 20c-76 6-133 69-133 145v396c0 76 57 139 133 145l221 19c97 9 195 9 292 0l221-19c76-6 133-69 133-145v-396c0-76-57-139-133-145l-221-20c-48-4-97-6-146-6z m0 696c-48 0-95-2-143-6l-220-19c-54-5-95-50-95-104v-396c0-54 41-99 95-104l220-19c95-8 191-8 286 0l220 19 0 0c54 5 95 50 95 104v396c0 54-41 99-95 104l-220 19c-48 4-95 6-143 6z m-104-535c-4 0-7 0-10 2-7 4-11 11-11 18v375c0 8 4 15 11 19 7 3 15 3 21-1l292-188c6-3 9-10 9-17s-3-14-9-18l-292-187c-3-2-7-3-11-3z m21 357v-298l232 149-232 149z" horiz-adv-x="1000" />

<glyph glyph-name="flip-box" unicode="&#xe901;" d="M813 788h-625c-12 0-21-10-21-21v-834c0-11 9-21 21-21h625c11 0 20 10 20 21v834c0 11-9 21-20 21z m-21-834h-584v792h584v-792z m207 264c-4 11-15 17-26 13l-35-11c42 86 44 194-32 271-8 8-22 8-30 0-8-8-8-21 0-29 64-65 60-159 21-232l-16 47c-4 11-15 17-26 13-11-4-17-15-13-26l29-89c0 0 1-1 1-1 1-2 1-3 2-4 1-1 2-2 3-3 0-1 1-1 1-2 0 0 1 0 1 0 1-1 2-1 3-2 2-1 6-2 9-2 2 0 4 0 6 1l89 30c11 3 17 15 13 26z m-870 265c0 1-1 1-1 2 0 1-1 2-2 4-1 1-2 1-2 2-1 1-1 2-2 2-1 1-1 1-2 1-1 0-1 1-1 1-1 0-2 0-2 1-2 0-3 1-5 1-1 0-2 0-3 0-2 0-3 0-4 0-1-1-2-1-2-1l-89-29c-11-4-17-16-13-27 4-10 16-16 27-13l34 12c-42-86-44-195 33-272 4-4 9-6 14-6 6 0 11 2 15 6 8 8 8 21 0 30-64 64-59 158-21 231l16-46c3-9 11-15 20-15 2 0 4 1 6 1 11 4 17 16 14 27l-30 88z m184 13h375c11 0 20 9 20 21s-9 21-20 21h-375c-12 0-21-10-21-21s9-21 21-21z m0-125h375c11 0 20 9 20 21s-9 21-20 21h-375c-12 0-21-10-21-21s9-21 21-21z m0-125h375c11 0 20 9 20 21s-9 21-20 21h-375c-12 0-21-10-21-21s9-21 21-21z m0-125h166c12 0 21 9 21 21s-9 21-21 21h-166c-12 0-21-10-21-21s9-21 21-21z" horiz-adv-x="1000" />

<glyph glyph-name="settings" unicode="&#xe902;" d="M662-117c-14 0-27 3-40 10-21 12-36 33-40 57-4 21-23 35-45 33-24-3-50-3-74 0-22 2-41-12-45-33-4-24-19-45-40-57-22-12-48-13-72-3-38 16-75 37-108 62-20 15-32 38-32 64-1 24 10 48 29 64 16 13 18 36 6 54-15 20-27 42-38 65-8 20-30 29-50 22-23-9-49-6-70 6-21 13-36 35-39 60-3 21-4 42-4 63s1 42 4 63c3 25 18 47 39 60 21 12 47 15 70 6 20-7 42 3 50 22 11 23 23 45 38 65 13 18 10 41-6 55-19 15-30 39-29 63 0 26 12 49 32 64 33 25 70 46 108 62 23 10 50 9 72-3 21-12 36-33 40-57 4-21 23-35 45-33 24 3 50 3 74 0 22-2 41 12 45 33 4 24 19 45 40 57 22 12 49 13 72 3 38-16 75-37 108-62 20-15 32-38 33-64 0-24-11-48-30-63-16-14-18-37-5-55 14-20 27-42 37-65 9-19 31-29 50-22 23 9 49 6 70-6 22-13 36-35 39-60 3-21 4-42 4-63s-1-42-4-63c-3-25-17-47-39-60-21-12-47-15-70-6l0 0c-19 7-42-2-50-22-11-23-23-45-38-65-12-18-10-41 6-54 19-16 30-40 29-64 0-26-12-49-32-64-33-25-70-46-108-62-10-5-21-7-32-7z m-120 142c40 0 74-28 81-68 2-12 9-22 19-27 11-6 24-7 36-2 35 15 68 34 99 57 10 8 16 19 16 31 0 12-5 24-14 31-34 28-39 75-13 111 13 18 24 38 33 58 17 39 62 59 102 44l0 0c12-4 24-3 35 3 10 7 17 17 19 30 2 19 3 38 3 57s-1 38-3 57c-2 13-9 24-19 30-11 6-23 7-34 3-40-15-86 5-103 44-9 20-20 40-33 58-26 36-21 83 13 111 9 7 14 19 14 31 0 12-6 23-16 31-31 23-64 42-99 57-12 5-25 4-36-2-10-5-17-16-19-27-7-43-46-72-90-67-22 2-44 2-66 0-44-5-83 24-90 67-2 11-9 22-19 27-11 6-24 7-36 2-35-15-68-34-99-57-10-8-15-19-16-31 0-12 5-24 14-31 34-28 39-75 13-111-12-18-24-38-33-58-17-39-62-59-102-44-12 4-24 3-34-3-11-6-18-17-20-30-2-19-3-38-3-57s1-38 3-57c2-13 9-23 20-30 10-6 22-7 33-3 41 15 86-4 103-44 9-20 21-40 33-57 26-36 21-84-13-112-9-7-14-18-14-30 1-13 6-24 16-32 31-23 64-42 99-57 12-5 25-4 36 2 10 6 17 16 19 27 7 43 46 72 90 67 22-2 44-2 66 0 3 0 6 1 9 1z m-42 117c-115 0-208 93-208 208s93 208 208 208 208-93 208-208-93-208-208-208z m0 375c-92 0-167-75-167-167s75-167 167-167 167 75 167 167-75 167-167 167z" horiz-adv-x="1000" />

<glyph glyph-name="headphones" unicode="&#xe903;" d="M1036 189v143c0 275-232 518-500 518s-500-243-500-518v-143a175 175 0 0 1-36-107 247 247 0 0 1 232-232 55 55 0 0 1 54 54v321a55 55 0 0 1-54 54 256 256 0 0 1-161-54v107a503 503 0 0 0 179 375v-89a20 20 0 0 1 11-18 16 16 0 0 1 18 4 334 334 0 0 0 253 100 329 329 0 0 0 254-100 19 19 0 0 1 14-8h7a20 20 0 0 1 11 18v93a491 491 0 0 0 178-375v-107a256 256 0 0 1-160 54 55 55 0 0 1-54-54v-321a55 55 0 0 1 54-54 247 247 0 0 1 232 232 154 154 0 0 1-32 107z m-786-285a18 18 0 0 0-36 0v321a18 18 0 0 0 36 0v-321z m-71 335v-343a210 210 0 0 0-143 186c0 86 68 139 143 157z m607 486v-68a390 390 0 0 1-250 82 390 390 0 0 1-250-82v75a454 454 0 0 0 250 82 445 445 0 0 0 250-82v-7z m35-500a18 18 0 0 0 36 0v-321a18 18 0 0 0-36 0v321z m72-329v343c78-18 143-68 143-157a214 214 0 0 0-143-186z" horiz-adv-x="1069" />

<glyph glyph-name="testimonial" unicode="&#xe904;" d="M155-150a13 13 0 0 0-10 3 17 17 0 0 0-7 21l93 252h-83a149 149 0 0 0-148 148v428a149 149 0 0 0 148 148h707a149 149 0 0 0 148-148v-431a149 149 0 0 0-148-149h-348l-341-272h-11z m-7 966a115 115 0 0 1-113-114v-431a115 115 0 0 1 113-114h111a18 18 0 0 0 13-7 26 26 0 0 0 4-17l-83-218 297 238a13 13 0 0 0 10 4h355a115 115 0 0 1 114 114v434a115 115 0 0 1-114 114l-707-3h0z" horiz-adv-x="1003" />

<glyph glyph-name="counter-circle" unicode="&#xe905;" d="M321 488c-8 0-13 0-17-5l-62-91c-4-9-4-17 4-21 8-4 17-4 21 4l33 50v-196c0-8 8-16 17-16 8 0 16 8 16 16v242c0 8-4 12-12 17z m150 0c-42 0-75-34-75-75 0-9 8-17 17-17s16 8 16 17c0 25 21 45 46 45s46-20 46-45v-9c0-8-4-21-8-29l-109-137c-4-5-4-13 0-17 4-4 9-8 13-8h121c8 0 16 8 16 16s-8 17-16 17h-92l87 112c13 13 17 30 17 46v9c-4 41-37 75-79 75z m287-75c0 41-33 75-75 75s-75-34-75-75c0-9 9-17 17-17s17 8 17 17c0 25 21 45 46 45 25 0 45-20 45-45s-20-46-45-46c-9 0-17-9-17-17s8-17 17-17c25 0 45-20 45-45s-20-46-45-46c-25 0-46 21-46 46 0 8-9 16-17 16s-17-8-17-16c0-42 34-75 75-75s75 33 75 75c0 25-12 45-29 62 17 13 29 38 29 63z m-258 416c263 0 479-216 479-479s-216-479-479-479-479 217-479 479c0 92 25 183 79 263 8 8 21 12 29 4 9-4 13-17 4-29-45-71-70-150-70-238 0-242 195-438 437-438s438 196 438 438-196 438-438 438c-12 0-21 8-21 20s9 21 21 21z" horiz-adv-x="1000" />

<glyph glyph-name="person" unicode="&#xe906;" d="M500 142c-103 0-194 83-232 208-34 2-60 46-60 104 0 17 3 33 7 47-5 21-7 40-7 57 0 161 131 292 292 292s292-131 292-292c0-17-2-36-7-57 5-14 7-30 7-47 0-58-26-102-60-104-38-125-129-208-232-208z m-217 253c3 0 5 0 7-1 7-3 12-7 13-14 30-118 109-197 197-197s168 79 197 197c1 7 6 12 12 14 6 3 13 2 19-1 7-2 22 21 22 61 0 14-2 28-6 40-1 3-1 7 0 11 4 20 6 37 6 53 0 138-112 250-250 250s-250-112-250-250c0-16 2-33 7-53 0-4 0-8-1-11-4-12-6-26-6-40 0-40 16-62 21-62 3 2 8 3 12 3z m425 80c-8 0-15 5-19 12 0 2-16 37-21 72-87 6-178 48-222 93-4-7-9-13-14-18-34-34-87-34-114-34-6-14-9-59-5-103 0-6-2-12-7-16-5-5-11-7-17-6-1 0-29 5-53 5-11 0-21 9-21 20s10 21 21 21c12 0 24-1 34-1-2 37 0 91 19 111 8 8 18 11 29 11 25 0 64 1 84 21 10 10 15 23 15 41 0 12 9 21 21 21s20-9 20-21c3-21 107-104 230-104 11 0 20-9 20-21 0-20 8-46 14-61l40 3c12 1 22-7 23-19 1-11-8-21-19-22l-56-5c0 0-1 0-2 0z m-270-42h-42c-12 0-21 10-21 21s9 21 21 21h42c11 0 20-9 20-21s-9-21-20-21z m166 0h-41c-12 0-21 10-21 21s9 21 21 21h41c12 0 21-9 21-21s-9-21-21-21z m375-583h-958c-7 0-13 3-17 8-4 5-5 12-3 18l32 129c7 30 27 55 55 68l215 108c5 3 11 3 17 1 5-2 9-6 12-11l107-251 16 32c-14 19-38 56-38 86 0 38 32 62 83 62s83-24 83-62c0-30-24-67-38-86l16-32 107 251c3 5 7 9 12 11 6 2 12 2 17-1l216-108c27-13 47-38 54-68l32-129c2-6 1-13-3-18-4-5-10-8-17-8z m-385 42h359l-26 103c-5 18-17 33-33 41l-196 98-104-242z m-123 0h58l-27 53c-3 7-2 16 3 22 15 19 37 54 37 71 0 18-29 20-42 20s-42-2-42-20c0-17 23-52 38-71 5-6 6-15 2-22l-27-53z m-423 0h358l-104 242-196-98c-16-8-28-23-32-41l-26-103z" horiz-adv-x="1000" />

<glyph glyph-name="chevron-right" unicode="&#xe907;" d="M417 600l-59-58 192-192-192-192 59-58 250 250-250 250z" horiz-adv-x="1000" />

<glyph glyph-name="chevron-left" unicode="&#xe908;" d="M642 541l-59 59-250-250 250-250 59 59-191 191z" horiz-adv-x="1000" />

<glyph glyph-name="close" unicode="&#xe909;" d="M792 583l-59 59-233-233-233 233-59-59 233-233-233-233 59-59 233 233 233-233 59 59-233 233z" horiz-adv-x="1000" />

<glyph glyph-name="file-download" unicode="&#xe910;" d="M792 475h-167v250h-250v-250h-167l292-292 292 292z m-584-375v-83h584v83h-584z" horiz-adv-x="1000" />

<glyph glyph-name="save" unicode="&#xe911;" d="M708 725h-500c-45 0-83-37-83-83v-584c0-45 38-83 83-83h584c46 0 83 38 83 83v500l-167 167z m-208-667c-71 0-125 55-125 125s54 125 125 125 125-54 125-125-54-125-125-125z m125 417h-417v167h417v-167z" horiz-adv-x="1000" />

<glyph glyph-name="zoom-in" unicode="&#xe912;" d="M646 267h-33l-13 12c42 46 67 109 67 175 0 150-121 271-271 271s-271-121-271-271c0-150 121-271 271-271 67 0 129 25 175 67l12-12v-34l209-208 62 62-208 209z m-250 0c-104 0-188 83-188 187s84 188 188 188 187-84 187-188-83-187-187-187z m21 208h83v-42h-83v-83h-42v83h-83v42h83v83h42v-83z" horiz-adv-x="1000" />

<glyph glyph-name="shortcode" unicode="&#xe913;" d="M917 646v-583c0-13-9-21-21-21h-83c-13 0-21 8-21 21 0 12 8 20 21 20h62v542h-62c-13 0-21 8-21 21 0 12 8 21 21 21h83c12 0 21-9 21-21z m-729-21c12 0 20 4 20 21 0 12-8 21-20 21h-84c-12 0-21-9-21-21v-583c0-13 9-21 21-21h84c12 0 20 8 20 21 0 12-8 20-20 20h-63v542h63z m125-383c-25 0-42-17-42-42s17-42 42-42 41 17 41 42-16 42-41 42z m187 0c-25 0-42-17-42-42s17-42 42-42c25 0 42 17 42 42s-17 42-42 42z m188 0c-25 0-42-17-42-42s17-42 42-42 41 17 41 42-16 42-41 42z" horiz-adv-x="1000" />

<glyph glyph-name="nerd" unicode="&#xe914;" d="M500-150c-276 0-500 224-500 500s224 500 500 500 500-224 500-500-224-500-500-500z m0 958c-253 0-458-205-458-458s205-458 458-458 458 205 458 458-205 458-458 458z m-229-416c-35 0-63 28-63 62s28 63 63 63 62-28 62-63-28-62-62-62z m0 83c-12 0-21-9-21-21s9-21 21-21 21 10 21 21-10 21-21 21z m458-83c-34 0-62 28-62 62s28 63 62 63 63-28 63-63-28-62-63-62z m0 83c-11 0-21-9-21-21s10-21 21-21 21 10 21 21-9 21-21 21z m-229-375c-94 0-190 7-245 93-7 10-4 23 6 29 9 6 22 3 29-7 39-61 107-73 210-73s171 12 211 73c6 10 19 13 28 7 10-6 13-19 7-29-55-86-152-93-246-93z m63 313c-12 0-21 9-21 20 0 11-13 21-42 21s-42-10-42-21c0-11-9-20-20-20s-21 9-21 20c0 32 26 63 83 63s83-31 83-63c0-11-9-20-20-20z m-292-146c-103 0-188 84-188 187s85 188 188 188 187-84 187-188-84-187-187-187z m0 333c-81 0-146-65-146-146s65-146 146-146 146 66 146 146-66 146-146 146z m458-333c-103 0-187 84-187 187s84 188 187 188 188-84 188-188-84-187-188-187z m0 333c-80 0-146-65-146-146s66-146 146-146 146 66 146 146-65 146-146 146z m-250-583h-83c-12 0-21 9-21 21v83c0 11 9 21 21 21s21-10 21-21v-63h41v63c0 11 10 21 21 21s21-10 21-21v-83c0-12-9-21-21-21z" horiz-adv-x="1000" />

<glyph glyph-name="device-desktop" unicode="&#xe915;" d="M875 767h-750c-46 0-83-38-83-84v-500c0-45 37-83 83-83h292l-84-125v-42h334v42l-84 125h292c46 0 83 38 83 83v500c0 46-37 84-83 84z m0-500h-750v416h750v-416z" horiz-adv-x="1000" />

<glyph glyph-name="device-tablet" unicode="&#xe916;" d="M771 850h-583c-58 0-105-47-105-104v-792c0-57 47-104 105-104h583c57 0 104 47 104 104v792c0 57-47 104-104 104z m-292-958c-34 0-62 28-62 62s28 63 62 63 63-28 63-63-28-62-63-62z m313 166h-625v667h625v-667z" horiz-adv-x="1000" />

<glyph glyph-name="device-mobile" unicode="&#xe917;" d="M646 808h-333c-58 0-105-46-105-104v-708c0-58 47-104 105-104h333c57 0 104 46 104 104v708c0 58-47 104-104 104z m-167-875c-34 0-62 28-62 63s28 62 62 62 63-28 63-62-28-63-63-63z m188 167h-375v583h375v-583z" horiz-adv-x="1000" />

<glyph glyph-name="document-file" unicode="&#xe918;" d="M854-150h-708c-12 0-21 9-21 21v708c0 6 2 11 6 15l250 250c4 4 9 6 15 6h458c12 0 21-9 21-21v-958c0-12-9-21-21-21z m-687 42h666v916h-428l-238-237v-679z m229 666h-250c-12 0-21 10-21 21s9 21 21 21h229v229c0 12 9 21 21 21s21-9 21-21v-250c0-11-10-21-21-21z m333-83h-458c-12 0-21 9-21 21s9 21 21 21h458c12 0 21-10 21-21s-9-21-21-21z m0 125h-208c-12 0-21 9-21 21s9 21 21 21h208c12 0 21-10 21-21s-9-21-21-21z m0-250h-458c-12 0-21 9-21 21s9 21 21 21h458c12 0 21-10 21-21s-9-21-21-21z m0-125h-458c-12 0-21 9-21 21s9 21 21 21h458c12 0 21-10 21-21s-9-21-21-21z m0-125h-458c-12 0-21 9-21 21s9 21 21 21h458c12 0 21-10 21-21s-9-21-21-21z m0-125h-458c-12 0-21 9-21 21s9 21 21 21h458c12 0 21-10 21-21s-9-21-21-21z" horiz-adv-x="1000" />

<glyph glyph-name="folder" unicode="&#xe919;" d="M896-46h-792c-57 0-104 47-104 104v500c0 58 47 105 104 105h149c44 0 84-29 98-72l4-11c9-25 32-42 59-42h482c57 0 104-47 104-105v-375c0-57-47-104-104-104z m-792 667c-34 0-62-28-62-63v-500c0-34 28-62 62-62h792c34 0 62 28 62 62v375c0 35-28 63-62 63h-482c-45 0-84 29-99 71l-3 11c-9 26-33 43-59 43h-149z m834-125c-12 0-21 9-21 21v125c0 34-28 62-63 62h-708c-35 0-63-28-63-62 0-12-9-21-20-21s-21 9-21 21c0 57 46 104 104 104h708c58 0 104-47 104-104v-125c0-12-9-21-20-21z" horiz-adv-x="1000" />

<glyph glyph-name="hypster" unicode="&#xe920;" d="M750 267c-129 0-177 68-194 109-19 48-17 105 3 151-46-12-71-12-118 0 21-46 23-103 3-151-17-41-65-109-194-109-164 0-208 91-208 146 0 7 0 15 1 25 2 23 4 59-7 72-3 3-7 6-16 7-10 0-18 8-20 17-1 10 4 19 13 23 5 2 113 43 237 43 78 0 142-17 188-29 25-7 48-13 62-13s37 6 62 13c47 12 110 29 188 29 124 0 232-41 237-43 9-4 14-13 13-23-2-9-10-17-20-17-9-1-13-4-15-7-12-13-10-49-8-72 1-10 1-18 1-25 0-55-43-146-208-146z m-133 275c-28-30-45-95-22-150 16-38 55-84 155-84 162 0 167 94 167 105 0 6-1 13-1 22-3 31-6 70 13 97-42 12-108 26-179 26-51 0-95-7-133-16z m-545-10c18-27 15-66 13-97-1-9-2-16-2-22 0-11 5-105 167-105 100 0 139 46 155 84 23 55 6 120-22 150-38 9-82 16-133 16-71 0-137-14-178-26z m491-119c-12 0-21 9-21 20 0 11-13 21-42 21s-42-10-42-21c0-11-9-20-20-20s-21 9-21 20c0 32 26 63 83 63s83-31 83-63c0-11-9-20-20-20z m-63-563c-276 0-500 224-500 500s224 500 500 500 500-224 500-500-224-500-500-500z m0 958c-253 0-458-205-458-458s205-458 458-458 458 205 458 458-205 458-458 458z m-229-416c-35 0-63 28-63 62s28 63 63 63 62-28 62-63-28-62-62-62z m0 83c-12 0-21-9-21-21s9-21 21-21 21 10 21 21-10 21-21 21z m458-83c-34 0-62 28-62 62s28 63 62 63 63-28 63-63-28-62-63-62z m0 83c-11 0-21-9-21-21s10-21 21-21 21 10 21 21-9 21-21 21z m-87-417c-40 0-163 0-163 84s62 83 92 83c14 0 31-5 54-12 49-15 122-37 228-30 10 1 18-5 21-14s0-18-8-24c-40-27-153-87-224-87z m-71 125c-38 0-50-3-50-41 0-35 66-42 121-42 34 0 86 19 133 42-72 4-126 20-162 31-18 6-34 10-42 10z m-213-125c-71 0-184 60-224 87-8 6-11 15-8 24s12 15 21 14c106-7 179 15 228 30 23 7 40 12 54 12 30 0 92 0 92-83s-122-84-163-84z m-133 84c47-23 99-42 133-42 56 0 121 7 121 42 0 38-12 41-50 41-8 0-24-4-42-10-36-11-90-27-162-31z" horiz-adv-x="1000" />

<glyph glyph-name="h-align-left" unicode="&#xe921;" d="M464 205c8-8 15-5 15 7l0 82 375 0c12 0 21 9 21 20l0 82c0 12-9 21-21 21l-375 0 0 82c0 11-7 14-15 7l-157-137c-8-8-8-20 0-27l157-137z m-214 458c0 11-9 20-21 20l-83 0c-12 0-21-9-21-20l0-616c0-11 9-20 21-20l83 0c12 0 21 9 21 20l0 616z" horiz-adv-x="1000" />

<glyph glyph-name="h-align-right" unicode="&#xe922;" d="M537 512c-9 8-16 5-16-6l0-84-375 0c-12 0-21-9-21-20l0-84c0-12 9-21 21-21l375 0 0-83c0-12 7-15 16-7l156 139c8 7 8 20 0 28l-156 138z m338 190c0 13-9 23-21 23l-83 0c-12 0-21-11-21-23l0-704c0-13 9-23 21-23l83 0c12 0 21 11 21 23l0 704z" horiz-adv-x="1000" />

<glyph glyph-name="h-align-center" unicode="&#xe923;" d="M735 465c7 6 13 3 13-6l0-70 102 0c10 0 18-7 18-17l0-70c0-9-8-17-18-17l-102 0 0-69c0-10-6-12-13-6l-127 116c-7 6-7 17 0 23l127 116z m-478-255c-7-6-13-4-13 6l0 69-102 0c-9 0-17 8-17 17l0 70c0 10 8 17 17 17l102 0 0 70c0 9 6 12 13 6l128-116c7-6 7-17 0-23l-128-116z m192-174c0-11 8-19 17-19l68 0c10 0 17 9 17 19l0 586c0 11-8 20-17 20l-68 0c-10 0-17-9-17-20l0-586z" horiz-adv-x="1000" />

<glyph glyph-name="h-align-stretch" unicode="&#xe924;" d="M734 465c-7 6-12 3-12-6l0-70-103 0c-9 0-17-7-17-17l0-70c0-9 8-17 17-17l103 0 0-69c0-10 5-12 12-6l128 116c7 6 7 17 0 23l-128 116z m-476-255c7-6 13-4 13 6l0 69 102 0c10 0 17 8 17 17l0 70c0 10-7 17-17 17l-102 0 0 70c0 9-6 12-13 6l-128-116c-7-6-7-17 0-23l128-116z m191-174c0-11 8-19 17-19l68 0c10 0 17 9 17 19l0 586c0 11-8 20-17 20l-68 0c-10 0-17-9-17-20l0-586z" horiz-adv-x="1000" />

<glyph glyph-name="v-align-top" unicode="&#xe925;" d="M344 387c-7-9-4-16 7-16l82 0 0-375c0-12 10-21 21-21l82 0c11 0 20 9 20 21l0 375 82 0c12 0 15 7 7 16l-136 156c-8 8-20 8-28 0l-137-156z m-157 338c-11 0-20-9-20-21l0-83c0-12 9-21 20-21l616 0c11 0 20 9 20 21l0 83c0 12-9 21-20 21l-616 0z" horiz-adv-x="1000" />

<glyph glyph-name="v-align-bottom" unicode="&#xe926;" d="M645 314c8 8 5 15-7 15l-82 0 0 375c0 12-9 21-20 21l-82 0c-12 0-21-9-21-21l0-375-82 0c-11 0-14-7-7-15l137-157c8-8 20-8 28 0l136 157z m158-339c11 0 20 9 20 21l0 83c0 12-9 21-20 21l-616 0c-11 0-20-9-20-21l0-83c0-12 9-21 20-21l616 0z" horiz-adv-x="1000" />

<glyph glyph-name="v-align-middle" unicode="&#xe927;" d="M343 130c-8-7-5-12 6-12l84 0 0-120c0-10 9-17 20-17l84 0c11 0 20 8 20 17l0 120 83 0c12 0 14 5 6 12l-136 113c-9 6-22 6-30 0l-137-113z m0 440c-8 7-5 12 6 12l84 0 0 120c0 10 9 17 20 17l84 0c11 0 20-8 20-17l0-120 83 0c12 0 14-5 6-12l-136-112c-9-7-22-7-30 0l-137 112z m454-281c11 0 21 9 21 20l0 82c0 11-10 21-21 21l-625 0c-12 0-21-10-21-21l0-82c0-11 10-20 21-20l625 0z" horiz-adv-x="1000" />

<glyph glyph-name="v-align-stretch" unicode="&#xe928;" d="M377 596c-7-7-5-13 6-13l76 0 0-131c0-11 8-19 18-19l76 0c11 0 19 8 19 19l0 131 76 0c10 0 12 6 5 13l-124 124c-8 7-20 7-27 0l-125-124z m0-492c-7 7-5 13 6 13l76 0 0 132c0 10 8 18 18 18l76 0c11 0 19-8 19-18l0-132 75 0c11 0 13-6 6-13l-124-124c-8-7-20-7-27 0l-125 124z m422 190c10 0 19 8 19 18l0 76c0 10-9 18-19 18l-567 0c-11 0-19-8-19-18l0-76c0-10 8-18 19-18l567 0z" horiz-adv-x="1000" />

<glyph glyph-name="pro-icon" unicode="&#xe929;" d="M0 710c0 77 63 140 140 140l1434 0c78 0 140-63 140-140l0-720c0-77-63-140-140-140l-1434 0c-77 0-140 63-140 140l0 720z m262-576l65 0 0 170 117 0c88 0 138 62 138 135 0 74-49 136-138 136l-182 0 0-441z m254 305c0-46-34-77-80-77l-109 0 0 155 109 0c46 0 80-31 80-78z m381-305l75 0-110 177c55 7 107 49 107 128 0 82-56 136-138 136l-182 0 0-441 65 0 0 170 80 0 103-170z m6 305c0-46-34-77-81-77l-108 0 0 155 108 0c47 0 81-31 81-78z m128-85c0-131 88-228 217-228 129 0 218 97 218 228 0 131-89 228-218 228-129 0-217-97-217-228z m368 0c0-96-60-169-151-169-92 0-151 73-151 169 0 97 59 169 151 169 91 0 151-72 151-169z" horiz-adv-x="1714" />

<glyph glyph-name="mail" unicode="&#xe930;" d="M896 17h-792c-57 0-104 46-104 104v458c0 58 47 104 104 104h792c57 0 104-46 104-104v-458c0-58-47-104-104-104z m-792 625c-34 0-62-28-62-63v-458c0-35 28-63 62-63h792c34 0 62 28 62 63v458c0 35-28 63-62 63h-792z m396-334c-23 0-46 7-66 20l-342 234c-9 7-11 19-5 29s19 12 29 5l342-233c25-18 59-18 84 0l342 233c10 7 23 4 29-5 7-10 4-22-5-29l-342-234c-20-13-43-20-66-20z m-396-208c-6 0-12 3-16 8-7 8-6 22 3 29l250 208c9 8 22 6 29-2 8-9 6-22-2-30l-250-208c-4-3-9-5-14-5z m792 0c-5 0-10 2-13 5l-250 208c-9 8-10 21-3 30 7 8 20 10 29 2l250-208c9-7 10-21 3-29-4-5-10-8-16-8z" horiz-adv-x="1000" />

</font>
</defs>
</svg>
