<svg width="194" height="112" viewBox="0 0 194 112" fill="none" xmlns="http://www.w3.org/2000/svg">
<path d="M193.461 0.53656H1.5127V111.463H193.461V0.53656Z" fill="black"/>
<path d="M192.957 1.0736V110.927H2.03383V1.0736H192.957ZM194 0.00012207H1.04297V112H194V0.00012207Z" fill="black"/>
<path d="M193.461 0.53656H1.5127V7.06692H193.461V0.53656Z" fill="black"/>
<path d="M191.962 1.28523V6.30876H1.98595V1.28523H191.962ZM193 0.296997H1V7.297H193V0.296997Z" fill="black"/>
<path d="M192.418 0.53656H0.469238V111.463H192.418V0.53656Z" fill="white"/>
<path d="M191.914 1.07348V110.927H0.990859V1.07348H191.914ZM192.957 0H0V112H192.957V0Z" fill="black"/>
<path d="M192.418 0.53656H0.469238V7.06692H192.418V0.53656Z" fill="#9687FF"/>
<path d="M191.914 1.07348V6.53034H0.990859V1.07348H191.914ZM192.957 0H0V7.60382H192.957V0Z" fill="black"/>
<path d="M78.9176 75.5856C87.1261 75.5856 93.7804 68.7368 93.7804 60.2884C93.7804 51.8401 87.1261 44.9913 78.9176 44.9913C70.709 44.9913 64.0547 51.8401 64.0547 60.2884C64.0547 68.7368 70.709 75.5856 78.9176 75.5856Z" fill="#9687FF"/>
<path d="M76.6059 74.8526C73.559 74.8526 70.5805 73.9224 68.0473 72.1798C65.5141 70.4372 63.54 67.9605 62.3748 65.0629C61.2096 62.1653 60.9056 58.9771 61.5013 55.9017C62.097 52.8263 63.5656 50.0018 65.7213 47.7856C67.8771 45.5694 70.623 44.0611 73.6118 43.4515C76.6006 42.8418 79.698 43.1583 82.512 44.3608C85.326 45.5634 87.7302 47.5979 89.4205 50.2071C91.1108 52.8162 92.0111 55.8828 92.0077 59.0187C92.0031 63.2198 90.3784 67.2471 87.4905 70.216C84.6026 73.185 80.6877 74.8526 76.6059 74.8526ZM76.6059 44.2404C73.766 44.2404 70.9899 45.1072 68.6286 46.731C66.2673 48.3549 64.4269 50.6629 63.3401 53.3633C62.2533 56.0637 61.969 59.0351 62.523 61.9018C63.077 64.7685 64.4446 67.4018 66.4527 69.4685C68.4608 71.5353 71.0193 72.9428 73.8046 73.513C76.59 74.0833 79.477 73.7906 82.1008 72.6721C84.7245 71.5535 86.967 69.6594 88.5448 67.2291C90.1226 64.7988 90.9647 61.9416 90.9647 59.0187C90.9647 55.0993 89.4519 51.3404 86.7591 48.5689C84.0663 45.7974 80.4141 44.2404 76.6059 44.2404Z" fill="black"/>
<path d="M81.543 58.3206H71.6865V59.7161H81.543V58.3206Z" fill="black"/>
<path d="M77.2841 53.9366H75.9282V64.081H77.2841V53.9366Z" fill="black"/>
<path d="M116.17 73.779C113.33 73.779 110.553 72.9119 108.191 71.2872C105.83 69.6626 103.989 67.3534 102.903 64.652C101.817 61.9506 101.533 58.9783 102.089 56.1111C102.644 53.2439 104.013 50.6107 106.023 48.5446C108.033 46.4785 110.593 45.0725 113.38 44.5043C116.166 43.9361 119.054 44.2313 121.677 45.3526C124.301 46.4738 126.542 48.3708 128.118 50.8034C129.693 53.236 130.533 56.095 130.529 59.0187C130.524 62.935 129.01 66.6893 126.317 69.4569C123.625 72.2245 119.975 73.779 116.17 73.779Z" fill="#DCDBFF"/>
<path d="M116.171 44.7762C118.921 44.7762 121.61 45.6157 123.897 47.1884C126.184 48.7612 127.966 50.9966 129.019 53.612C130.072 56.2273 130.347 59.1052 129.81 61.8817C129.274 64.6582 127.949 67.2085 126.004 69.2102C124.06 71.212 121.582 72.5751 118.884 73.1274C116.186 73.6797 113.39 73.3962 110.849 72.3129C108.308 71.2296 106.136 69.3951 104.608 67.0413C103.08 64.6875 102.264 61.9202 102.264 59.0893C102.264 55.2933 103.729 51.6527 106.337 48.9685C108.945 46.2842 112.483 44.7762 116.171 44.7762ZM116.171 43.7028C113.228 43.7028 110.351 44.601 107.904 46.2838C105.457 47.9666 103.549 50.3585 102.423 53.157C101.297 55.9554 101.002 59.0348 101.576 62.0056C102.151 64.9764 103.568 67.7053 105.649 69.8471C107.73 71.989 110.381 73.4476 113.268 74.0385C116.154 74.6295 119.146 74.3262 121.865 73.167C124.584 72.0079 126.908 70.0449 128.543 67.5264C130.178 65.0078 131.051 62.0468 131.051 59.0178C131.053 57.0059 130.67 55.0134 129.923 53.1542C129.176 51.295 128.08 49.6058 126.698 48.1832C125.316 46.7606 123.674 45.6326 121.868 44.8638C120.062 44.0949 118.126 43.7004 116.171 43.7028Z" fill="black"/>
<path d="M110.486 63.2223V53.7399H115.579V55.4932H121.855V63.2223H110.486Z" fill="#DCDBFF"/>
<path d="M115.058 54.277V56.0661H121.334V62.7217H111.008V54.3128H115.058V54.277ZM116.101 53.2393H109.965V63.7952H122.377V54.9569H116.101V53.1677V53.2393Z" fill="black"/>
<rect x="13.7412" y="16.7914" width="163.872" height="84.5465" stroke="#9687FF" stroke-dasharray="5 5"/>
</svg>
