<svg width="194" height="112" viewBox="0 0 194 112" fill="none" xmlns="http://www.w3.org/2000/svg">
<path d="M193 0.296875H0V9.29688H193V0.296875Z" fill="#9687FF"/>
<path d="M79.4485 14.8104H52.7676V35.2403H79.4485V14.8104Z" fill="#FAE8FF" stroke="black" stroke-miterlimit="10"/>
<path d="M111.287 14.8104H84.6064V35.2403H111.287V14.8104Z" fill="#FAE8FF" stroke="black" stroke-miterlimit="10"/>
<path d="M143.139 14.8104H116.458V35.2403H143.139V14.8104Z" fill="#FAE8FF" stroke="black" stroke-miterlimit="10"/>
<path d="M174.979 14.8104H148.298V35.2403H174.979V14.8104Z" fill="#FAE8FF" stroke="black" stroke-miterlimit="10"/>
<path d="M175.808 44.2584H109.07V93.8706H175.808V44.2584Z" fill="#FAE8FF" stroke="black" stroke-miterlimit="10"/>
<path d="M100.816 44.155H52.1504V75.2449H100.816V44.155Z" fill="#FAE8FF" stroke="black" stroke-miterlimit="10"/>
<path d="M100.817 81.4998H52.1509V93.6167H100.817V81.4998Z" fill="#FAE8FF" stroke="black" stroke-miterlimit="10"/>
<path d="M193.406 9.28394H0.591309V111.422H193.406V9.28394Z" fill="white"/>
<path d="M192.814 9.86194V110.844H1.18582V9.86194H192.814ZM194 8.70575H0V112H194V8.70575Z" fill="black"/>
<path d="M192.814 1.15619V8.85642H1.18582V1.15619H192.814ZM194 0H0V10.0126H194V0Z" fill="black"/>
<path d="M158.113 20.2918H37V41.711H158.113V20.2918Z" fill="white" stroke="black" stroke-miterlimit="10"/>
<path d="M85.6616 50.7294H37V102.586H85.6616V50.7294Z" fill="#DCDBFF" stroke="black" stroke-miterlimit="10"/>
<path d="M39.998 93.373H82.6994" stroke="black" stroke-miterlimit="10"/>
<path d="M39.998 97.444H82.6994" stroke="black" stroke-miterlimit="10"/>
<rect x="94.5" y="50.7969" width="64" height="52" fill="#DCDBFF" stroke="black"/>
</svg>
