<svg width="252" height="119" viewBox="0 0 252 119" fill="none" xmlns="http://www.w3.org/2000/svg">
<path d="M131.185 66.0627H238.815C245.699 66.0628 251.28 71.6436 251.28 78.5275V117.623H131.185C124.301 117.623 118.72 112.042 118.72 105.158V78.5275C118.72 71.6436 124.301 66.0629 131.185 66.0627Z" fill="white"/>
<path d="M131.185 66.0627H238.815C245.699 66.0628 251.28 71.6436 251.28 78.5275V117.623H131.185C124.301 117.623 118.72 112.042 118.72 105.158V78.5275C118.72 71.6436 124.301 66.0629 131.185 66.0627Z" stroke="#0C0D0E" stroke-width="1.44"/>
<path d="M135.343 95.8429V87.2288H136.574V95.8429H135.343ZM129.867 95.8429V87.2288H131.098V95.8429H129.867ZM130.888 91.9542V90.9452H135.614V91.9542H130.888ZM140.369 95.9906C139.86 95.9906 139.438 95.9044 139.101 95.7321C138.765 95.5599 138.515 95.3302 138.351 95.043C138.187 94.7477 138.105 94.4318 138.105 94.0955C138.105 93.6853 138.211 93.3366 138.425 93.0495C138.638 92.7541 138.942 92.5285 139.335 92.3726C139.729 92.2168 140.201 92.1388 140.75 92.1388H142.363C142.363 91.7779 142.309 91.4784 142.203 91.2405C142.096 91.0026 141.936 90.8262 141.723 90.7113C141.518 90.5883 141.255 90.5268 140.935 90.5268C140.566 90.5268 140.25 90.617 139.988 90.7975C139.725 90.9698 139.561 91.2282 139.495 91.5728H138.265C138.314 91.1379 138.462 90.7688 138.708 90.4652C138.962 90.1535 139.286 89.9156 139.68 89.7515C140.074 89.5792 140.492 89.4931 140.935 89.4931C141.518 89.4931 142.006 89.5956 142.399 89.8007C142.793 90.0058 143.089 90.297 143.285 90.6744C143.491 91.0436 143.593 91.4866 143.593 92.0035V95.8429H142.523L142.424 94.7969C142.334 94.961 142.227 95.1168 142.104 95.2645C141.981 95.4122 141.833 95.5394 141.661 95.646C141.497 95.7527 141.304 95.8347 141.083 95.8921C140.869 95.9578 140.632 95.9906 140.369 95.9906ZM140.603 94.9938C140.865 94.9938 141.103 94.9405 141.317 94.8338C141.53 94.7272 141.71 94.5836 141.858 94.4031C142.014 94.2144 142.129 94.0052 142.203 93.7755C142.285 93.5376 142.33 93.2956 142.338 93.0495V93.0125H140.874C140.521 93.0125 140.234 93.0577 140.012 93.1479C139.799 93.2299 139.643 93.3448 139.545 93.4925C139.446 93.6401 139.397 93.8124 139.397 94.0093C139.397 94.2144 139.442 94.3908 139.532 94.5385C139.631 94.6779 139.77 94.7887 139.951 94.8707C140.131 94.9528 140.348 94.9938 140.603 94.9938ZM145.164 95.8429V86.9827H146.394V95.8429H145.164ZM150.914 95.9906C150.332 95.9906 149.807 95.8552 149.339 95.5845C148.88 95.3137 148.515 94.9364 148.244 94.4523C147.982 93.9601 147.85 93.394 147.85 92.7541C147.85 92.0978 147.986 91.5276 148.256 91.0436C148.527 90.5514 148.896 90.1699 149.364 89.8992C149.832 89.6284 150.357 89.4931 150.939 89.4931C151.53 89.4931 152.055 89.6284 152.514 89.8992C152.974 90.1699 153.335 90.5473 153.597 91.0313C153.868 91.5153 154.003 92.0855 154.003 92.7418C154.003 93.3981 153.868 93.9683 153.597 94.4523C153.335 94.9364 152.97 95.3137 152.502 95.5845C152.034 95.8552 151.505 95.9906 150.914 95.9906ZM150.914 94.9323C151.251 94.9323 151.554 94.8502 151.825 94.6861C152.104 94.5221 152.326 94.28 152.49 93.9601C152.662 93.6319 152.748 93.2258 152.748 92.7418C152.748 92.2578 152.666 91.8558 152.502 91.5358C152.338 91.2077 152.116 90.9616 151.837 90.7975C151.567 90.6334 151.267 90.5514 150.939 90.5514C150.611 90.5514 150.307 90.6334 150.028 90.7975C149.75 90.9616 149.524 91.2077 149.352 91.5358C149.188 91.8558 149.106 92.2578 149.106 92.7418C149.106 93.2258 149.188 93.6319 149.352 93.9601C149.524 94.28 149.745 94.5221 150.016 94.6861C150.295 94.8502 150.595 94.9323 150.914 94.9323ZM158.661 95.8429V87.2288H161.307C162.308 87.2288 163.136 87.4052 163.792 87.7579C164.449 88.1107 164.933 88.6111 165.245 89.2592C165.565 89.8992 165.725 90.6621 165.725 91.5481C165.725 92.4342 165.565 93.1971 165.245 93.837C164.933 94.4769 164.449 94.9733 163.792 95.326C163.144 95.6706 162.316 95.8429 161.307 95.8429H158.661ZM159.892 94.8092H161.257C162.053 94.8092 162.685 94.6779 163.153 94.4154C163.62 94.1529 163.952 93.7796 164.149 93.2956C164.354 92.8033 164.457 92.2209 164.457 91.5481C164.457 90.8672 164.354 90.2806 164.149 89.7884C163.952 89.2962 163.62 88.9188 163.153 88.6563C162.685 88.3937 162.053 88.2625 161.257 88.2625H159.892V94.8092ZM167.23 95.8429V89.6407H168.461V95.8429H167.23ZM167.858 88.4717C167.62 88.4717 167.423 88.3978 167.267 88.2502C167.119 88.1025 167.045 87.9138 167.045 87.6841C167.045 87.4626 167.119 87.2821 167.267 87.1426C167.423 86.995 167.62 86.9211 167.858 86.9211C168.087 86.9211 168.28 86.995 168.436 87.1426C168.592 87.2821 168.67 87.4626 168.67 87.6841C168.67 87.9138 168.592 88.1025 168.436 88.2502C168.28 88.3978 168.087 88.4717 167.858 88.4717ZM172.743 98.6979C172.177 98.6979 171.676 98.624 171.242 98.4764C170.807 98.3369 170.471 98.1195 170.233 97.8241C169.995 97.5288 169.876 97.1678 169.876 96.7412C169.876 96.5197 169.925 96.2941 170.023 96.0644C170.122 95.8429 170.282 95.6296 170.503 95.4245C170.725 95.2194 171.024 95.0348 171.402 94.8707L172.091 95.4245C171.672 95.5804 171.389 95.765 171.242 95.9783C171.102 96.1998 171.032 96.4131 171.032 96.6182C171.032 96.8643 171.106 97.0694 171.254 97.2335C171.402 97.3975 171.603 97.5206 171.857 97.6026C172.12 97.6847 172.415 97.7257 172.743 97.7257C173.063 97.7257 173.342 97.6806 173.58 97.5903C173.818 97.5001 174.002 97.3729 174.134 97.2088C174.265 97.0448 174.33 96.852 174.33 96.6305C174.33 96.3679 174.232 96.1464 174.035 95.966C173.838 95.7937 173.461 95.6911 172.903 95.6583C172.435 95.6255 172.037 95.5804 171.709 95.5229C171.389 95.4655 171.115 95.3958 170.885 95.3137C170.663 95.2317 170.475 95.1415 170.319 95.043C170.171 94.9446 170.044 94.842 169.937 94.7354V94.4523L171.168 93.1848L172.165 93.5294L170.823 94.7723L171.082 94.2185C171.172 94.2759 171.258 94.3334 171.34 94.3908C171.422 94.44 171.533 94.4851 171.672 94.5262C171.812 94.5672 172.001 94.6041 172.238 94.6369C172.476 94.6697 172.788 94.7025 173.174 94.7354C173.732 94.7764 174.179 94.8748 174.515 95.0307C174.86 95.1866 175.11 95.3958 175.266 95.6583C175.422 95.9208 175.5 96.2326 175.5 96.5936C175.5 96.9463 175.401 97.2827 175.204 97.6026C175.015 97.9226 174.716 98.1851 174.306 98.3902C173.904 98.5953 173.383 98.6979 172.743 98.6979ZM172.743 93.9355C172.218 93.9355 171.771 93.837 171.402 93.6401C171.041 93.4432 170.762 93.1766 170.565 92.8403C170.376 92.5039 170.282 92.1306 170.282 91.7204C170.282 91.302 170.376 90.9287 170.565 90.6006C170.762 90.2642 171.045 89.9976 171.414 89.8007C171.783 89.5956 172.226 89.4931 172.743 89.4931C173.26 89.4931 173.699 89.5956 174.06 89.8007C174.429 89.9976 174.708 90.2642 174.897 90.6006C175.093 90.9287 175.192 91.302 175.192 91.7204C175.192 92.1306 175.093 92.5039 174.897 92.8403C174.708 93.1766 174.429 93.4432 174.06 93.6401C173.699 93.837 173.26 93.9355 172.743 93.9355ZM172.743 92.951C173.145 92.951 173.465 92.8485 173.703 92.6434C173.941 92.4301 174.06 92.1224 174.06 91.7204C174.06 91.3184 173.941 91.0149 173.703 90.8098C173.465 90.5965 173.145 90.4898 172.743 90.4898C172.341 90.4898 172.017 90.5965 171.771 90.8098C171.525 91.0149 171.402 91.3184 171.402 91.7204C171.402 92.1224 171.525 92.4301 171.771 92.6434C172.017 92.8485 172.341 92.951 172.743 92.951ZM173.752 90.6129L173.457 89.6407H176.004V90.4898L173.752 90.6129ZM177.325 95.8429V89.6407H178.555V95.8429H177.325ZM177.952 88.4717C177.714 88.4717 177.517 88.3978 177.362 88.2502C177.214 88.1025 177.14 87.9138 177.14 87.6841C177.14 87.4626 177.214 87.2821 177.362 87.1426C177.517 86.995 177.714 86.9211 177.952 86.9211C178.182 86.9211 178.375 86.995 178.531 87.1426C178.686 87.2821 178.764 87.4626 178.764 87.6841C178.764 87.9138 178.686 88.1025 178.531 88.2502C178.375 88.3978 178.182 88.4717 177.952 88.4717ZM182.862 95.8429C182.477 95.8429 182.14 95.7814 181.853 95.6583C181.566 95.5352 181.345 95.3302 181.189 95.043C181.033 94.7559 180.955 94.3662 180.955 93.874V90.6867H179.884V89.6407H180.955L181.103 88.0902H182.185V89.6407H183.945V90.6867H182.185V93.8863C182.185 94.239 182.259 94.481 182.407 94.6123C182.555 94.7354 182.809 94.7969 183.17 94.7969H183.884V95.8429H182.862ZM187.357 95.9906C186.849 95.9906 186.426 95.9044 186.09 95.7321C185.753 95.5599 185.503 95.3302 185.339 95.043C185.175 94.7477 185.093 94.4318 185.093 94.0955C185.093 93.6853 185.2 93.3366 185.413 93.0495C185.626 92.7541 185.93 92.5285 186.324 92.3726C186.717 92.2168 187.189 92.1388 187.739 92.1388H189.351C189.351 91.7779 189.298 91.4784 189.191 91.2405C189.084 91.0026 188.924 90.8262 188.711 90.7113C188.506 90.5883 188.243 90.5268 187.923 90.5268C187.554 90.5268 187.238 90.617 186.976 90.7975C186.713 90.9698 186.549 91.2282 186.484 91.5728H185.253C185.302 91.1379 185.45 90.7688 185.696 90.4652C185.95 90.1535 186.274 89.9156 186.668 89.7515C187.062 89.5792 187.48 89.4931 187.923 89.4931C188.506 89.4931 188.994 89.5956 189.388 89.8007C189.782 90.0058 190.077 90.297 190.274 90.6744C190.479 91.0436 190.581 91.4866 190.581 92.0035V95.8429H189.511L189.412 94.7969C189.322 94.961 189.215 95.1168 189.092 95.2645C188.969 95.4122 188.822 95.5394 188.649 95.646C188.485 95.7527 188.293 95.8347 188.071 95.8921C187.858 95.9578 187.62 95.9906 187.357 95.9906ZM187.591 94.9938C187.854 94.9938 188.092 94.9405 188.305 94.8338C188.518 94.7272 188.699 94.5836 188.846 94.4031C189.002 94.2144 189.117 94.0052 189.191 93.7755C189.273 93.5376 189.318 93.2956 189.326 93.0495V93.0125H187.862C187.509 93.0125 187.222 93.0577 187 93.1479C186.787 93.2299 186.631 93.3448 186.533 93.4925C186.434 93.6401 186.385 93.8124 186.385 94.0093C186.385 94.2144 186.43 94.3908 186.521 94.5385C186.619 94.6779 186.758 94.7887 186.939 94.8707C187.119 94.9528 187.337 94.9938 187.591 94.9938ZM192.152 95.8429V86.9827H193.383V95.8429H192.152Z" fill="black"/>
<mask id="mask0_168_30690" style="mask-type:alpha" maskUnits="userSpaceOnUse" x="200" y="71" width="40" height="41">
<circle cx="220.16" cy="91.2662" r="19.2" fill="#D9D9D9" stroke="#0C0D0E" stroke-width="1.2"/>
</mask>
<g mask="url(#mask0_168_30690)">
<rect x="122.995" y="48.5262" width="159.744" height="89.088" stroke="#0C0D0E" stroke-width="0.72"/>
<path d="M226.763 133.169C226.593 133.169 226.447 133.052 226.439 132.898C226.309 130.649 226.151 128.361 225.996 126.147C225.696 121.787 225.388 117.278 225.258 112.844C225.209 111.256 225.737 109.961 226.816 108.993C229.445 106.648 234.809 106.687 238.724 106.715H239.053C241.301 106.733 244.105 106.751 246.259 108.046C249.079 109.737 249.862 112.897 250.426 115.993L253.376 132.229C253.392 132.311 253.364 132.393 253.307 132.457C253.246 132.521 253.161 132.557 253.067 132.56L226.771 133.173H226.763V133.169ZM237.345 107.281C233.746 107.281 229.433 107.477 227.283 109.395C226.317 110.256 225.867 111.381 225.911 112.829C226.041 117.253 226.349 121.755 226.65 126.112C226.796 128.236 226.946 130.429 227.076 132.592L252.686 131.994L249.793 116.082C249.253 113.111 248.507 110.082 245.902 108.516C243.91 107.32 241.22 107.302 239.057 107.288H238.729C238.286 107.281 237.824 107.277 237.349 107.277L237.345 107.281Z" fill="#FBF2FB"/>
<path d="M224.633 87.6356V96.5437C224.633 99.487 227.295 101.875 230.577 101.875H231.243C234.525 101.875 237.187 99.4906 237.187 96.5437C237.187 95.355 235.633 94.3941 233.714 94.3941V93.2517C233.714 90.1483 229.648 87.6321 224.633 87.6321V87.6356Z" fill="black"/>
<path d="M226.183 92.5295C226.625 91.8854 227.319 91.3515 228.147 91.202C228.974 91.049 229.92 91.3444 230.346 91.9992C230.869 92.8071 230.074 93.8499 229.478 94.6471C229.157 95.0742 228.358 96.1419 227.031 96.3661C226.613 96.4373 225.907 96.4622 225.806 96.2273" fill="white"/>
<path d="M226.439 96.7005C226.049 96.7005 225.627 96.6258 225.497 96.3268C225.436 96.1809 225.522 96.0136 225.688 95.9602C225.842 95.9104 226.008 95.9673 226.086 96.0919C226.191 96.1346 226.564 96.156 226.966 96.0848C228.159 95.8819 228.893 94.9068 229.206 94.4868L229.234 94.4512C229.79 93.7074 230.484 92.7821 230.066 92.1379C229.729 91.6218 228.954 91.3442 228.216 91.4795C227.538 91.6041 226.901 92.0382 226.463 92.6753C226.37 92.8105 226.171 92.8532 226.017 92.7714C225.862 92.6895 225.814 92.5151 225.907 92.3799C226.439 91.6076 227.23 91.0738 228.082 90.9207C229.088 90.7357 230.155 91.1307 230.63 91.8532C231.242 92.7999 230.394 93.9352 229.778 94.7609L229.749 94.7964C229.425 95.2342 228.556 96.3909 227.092 96.64C226.962 96.6613 226.71 96.6969 226.443 96.6969L226.439 96.7005Z" fill="black"/>
<path d="M217.224 87.9666V96.8747C217.224 99.818 214.562 102.206 211.28 102.206H210.615C207.332 102.206 204.67 99.8215 204.67 96.8747C204.67 95.686 206.224 94.7251 208.144 94.7251V93.5827C208.144 90.4793 212.209 87.9631 217.224 87.9631V87.9666Z" fill="black"/>
<path d="M214.287 92.5293C213.845 91.8851 213.151 91.3513 212.323 91.2018C211.495 91.0488 210.55 91.3442 210.124 91.999C209.601 92.8069 210.396 93.8497 210.992 94.6469C211.313 95.0739 212.112 96.1416 213.439 96.3659C213.857 96.437 214.563 96.4619 214.664 96.2271" fill="white"/>
<path d="M214.031 96.7004C213.763 96.7004 213.512 96.6648 213.382 96.6434C211.917 96.3943 211.049 95.2341 210.724 94.7999L210.696 94.7643C210.075 93.935 209.227 92.8033 209.844 91.8566C210.314 91.1306 211.386 90.7355 212.392 90.9242C213.244 91.0808 214.039 91.6146 214.567 92.3833C214.66 92.5186 214.611 92.693 214.457 92.7748C214.303 92.8567 214.104 92.814 214.011 92.6787C213.573 92.0417 212.936 91.6039 212.258 91.4829C211.524 91.3477 210.745 91.6253 210.408 92.1413C209.99 92.7855 210.684 93.7108 211.24 94.4547L211.268 94.4902C211.58 94.9066 212.311 95.8854 213.508 96.0882C213.909 96.1558 214.279 96.138 214.388 96.0918C214.465 95.9708 214.636 95.9138 214.786 95.9601C214.952 96.0135 215.037 96.1808 214.976 96.3267C214.851 96.6256 214.425 96.7004 214.035 96.7004H214.031Z" fill="black"/>
<path d="M212.356 91.7746V84.1157H227.754V104.943H212.356V91.7746Z" fill="white"/>
<path d="M227.758 105.224H212.36C212.181 105.224 212.035 105.096 212.035 104.939V84.112C212.035 83.9555 212.181 83.8273 212.36 83.8273H227.758C227.936 83.8273 228.082 83.9555 228.082 84.112V104.939C228.082 105.096 227.936 105.224 227.758 105.224ZM212.684 104.654H227.433V84.3968H212.684V104.654Z" fill="black"/>
<path d="M218.368 92.7286C217.946 93.0774 217.471 95.2981 218.015 95.8498C218.612 96.4584 219.829 96.5758 220.543 96.0598C221.237 95.558 221.192 93.0845 221.164 92.6254" fill="white"/>
<path d="M219.435 96.6718C218.811 96.6718 218.178 96.4548 217.768 96.0384C217.11 95.3657 217.577 92.9954 218.145 92.5221L218.591 92.9349C218.267 93.2054 217.857 95.2554 218.259 95.6647C218.754 96.17 219.764 96.2555 220.336 95.8391C220.791 95.5081 220.904 93.6111 220.839 92.6431L221.488 92.6111C221.488 92.6395 221.679 95.6077 220.75 96.2804C220.385 96.5437 219.914 96.6718 219.435 96.6718Z" fill="black"/>
<path d="M219.119 90.6927C219.476 92.191 217.492 94.3798 215.484 94.1058C213.597 93.8495 212.266 91.4935 212.919 90.134C213.491 88.9524 215.394 88.8883 215.613 88.8812C216.96 88.8349 218.823 89.4542 219.119 90.6927Z" fill="white"/>
<path d="M215.832 94.4154C215.699 94.4154 215.565 94.4047 215.435 94.3869C214.473 94.2552 213.585 93.6467 212.992 92.7142C212.408 91.7924 212.266 90.7603 212.619 90.0236C213.224 88.7709 215.053 88.6143 215.597 88.5965C217.204 88.5431 219.115 89.3083 219.431 90.6358C219.634 91.4793 219.192 92.5505 218.307 93.3655C217.573 94.0417 216.689 94.4118 215.824 94.4118L215.832 94.4154ZM215.747 89.1659C215.707 89.1659 215.666 89.1659 215.626 89.1659C215.175 89.1802 213.674 89.3012 213.219 90.2443C212.944 90.8137 213.077 91.675 213.56 92.4366C214.047 93.2018 214.786 93.7214 215.536 93.8246C216.307 93.9278 217.147 93.6182 217.845 92.974C218.575 92.3014 218.961 91.4081 218.802 90.7532C218.551 89.6962 216.908 89.1659 215.747 89.1659Z" fill="black"/>
<path d="M220.795 90.7282C220.365 92.2123 222.239 94.4758 224.256 94.2801C226.155 94.0985 227.599 91.7959 227.015 90.415C226.504 89.2121 224.605 89.0733 224.386 89.0555C223.043 88.9558 221.152 89.5004 220.795 90.7246V90.7282Z" fill="white"/>
<path d="M224.012 94.5755C223.112 94.5755 222.199 94.1662 221.464 93.4259C220.624 92.5753 220.235 91.4863 220.478 90.6535C220.86 89.3402 222.815 88.6534 224.41 88.7708C224.954 88.81 226.775 89.0377 227.315 90.3154C227.636 91.0663 227.441 92.0913 226.808 92.9917C226.171 93.8993 225.254 94.4723 224.288 94.5648C224.195 94.5755 224.102 94.579 224.008 94.579L224.012 94.5755ZM221.111 90.7959C220.925 91.4436 221.261 92.3511 221.959 93.0522C222.625 93.7249 223.448 94.0665 224.223 93.9954C224.978 93.9242 225.741 93.4366 226.264 92.6892C226.784 91.949 226.962 91.0948 226.715 90.5111C226.297 89.5253 224.682 89.3616 224.361 89.3367C223.201 89.2513 221.428 89.7104 221.111 90.7923V90.7959Z" fill="black"/>
<path d="M219.216 91.2869C219.038 91.2869 218.892 91.1588 218.892 91.0022C218.892 90.8456 219.038 90.7175 219.216 90.7175H220.669C220.847 90.7175 220.993 90.842 220.993 90.9986C220.993 91.1552 220.847 91.2833 220.669 91.2833H219.216V91.2869Z" fill="black"/>
<path d="M214.976 90.9028C215.065 90.8281 215.483 90.5007 216.088 90.5327C216.563 90.5576 216.879 90.7854 217.013 90.8886C217.39 91.1698 217.536 91.515 217.585 91.6609" fill="white"/>
<path d="M217.589 91.942C217.451 91.942 217.321 91.8637 217.277 91.7392C217.228 91.5932 217.098 91.3192 216.806 91.1021C216.696 91.0203 216.445 90.8352 216.072 90.8138C215.637 90.7925 215.317 91.0131 215.199 91.1092C215.069 91.216 214.862 91.2089 214.741 91.095C214.619 90.9811 214.627 90.7996 214.757 90.6928C214.935 90.5469 215.414 90.2124 216.108 90.2444C216.7 90.2729 217.082 90.5576 217.228 90.6644C217.63 90.9633 217.816 91.3228 217.901 91.5719C217.954 91.7214 217.857 91.8815 217.686 91.9278C217.654 91.9349 217.621 91.9385 217.593 91.9385L217.589 91.942Z" fill="black"/>
<path d="M222.726 91.056C222.815 90.9813 223.233 90.6539 223.838 90.6859C224.313 90.7108 224.629 90.9386 224.763 91.0418C225.14 91.323 225.286 91.6682 225.335 91.8141" fill="white"/>
<path d="M225.339 92.0988C225.201 92.0988 225.071 92.0205 225.027 91.8959C224.978 91.7535 224.848 91.4759 224.556 91.2588C224.446 91.177 224.195 90.9919 223.822 90.9706C223.387 90.9492 223.067 91.1699 222.949 91.266C222.819 91.3727 222.612 91.3656 222.491 91.2517C222.369 91.1378 222.377 90.9563 222.507 90.8496C222.685 90.7036 223.168 90.3691 223.858 90.4011C224.45 90.4296 224.832 90.7143 224.978 90.8211C225.38 91.12 225.566 91.4795 225.651 91.7286C225.704 91.8781 225.607 92.0383 225.436 92.0845C225.404 92.0916 225.371 92.0952 225.343 92.0952L225.339 92.0988Z" fill="black"/>
<path d="M217.431 97.7145C219.991 98.6541 223.266 97.5152 224.442 95.2731L217.431 97.7145Z" fill="white"/>
<path d="M219.346 98.3268C218.649 98.3268 217.959 98.2129 217.31 97.9744C217.143 97.9139 217.066 97.7467 217.135 97.6007C217.204 97.4548 217.395 97.3872 217.561 97.4477C219.963 98.3303 223.047 97.2555 224.154 95.1486C224.227 95.0063 224.422 94.9422 224.584 95.0098C224.747 95.0774 224.82 95.2447 224.743 95.3871C223.793 97.1915 221.558 98.3232 219.346 98.3232V98.3268Z" fill="black"/>
<path d="M210.619 84.9809C210.817 81.4255 214.684 78.6602 219.415 78.6602C219.659 78.6602 219.902 78.6673 220.149 78.6815C225.124 78.9769 228.95 82.2369 228.674 85.9418L228.354 88.547C228.378 88.8886 228.285 89.1627 228.078 89.362C227.85 89.5755 227.497 89.6858 227.031 89.6858C226.077 89.6858 224.678 89.2374 223.44 88.8388C222.888 88.6609 222.365 88.4936 221.927 88.3797C219.967 87.8708 218.356 85.9632 217.821 84.2477C217.565 84.625 217.35 85.0343 217.127 85.4613C216.246 87.1376 215.248 89.0345 211.219 89.9385L210.83 90.0275L210.627 84.9844L210.619 84.9809Z" fill="black"/>
<path d="M219.415 78.9448C219.65 78.9448 219.886 78.9519 220.125 78.9662C224.929 79.2544 228.609 82.3685 228.345 85.9239L228.021 88.5433C228.074 89.1768 227.668 89.401 227.023 89.401C225.72 89.401 223.444 88.4828 222.008 88.1091C219.861 87.5504 218.214 85.2015 217.975 83.5323C216.242 85.447 216.518 88.4508 211.126 89.6608L210.939 84.9701C211.134 81.5535 214.875 78.9448 219.411 78.9448M219.411 78.3754C214.506 78.3754 210.497 81.2617 210.29 84.9417V84.9915L210.477 89.6822L210.505 90.3904L211.288 90.216C215.463 89.28 216.542 87.2301 217.411 85.5823C217.52 85.3723 217.63 85.1623 217.743 84.963C218.47 86.5717 220.003 88.1839 221.825 88.6572C222.255 88.7675 222.771 88.9348 223.322 89.1128C224.645 89.5363 226.012 89.974 227.027 89.974C227.591 89.974 228.021 89.8352 228.313 89.5612C228.577 89.3085 228.703 88.974 228.678 88.5611L228.995 85.9916V85.9666C229.283 82.1016 225.327 78.7099 220.17 78.4038C219.918 78.3896 219.667 78.3825 219.415 78.3825L219.411 78.3754Z" fill="black"/>
<path d="M219.594 84.276C220.6 86.3794 222.819 87.7318 225.229 87.7069C223.201 88.2585 221.042 87.7069 219.707 86.2513C217.946 84.333 217.861 81.1121 219.776 78.8629C219.638 79.1084 218.316 81.6104 219.594 84.276Z" fill="#EDEDFC"/>
<rect x="202.995" y="104.526" width="34" height="25" rx="10" fill="black"/>
</g>
<circle cx="220.113" cy="92.2809" r="18.8771" stroke="#0C0D0E" stroke-width="0.920834"/>
<g clip-path="url(#clip0_168_30690)">
<path d="M0 13.5279C0 6.24609 5.90307 0.343018 13.1849 0.343018H209.815C217.097 0.343018 223 6.24609 223 13.5279V40.1581C223 47.4399 217.097 53.343 209.815 53.343H0V13.5279Z" fill="#DCDBFF"/>
<path fill-rule="evenodd" clip-rule="evenodd" d="M25.4897 19.4576C25.8867 19.4576 26.2085 19.7794 26.2085 20.1763C26.2085 20.494 26.3347 20.7987 26.5594 21.0234C26.784 21.248 27.0887 21.3742 27.4064 21.3742C27.8034 21.3742 28.1252 21.696 28.1252 22.093C28.1252 22.49 27.8034 22.8117 27.4064 22.8117C27.0887 22.8117 26.784 22.938 26.5594 23.1626C26.3347 23.3873 26.2085 23.692 26.2085 24.0097C26.2085 24.4066 25.8867 24.7284 25.4897 24.7284C25.0928 24.7284 24.771 24.4066 24.771 24.0097C24.771 23.692 24.6448 23.3873 24.4201 23.1626C24.1955 22.938 23.8908 22.8117 23.5731 22.8117C23.1761 22.8117 22.8543 22.49 22.8543 22.093C22.8543 21.696 23.1761 21.3742 23.5731 21.3742C23.8908 21.3742 24.1955 21.248 24.4201 21.0234C24.6448 20.7987 24.771 20.494 24.771 20.1763C24.771 19.7794 25.0928 19.4576 25.4897 19.4576ZM25.4897 21.9851C25.4723 22.0036 25.4546 22.0218 25.4366 22.0399C25.4186 22.0579 25.4004 22.0756 25.3819 22.093C25.4004 22.1104 25.4186 22.1281 25.4366 22.1461C25.4546 22.1641 25.4723 22.1824 25.4897 22.2009C25.5072 22.1824 25.5249 22.1641 25.5429 22.1461C25.5609 22.1281 25.5791 22.1104 25.5976 22.093C25.5791 22.0756 25.5609 22.0579 25.5429 22.0399C25.5249 22.0218 25.5072 22.0036 25.4897 21.9851ZM16.8647 21.3742C17.2617 21.3742 17.5835 21.696 17.5835 22.093C17.5835 23.4274 18.1136 24.7071 19.0571 25.6506C20.0007 26.5942 21.2804 27.1242 22.6147 27.1242C23.0117 27.1242 23.3335 27.446 23.3335 27.843C23.3335 28.24 23.0117 28.5617 22.6147 28.5617C21.2804 28.5617 20.0007 29.0918 19.0571 30.0354C18.1136 30.9789 17.5835 32.2586 17.5835 33.593C17.5835 33.99 17.2617 34.3117 16.8647 34.3117C16.4678 34.3117 16.146 33.99 16.146 33.593C16.146 32.2586 15.6159 30.9789 14.6724 30.0354C13.7288 29.0918 12.4491 28.5617 11.1147 28.5617C10.7178 28.5617 10.396 28.24 10.396 27.843C10.396 27.446 10.7178 27.1242 11.1147 27.1242C12.4491 27.1242 13.7288 26.5942 14.6724 25.6506C15.6159 24.7071 16.146 23.4274 16.146 22.093C16.146 21.696 16.4678 21.3742 16.8647 21.3742ZM25.4897 30.9576C25.8867 30.9576 26.2085 31.2794 26.2085 31.6763C26.2085 31.994 26.3347 32.2987 26.5594 32.5234C26.784 32.748 27.0887 32.8742 27.4064 32.8742C27.8034 32.8742 28.1252 33.196 28.1252 33.593C28.1252 33.99 27.8034 34.3117 27.4064 34.3117C27.0887 34.3117 26.784 34.438 26.5594 34.6626C26.3347 34.8873 26.2085 35.192 26.2085 35.5097C26.2085 35.9066 25.8867 36.2284 25.4897 36.2284C25.0928 36.2284 24.771 35.9066 24.771 35.5097C24.771 35.192 24.6448 34.8873 24.4201 34.6626C24.1955 34.438 23.8908 34.3117 23.5731 34.3117C23.1761 34.3117 22.8543 33.99 22.8543 33.593C22.8543 33.196 23.1761 32.8742 23.5731 32.8742C23.8908 32.8742 24.1955 32.748 24.4201 32.5234C24.6448 32.2987 24.771 31.994 24.771 31.6763C24.771 31.2794 25.0928 30.9576 25.4897 30.9576Z" fill="#0C0D0E"/>
<path d="M37.808 31.843L35.338 22.743H36.729L38.575 30.322L40.694 22.743H42.137L44.191 30.348L46.063 22.743H47.454L44.945 31.843H43.424L41.383 24.602L39.29 31.843H37.808ZM48.6809 31.843V22.483H49.9809V26.357C50.1975 25.9757 50.4965 25.6767 50.8779 25.46C51.2679 25.2434 51.6969 25.135 52.1649 25.135C52.6849 25.135 53.1312 25.2434 53.5039 25.46C53.8765 25.668 54.1625 25.9844 54.3619 26.409C54.5612 26.825 54.6609 27.3494 54.6609 27.982V31.843H53.3739V28.125C53.3739 27.5097 53.2439 27.046 52.9839 26.734C52.7239 26.4134 52.3382 26.253 51.8269 26.253C51.4802 26.253 51.1682 26.3354 50.8909 26.5C50.6135 26.6647 50.3925 26.9074 50.2279 27.228C50.0632 27.54 49.9809 27.9214 49.9809 28.372V31.843H48.6809ZM58.4945 31.999C57.9571 31.999 57.5108 31.908 57.1555 31.726C56.8001 31.544 56.5358 31.3014 56.3625 30.998C56.1891 30.686 56.1025 30.3524 56.1025 29.997C56.1025 29.5637 56.2151 29.1954 56.4405 28.892C56.6658 28.58 56.9865 28.3417 57.4025 28.177C57.8185 28.0124 58.3168 27.93 58.8975 27.93H60.6005C60.6005 27.5487 60.5441 27.2324 60.4315 26.981C60.3188 26.7297 60.1498 26.5434 59.9245 26.422C59.7078 26.292 59.4305 26.227 59.0925 26.227C58.7025 26.227 58.3688 26.3224 58.0915 26.513C57.8141 26.695 57.6408 26.968 57.5715 27.332H56.2715C56.3235 26.8727 56.4795 26.4827 56.7395 26.162C57.0081 25.8327 57.3505 25.5814 57.7665 25.408C58.1825 25.226 58.6245 25.135 59.0925 25.135C59.7078 25.135 60.2235 25.2434 60.6395 25.46C61.0555 25.6767 61.3675 25.9844 61.5755 26.383C61.7921 26.773 61.9005 27.241 61.9005 27.787V31.843H60.7695L60.6655 30.738C60.5701 30.9114 60.4575 31.076 60.3275 31.232C60.1975 31.388 60.0415 31.5224 59.8595 31.635C59.6861 31.7477 59.4825 31.8344 59.2485 31.895C59.0231 31.9644 58.7718 31.999 58.4945 31.999ZM58.7415 30.946C59.0188 30.946 59.2701 30.8897 59.4955 30.777C59.7208 30.6644 59.9115 30.5127 60.0675 30.322C60.2321 30.1227 60.3535 29.9017 60.4315 29.659C60.5181 29.4077 60.5658 29.152 60.5745 28.892V28.853H59.0275C58.6548 28.853 58.3515 28.9007 58.1175 28.996C57.8921 29.0827 57.7275 29.204 57.6235 29.36C57.5195 29.516 57.4675 29.698 57.4675 29.906C57.4675 30.1227 57.5151 30.309 57.6105 30.465C57.7145 30.6124 57.8618 30.7294 58.0525 30.816C58.2431 30.9027 58.4728 30.946 58.7415 30.946ZM66.1111 31.843C65.7038 31.843 65.3485 31.778 65.0451 31.648C64.7418 31.518 64.5078 31.3014 64.3431 30.998C64.1785 30.6947 64.0961 30.283 64.0961 29.763V26.396H62.9651V25.291H64.0961L64.2521 23.653H65.3961V25.291H67.2551V26.396H65.3961V29.776C65.3961 30.1487 65.4741 30.4044 65.6301 30.543C65.7861 30.673 66.0548 30.738 66.4361 30.738H67.1901V31.843H66.1111ZM70.3267 22.743L69.1047 25.837H68.1947L68.9097 22.743H70.3267ZM73.5342 31.999C72.9796 31.999 72.4942 31.908 72.0782 31.726C71.6622 31.544 71.3329 31.2884 71.0902 30.959C70.8476 30.6297 70.7002 30.244 70.6482 29.802H71.9742C72.0176 30.01 72.0999 30.2007 72.2212 30.374C72.3512 30.5474 72.5246 30.686 72.7412 30.79C72.9666 30.894 73.2309 30.946 73.5342 30.946C73.8202 30.946 74.0542 30.907 74.2362 30.829C74.4269 30.7424 74.5656 30.6297 74.6522 30.491C74.7389 30.3437 74.7822 30.1877 74.7822 30.023C74.7822 29.7804 74.7216 29.5984 74.6002 29.477C74.4876 29.347 74.3142 29.2474 74.0802 29.178C73.8549 29.1 73.5819 29.0307 73.2612 28.97C72.9579 28.918 72.6632 28.8487 72.3772 28.762C72.0999 28.6667 71.8486 28.5497 71.6232 28.411C71.4066 28.2724 71.2332 28.099 71.1032 27.891C70.9732 27.6744 70.9082 27.41 70.9082 27.098C70.9082 26.7254 71.0079 26.3917 71.2072 26.097C71.4066 25.7937 71.6882 25.5597 72.0522 25.395C72.4249 25.2217 72.8626 25.135 73.3652 25.135C74.0932 25.135 74.6782 25.3084 75.1202 25.655C75.5622 26.0017 75.8222 26.4914 75.9002 27.124H74.6392C74.6046 26.8294 74.4746 26.604 74.2492 26.448C74.0239 26.2834 73.7249 26.201 73.3522 26.201C72.9796 26.201 72.6936 26.2747 72.4942 26.422C72.2949 26.5694 72.1952 26.7644 72.1952 27.007C72.1952 27.163 72.2516 27.3017 72.3642 27.423C72.4769 27.5444 72.6416 27.6484 72.8582 27.735C73.0836 27.813 73.3566 27.8867 73.6772 27.956C74.1366 28.0427 74.5482 28.151 74.9122 28.281C75.2762 28.411 75.5666 28.6017 75.7832 28.853C75.9999 29.1044 76.1082 29.464 76.1082 29.932C76.1169 30.3394 76.0129 30.699 75.7962 31.011C75.5882 31.323 75.2892 31.5657 74.8992 31.739C74.5179 31.9124 74.0629 31.999 73.5342 31.999ZM83.6561 31.843C83.2487 31.843 82.8934 31.778 82.5901 31.648C82.2867 31.518 82.0527 31.3014 81.8881 30.998C81.7234 30.6947 81.6411 30.283 81.6411 29.763V26.396H80.5101V25.291H81.6411L81.7971 23.653H82.9411V25.291H84.8001V26.396H82.9411V29.776C82.9411 30.1487 83.0191 30.4044 83.1751 30.543C83.3311 30.673 83.5997 30.738 83.9811 30.738H84.7351V31.843H83.6561ZM86.2336 31.843V22.483H87.5336V26.357C87.7503 25.9757 88.0493 25.6767 88.4306 25.46C88.8206 25.2434 89.2496 25.135 89.7176 25.135C90.2376 25.135 90.6839 25.2434 91.0566 25.46C91.4293 25.668 91.7153 25.9844 91.9146 26.409C92.1139 26.825 92.2136 27.3494 92.2136 27.982V31.843H90.9266V28.125C90.9266 27.5097 90.7966 27.046 90.5366 26.734C90.2766 26.4134 89.8909 26.253 89.3796 26.253C89.0329 26.253 88.7209 26.3354 88.4436 26.5C88.1663 26.6647 87.9453 26.9074 87.7806 27.228C87.6159 27.54 87.5336 27.9214 87.5336 28.372V31.843H86.2336ZM96.8402 31.999C96.2162 31.999 95.6615 31.856 95.1762 31.57C94.6909 31.284 94.3095 30.8854 94.0322 30.374C93.7635 29.8627 93.6292 29.269 93.6292 28.593C93.6292 27.8997 93.7635 27.2974 94.0322 26.786C94.3095 26.266 94.6909 25.863 95.1762 25.577C95.6615 25.2824 96.2249 25.135 96.8662 25.135C97.5075 25.135 98.0579 25.278 98.5172 25.564C98.9765 25.85 99.3319 26.2314 99.5832 26.708C99.8345 27.176 99.9602 27.696 99.9602 28.268C99.9602 28.3547 99.9559 28.45 99.9472 28.554C99.9472 28.6494 99.9429 28.7577 99.9342 28.879H94.5782V27.956H98.6602C98.6342 27.41 98.4522 26.9854 98.1142 26.682C97.7762 26.37 97.3559 26.214 96.8532 26.214C96.4979 26.214 96.1729 26.2964 95.8782 26.461C95.5835 26.617 95.3452 26.851 95.1632 27.163C94.9899 27.4664 94.9032 27.852 94.9032 28.32V28.684C94.9032 29.1694 94.9899 29.581 95.1632 29.919C95.3452 30.2484 95.5835 30.4997 95.8782 30.673C96.1729 30.8377 96.4935 30.92 96.8402 30.92C97.2562 30.92 97.5985 30.829 97.8672 30.647C98.1359 30.465 98.3352 30.218 98.4652 29.906H99.7652C99.6525 30.3047 99.4619 30.6644 99.1932 30.985C98.9245 31.297 98.5909 31.544 98.1922 31.726C97.8022 31.908 97.3515 31.999 96.8402 31.999ZM104.731 31.843V25.291H105.901L105.979 26.409C106.187 26.019 106.481 25.7114 106.863 25.486C107.244 25.252 107.682 25.135 108.176 25.135C108.696 25.135 109.142 25.239 109.515 25.447C109.887 25.655 110.178 25.9714 110.386 26.396C110.594 26.812 110.698 27.3364 110.698 27.969V31.843H109.398V28.099C109.398 27.4924 109.263 27.033 108.995 26.721C108.726 26.409 108.336 26.253 107.825 26.253C107.487 26.253 107.183 26.3354 106.915 26.5C106.646 26.656 106.429 26.89 106.265 27.202C106.109 27.514 106.031 27.8954 106.031 28.346V31.843H104.731ZM114.532 31.999C113.994 31.999 113.548 31.908 113.193 31.726C112.837 31.544 112.573 31.3014 112.4 30.998C112.226 30.686 112.14 30.3524 112.14 29.997C112.14 29.5637 112.252 29.1954 112.478 28.892C112.703 28.58 113.024 28.3417 113.44 28.177C113.856 28.0124 114.354 27.93 114.935 27.93H116.638C116.638 27.5487 116.581 27.2324 116.469 26.981C116.356 26.7297 116.187 26.5434 115.962 26.422C115.745 26.292 115.468 26.227 115.13 26.227C114.74 26.227 114.406 26.3224 114.129 26.513C113.851 26.695 113.678 26.968 113.609 27.332H112.309C112.361 26.8727 112.517 26.4827 112.777 26.162C113.045 25.8327 113.388 25.5814 113.804 25.408C114.22 25.226 114.662 25.135 115.13 25.135C115.745 25.135 116.261 25.2434 116.677 25.46C117.093 25.6767 117.405 25.9844 117.613 26.383C117.829 26.773 117.938 27.241 117.938 27.787V31.843H116.807L116.703 30.738C116.607 30.9114 116.495 31.076 116.365 31.232C116.235 31.388 116.079 31.5224 115.897 31.635C115.723 31.7477 115.52 31.8344 115.286 31.895C115.06 31.9644 114.809 31.999 114.532 31.999ZM114.779 30.946C115.056 30.946 115.307 30.8897 115.533 30.777C115.758 30.6644 115.949 30.5127 116.105 30.322C116.269 30.1227 116.391 29.9017 116.469 29.659C116.555 29.4077 116.603 29.152 116.612 28.892V28.853H115.065C114.692 28.853 114.389 28.9007 114.155 28.996C113.929 29.0827 113.765 29.204 113.661 29.36C113.557 29.516 113.505 29.698 113.505 29.906C113.505 30.1227 113.552 30.309 113.648 30.465C113.752 30.6124 113.899 30.7294 114.09 30.816C114.28 30.9027 114.51 30.946 114.779 30.946ZM119.597 31.843V25.291H120.767L120.858 26.214C121.066 25.876 121.343 25.6117 121.69 25.421C122.037 25.2304 122.427 25.135 122.86 25.135C123.189 25.135 123.488 25.1827 123.757 25.278C124.026 25.3647 124.264 25.499 124.472 25.681C124.68 25.863 124.849 26.0884 124.979 26.357C125.213 25.9757 125.525 25.6767 125.915 25.46C126.314 25.2434 126.734 25.135 127.176 25.135C127.705 25.135 128.16 25.2434 128.541 25.46C128.922 25.668 129.213 25.9844 129.412 26.409C129.611 26.825 129.711 27.345 129.711 27.969V31.843H128.424V28.099C128.424 27.4924 128.298 27.033 128.047 26.721C127.804 26.409 127.445 26.253 126.968 26.253C126.647 26.253 126.361 26.3354 126.11 26.5C125.859 26.6647 125.659 26.903 125.512 27.215C125.373 27.527 125.304 27.9084 125.304 28.359V31.843H124.004V28.099C124.004 27.4924 123.878 27.033 123.627 26.721C123.384 26.409 123.025 26.253 122.548 26.253C122.245 26.253 121.967 26.3354 121.716 26.5C121.465 26.6647 121.265 26.903 121.118 27.215C120.971 27.527 120.897 27.9084 120.897 28.359V31.843H119.597ZM134.355 31.999C133.731 31.999 133.176 31.856 132.691 31.57C132.206 31.284 131.824 30.8854 131.547 30.374C131.278 29.8627 131.144 29.269 131.144 28.593C131.144 27.8997 131.278 27.2974 131.547 26.786C131.824 26.266 132.206 25.863 132.691 25.577C133.176 25.2824 133.74 25.135 134.381 25.135C135.022 25.135 135.573 25.278 136.032 25.564C136.491 25.85 136.847 26.2314 137.098 26.708C137.349 27.176 137.475 27.696 137.475 28.268C137.475 28.3547 137.471 28.45 137.462 28.554C137.462 28.6494 137.458 28.7577 137.449 28.879H132.093V27.956H136.175C136.149 27.41 135.967 26.9854 135.629 26.682C135.291 26.37 134.871 26.214 134.368 26.214C134.013 26.214 133.688 26.2964 133.393 26.461C133.098 26.617 132.86 26.851 132.678 27.163C132.505 27.4664 132.418 27.852 132.418 28.32V28.684C132.418 29.1694 132.505 29.581 132.678 29.919C132.86 30.2484 133.098 30.4997 133.393 30.673C133.688 30.8377 134.008 30.92 134.355 30.92C134.771 30.92 135.113 30.829 135.382 30.647C135.651 30.465 135.85 30.218 135.98 29.906H137.28C137.167 30.3047 136.977 30.6644 136.708 30.985C136.439 31.297 136.106 31.544 135.707 31.726C135.317 31.908 134.866 31.999 134.355 31.999ZM145.235 31.999C144.62 31.999 144.065 31.856 143.571 31.57C143.086 31.284 142.7 30.8854 142.414 30.374C142.137 29.854 141.998 29.256 141.998 28.58C141.998 27.8867 142.141 27.2844 142.427 26.773C142.713 26.253 143.103 25.85 143.597 25.564C144.091 25.278 144.646 25.135 145.261 25.135C145.885 25.135 146.44 25.278 146.925 25.564C147.411 25.85 147.792 26.2487 148.069 26.76C148.355 27.2714 148.498 27.8737 148.498 28.567C148.498 29.2604 148.355 29.8627 148.069 30.374C147.792 30.8854 147.406 31.284 146.912 31.57C146.418 31.856 145.859 31.999 145.235 31.999ZM145.235 30.881C145.591 30.881 145.911 30.7944 146.197 30.621C146.492 30.4477 146.726 30.192 146.899 29.854C147.081 29.5074 147.172 29.0784 147.172 28.567C147.172 28.0557 147.086 27.631 146.912 27.293C146.739 26.9464 146.505 26.6864 146.21 26.513C145.924 26.3397 145.608 26.253 145.261 26.253C144.915 26.253 144.594 26.3397 144.299 26.513C144.005 26.6864 143.766 26.9464 143.584 27.293C143.411 27.631 143.324 28.0557 143.324 28.567C143.324 29.0784 143.411 29.5074 143.584 29.854C143.766 30.192 144 30.4477 144.286 30.621C144.581 30.7944 144.897 30.881 145.235 30.881ZM150.379 31.843V24.407C150.379 23.9564 150.452 23.588 150.6 23.302C150.756 23.016 150.981 22.808 151.276 22.678C151.57 22.548 151.926 22.483 152.342 22.483H153.109V23.588H152.55C152.238 23.588 152.012 23.653 151.874 23.783C151.744 23.9044 151.679 24.121 151.679 24.433V31.843H150.379ZM149.417 26.396V25.291H153.252V26.396H149.417ZM160.59 31.843C160.182 31.843 159.827 31.778 159.524 31.648C159.22 31.518 158.986 31.3014 158.822 30.998C158.657 30.6947 158.575 30.283 158.575 29.763V26.396H157.444V25.291H158.575L158.731 23.653H159.875V25.291H161.734V26.396H159.875V29.776C159.875 30.1487 159.953 30.4044 160.109 30.543C160.265 30.673 160.533 30.738 160.915 30.738H161.669V31.843H160.59ZM163.167 31.843V22.483H164.467V26.357C164.684 25.9757 164.983 25.6767 165.364 25.46C165.754 25.2434 166.183 25.135 166.651 25.135C167.171 25.135 167.618 25.2434 167.99 25.46C168.363 25.668 168.649 25.9844 168.848 26.409C169.048 26.825 169.147 27.3494 169.147 27.982V31.843H167.86V28.125C167.86 27.5097 167.73 27.046 167.47 26.734C167.21 26.4134 166.825 26.253 166.313 26.253C165.967 26.253 165.655 26.3354 165.377 26.5C165.1 26.6647 164.879 26.9074 164.714 27.228C164.55 27.54 164.467 27.9214 164.467 28.372V31.843H163.167ZM173.774 31.999C173.15 31.999 172.595 31.856 172.11 31.57C171.624 31.284 171.243 30.8854 170.966 30.374C170.697 29.8627 170.563 29.269 170.563 28.593C170.563 27.8997 170.697 27.2974 170.966 26.786C171.243 26.266 171.624 25.863 172.11 25.577C172.595 25.2824 173.158 25.135 173.8 25.135C174.441 25.135 174.991 25.278 175.451 25.564C175.91 25.85 176.265 26.2314 176.517 26.708C176.768 27.176 176.894 27.696 176.894 28.268C176.894 28.3547 176.889 28.45 176.881 28.554C176.881 28.6494 176.876 28.7577 176.868 28.879H171.512V27.956H175.594C175.568 27.41 175.386 26.9854 175.048 26.682C174.71 26.37 174.289 26.214 173.787 26.214C173.431 26.214 173.106 26.2964 172.812 26.461C172.517 26.617 172.279 26.851 172.097 27.163C171.923 27.4664 171.837 27.852 171.837 28.32V28.684C171.837 29.1694 171.923 29.581 172.097 29.919C172.279 30.2484 172.517 30.4997 172.812 30.673C173.106 30.8377 173.427 30.92 173.774 30.92C174.19 30.92 174.532 30.829 174.801 30.647C175.069 30.465 175.269 30.218 175.399 29.906H176.699C176.586 30.3047 176.395 30.6644 176.127 30.985C175.858 31.297 175.524 31.544 175.126 31.726C174.736 31.908 174.285 31.999 173.774 31.999ZM184.199 31.999C183.645 31.999 183.159 31.908 182.743 31.726C182.327 31.544 181.998 31.2884 181.755 30.959C181.513 30.6297 181.365 30.244 181.313 29.802H182.639C182.683 30.01 182.765 30.2007 182.886 30.374C183.016 30.5474 183.19 30.686 183.406 30.79C183.632 30.894 183.896 30.946 184.199 30.946C184.485 30.946 184.719 30.907 184.901 30.829C185.092 30.7424 185.231 30.6297 185.317 30.491C185.404 30.3437 185.447 30.1877 185.447 30.023C185.447 29.7804 185.387 29.5984 185.265 29.477C185.153 29.347 184.979 29.2474 184.745 29.178C184.52 29.1 184.247 29.0307 183.926 28.97C183.623 28.918 183.328 28.8487 183.042 28.762C182.765 28.6667 182.514 28.5497 182.288 28.411C182.072 28.2724 181.898 28.099 181.768 27.891C181.638 27.6744 181.573 27.41 181.573 27.098C181.573 26.7254 181.673 26.3917 181.872 26.097C182.072 25.7937 182.353 25.5597 182.717 25.395C183.09 25.2217 183.528 25.135 184.03 25.135C184.758 25.135 185.343 25.3084 185.785 25.655C186.227 26.0017 186.487 26.4914 186.565 27.124H185.304C185.27 26.8294 185.14 26.604 184.914 26.448C184.689 26.2834 184.39 26.201 184.017 26.201C183.645 26.201 183.359 26.2747 183.159 26.422C182.96 26.5694 182.86 26.7644 182.86 27.007C182.86 27.163 182.917 27.3017 183.029 27.423C183.142 27.5444 183.307 27.6484 183.523 27.735C183.749 27.813 184.022 27.8867 184.342 27.956C184.802 28.0427 185.213 28.151 185.577 28.281C185.941 28.411 186.232 28.6017 186.448 28.853C186.665 29.1044 186.773 29.464 186.773 29.932C186.782 30.3394 186.678 30.699 186.461 31.011C186.253 31.323 185.954 31.5657 185.564 31.739C185.183 31.9124 184.728 31.999 184.199 31.999ZM188.395 31.843V25.291H189.695V31.843H188.395ZM189.058 24.056C188.807 24.056 188.599 23.978 188.434 23.822C188.278 23.666 188.2 23.4667 188.2 23.224C188.2 22.99 188.278 22.7994 188.434 22.652C188.599 22.496 188.807 22.418 189.058 22.418C189.301 22.418 189.504 22.496 189.669 22.652C189.834 22.7994 189.916 22.99 189.916 23.224C189.916 23.4667 189.834 23.666 189.669 23.822C189.504 23.978 189.301 24.056 189.058 24.056ZM194.245 31.843C193.838 31.843 193.482 31.778 193.179 31.648C192.876 31.518 192.642 31.3014 192.477 30.998C192.312 30.6947 192.23 30.283 192.23 29.763V26.396H191.099V25.291H192.23L192.386 23.653H193.53V25.291H195.389V26.396H193.53V29.776C193.53 30.1487 193.608 30.4044 193.764 30.543C193.92 30.673 194.189 30.738 194.57 30.738H195.324V31.843H194.245ZM199.609 31.999C198.985 31.999 198.43 31.856 197.945 31.57C197.459 31.284 197.078 30.8854 196.801 30.374C196.532 29.8627 196.398 29.269 196.398 28.593C196.398 27.8997 196.532 27.2974 196.801 26.786C197.078 26.266 197.459 25.863 197.945 25.577C198.43 25.2824 198.993 25.135 199.635 25.135C200.276 25.135 200.826 25.278 201.286 25.564C201.745 25.85 202.1 26.2314 202.352 26.708C202.603 27.176 202.729 27.696 202.729 28.268C202.729 28.3547 202.724 28.45 202.716 28.554C202.716 28.6494 202.711 28.7577 202.703 28.879H197.347V27.956H201.429C201.403 27.41 201.221 26.9854 200.883 26.682C200.545 26.37 200.124 26.214 199.622 26.214C199.266 26.214 198.941 26.2964 198.647 26.461C198.352 26.617 198.114 26.851 197.932 27.163C197.758 27.4664 197.672 27.852 197.672 28.32V28.684C197.672 29.1694 197.758 29.581 197.932 29.919C198.114 30.2484 198.352 30.4997 198.647 30.673C198.941 30.8377 199.262 30.92 199.609 30.92C200.025 30.92 200.367 30.829 200.636 30.647C200.904 30.465 201.104 30.218 201.234 29.906H202.534C202.421 30.3047 202.23 30.6644 201.962 30.985C201.693 31.297 201.359 31.544 200.961 31.726C200.571 31.908 200.12 31.999 199.609 31.999ZM205.024 29.126L204.972 27.072H205.44C205.795 27.072 206.129 27.0504 206.441 27.007C206.762 26.9637 207.043 26.8814 207.286 26.76C207.529 26.63 207.719 26.448 207.858 26.214C208.005 25.9714 208.079 25.6594 208.079 25.278C208.079 24.94 208.01 24.654 207.871 24.42C207.732 24.1774 207.533 23.9954 207.273 23.874C207.022 23.744 206.731 23.679 206.402 23.679C206.064 23.679 205.765 23.744 205.505 23.874C205.254 23.9954 205.059 24.173 204.92 24.407C204.781 24.6324 204.712 24.9054 204.712 25.226H203.477C203.477 24.706 203.598 24.2467 203.841 23.848C204.084 23.4494 204.426 23.1417 204.868 22.925C205.31 22.6997 205.821 22.587 206.402 22.587C206.974 22.587 207.481 22.6954 207.923 22.912C208.365 23.1287 208.712 23.4364 208.963 23.835C209.214 24.2337 209.34 24.7147 209.34 25.278C209.34 25.902 209.206 26.4134 208.937 26.812C208.668 27.202 208.296 27.4924 207.819 27.683C207.351 27.865 206.809 27.956 206.194 27.956L206.155 29.126H205.024ZM205.596 31.908C205.345 31.908 205.137 31.83 204.972 31.674C204.816 31.5094 204.738 31.3144 204.738 31.089C204.738 30.855 204.816 30.66 204.972 30.504C205.137 30.3394 205.345 30.257 205.596 30.257C205.847 30.257 206.051 30.3394 206.207 30.504C206.363 30.66 206.441 30.855 206.441 31.089C206.441 31.3144 206.363 31.5094 206.207 31.674C206.051 31.83 205.847 31.908 205.596 31.908Z" fill="black"/>
</g>
<path d="M13.1846 1.06274H209.815C216.699 1.06291 222.28 6.64367 222.28 13.5276V40.1584C222.28 47.0424 216.699 52.6231 209.815 52.6233H0.719727V13.5276C0.719894 6.64367 6.30065 1.06291 13.1846 1.06274Z" stroke="#0C0D0E" stroke-width="1.44"/>
<defs>
<clipPath id="clip0_168_30690">
<path d="M0 13.5279C0 6.24609 5.90307 0.343018 13.1849 0.343018H209.815C217.097 0.343018 223 6.24609 223 13.5279V40.1581C223 47.4399 217.097 53.343 209.815 53.343H0V13.5279Z" fill="white"/>
</clipPath>
</defs>
</svg>
