<svg width="16" height="16" viewBox="0 0 16 16" fill="none" xmlns="http://www.w3.org/2000/svg">
<path fill-rule="evenodd" clip-rule="evenodd" d="M12.1869 4.18705C12.3822 3.99179 12.3822 3.6752 12.1869 3.47994C11.9917 3.28468 11.6751 3.28468 11.4798 3.47994L7.83337 7.12639L4.18693 3.47994C3.99167 3.28468 3.67508 3.28468 3.47982 3.47994C3.28456 3.6752 3.28456 3.99179 3.47982 4.18705L7.12627 7.8335L3.47982 11.4799C3.28456 11.6752 3.28456 11.9918 3.47982 12.187C3.67508 12.3823 3.99167 12.3823 4.18693 12.187L7.83337 8.5406L11.4798 12.187C11.6751 12.3823 11.9917 12.3823 12.1869 12.187C12.3822 11.9918 12.3822 11.6752 12.1869 11.4799L8.54048 7.8335L12.1869 4.18705Z" fill="black" fill-opacity="0.54"/>
</svg>
