
<svg width="187" height="180" viewBox="0 0 187 180" fill="none" xmlns="http://www.w3.org/2000/svg">
<rect x="0.0273438" y="0.998047" width="186.487" height="178.379" fill="#FDFDFD"/>
<mask id="mask0_283_30711" style="mask-type:alpha" maskUnits="userSpaceOnUse" x="0" y="0" width="187" height="180">
<rect x="0.0273438" y="0.998047" width="186.487" height="178.379" fill="white"/>
</mask>
<g mask="url(#mask0_283_30711)">
<mask id="mask1_283_30711" style="mask-type:alpha" maskUnits="userSpaceOnUse" x="71" y="35" width="44" height="25">
<path fill-rule="evenodd" clip-rule="evenodd" d="M71.9219 35.6465H114.895V59.9709H71.9219V35.6465Z" fill="white"/>
</mask>
<g mask="url(#mask1_283_30711)">
<rect x="71.1875" y="33.52" width="45.4287" height="29.6572" fill="#E6E9EC"/>
<mask id="mask2_283_30711" style="mask-type:alpha" maskUnits="userSpaceOnUse" x="71" y="33" width="46" height="31">
<rect x="71.1875" y="33.52" width="45.4287" height="29.6572" fill="white"/>
</mask>
<g mask="url(#mask2_283_30711)">
<path d="M123.906 65.839C123.906 65.839 112.005 43.206 102.999 41.368C93.9934 39.53 90.466 57.3383 85.0767 54.9764C84.0756 54.5377 78.5571 48.2733 74.1015 50.0308C70.8968 51.2949 64.0663 65.9218 64.0663 65.9218H123.906V65.839Z" fill="#F8F9FA"/>
<path d="M84.5399 48.5701C85.5759 48.5701 86.4158 47.7406 86.4158 46.7173C86.4158 45.694 85.5759 44.8645 84.5399 44.8645C83.5039 44.8645 82.6641 45.694 82.6641 46.7173C82.6641 47.7406 83.5039 48.5701 84.5399 48.5701Z" fill="#F8F9FA"/>
</g>
</g>
<rect x="71.9219" y="63.2407" width="30.8109" height="1.62163" rx="0.810813" fill="#D5DADF"/>
<rect x="71.9219" y="79.457" width="25.946" height="1.62163" rx="0.810813" fill="#D5DADF"/>
<rect x="71.9219" y="71.3489" width="38.1082" height="1.62163" rx="0.810813" fill="#D5DADF"/>
<rect x="71.9219" y="67.2947" width="42.9731" height="1.62163" rx="0.810813" fill="#D5DADF"/>
<rect x="71.9219" y="75.4028" width="42.9731" height="1.62163" rx="0.810813" fill="#D5DADF"/>
<mask id="mask3_283_30711" style="mask-type:alpha" maskUnits="userSpaceOnUse" x="71" y="93" width="44" height="25">
<path fill-rule="evenodd" clip-rule="evenodd" d="M71.9219 93.6465H114.895V117.971H71.9219V93.6465Z" fill="white"/>
</mask>
<g mask="url(#mask3_283_30711)">
<rect x="71.1875" y="91.52" width="45.4287" height="29.6572" fill="#E6E9EC"/>
<mask id="mask4_283_30711" style="mask-type:alpha" maskUnits="userSpaceOnUse" x="71" y="91" width="46" height="31">
<rect x="71.1875" y="91.52" width="45.4287" height="29.6572" fill="white"/>
</mask>
<g mask="url(#mask4_283_30711)">
<path d="M123.906 123.839C123.906 123.839 112.005 101.206 102.999 99.368C93.9934 97.53 90.466 115.338 85.0767 112.976C84.0756 112.538 78.5571 106.273 74.1015 108.031C70.8968 109.295 64.0663 123.922 64.0663 123.922H123.906V123.839Z" fill="#F8F9FA"/>
<path d="M84.5399 106.57C85.5759 106.57 86.4158 105.741 86.4158 104.717C86.4158 103.694 85.5759 102.865 84.5399 102.865C83.5039 102.865 82.6641 103.694 82.6641 104.717C82.6641 105.741 83.5039 106.57 84.5399 106.57Z" fill="#F8F9FA"/>
</g>
</g>
<rect x="71.9219" y="121.241" width="30.8109" height="1.62163" rx="0.810813" fill="#D5DADF"/>
<rect x="71.9219" y="137.457" width="25.946" height="1.62163" rx="0.810813" fill="#D5DADF"/>
<rect x="71.9219" y="129.349" width="38.1082" height="1.62163" rx="0.810813" fill="#D5DADF"/>
<rect x="71.9219" y="125.295" width="42.9731" height="1.62163" rx="0.810813" fill="#D5DADF"/>
<rect x="71.9219" y="133.403" width="42.9731" height="1.62163" rx="0.810813" fill="#D5DADF"/>
<mask id="mask5_283_30711" style="mask-type:alpha" maskUnits="userSpaceOnUse" x="71" y="147" width="44" height="25">
<path fill-rule="evenodd" clip-rule="evenodd" d="M71.9219 147.646H114.895V171.971H71.9219V147.646Z" fill="white"/>
</mask>
<g mask="url(#mask5_283_30711)">
<rect x="71.1875" y="145.52" width="45.4287" height="29.6572" fill="#E6E9EC"/>
<mask id="mask6_283_30711" style="mask-type:alpha" maskUnits="userSpaceOnUse" x="71" y="145" width="46" height="31">
<rect x="71.1875" y="145.52" width="45.4287" height="29.6572" fill="white"/>
</mask>
<g mask="url(#mask6_283_30711)">
<path d="M123.906 177.839C123.906 177.839 112.005 155.206 102.999 153.368C93.9934 151.53 90.466 169.338 85.0767 166.976C84.0756 166.538 78.5571 160.273 74.1015 162.031C70.8968 163.295 64.0663 177.922 64.0663 177.922H123.906V177.839Z" fill="#F8F9FA"/>
<path d="M84.5399 160.57C85.5759 160.57 86.4158 159.741 86.4158 158.717C86.4158 157.694 85.5759 156.865 84.5399 156.865C83.5039 156.865 82.6641 157.694 82.6641 158.717C82.6641 159.741 83.5039 160.57 84.5399 160.57Z" fill="#F8F9FA"/>
</g>
</g>
<rect x="71.9219" y="175.241" width="30.8109" height="1.62163" rx="0.810813" fill="#D5DADF"/>
<rect x="71.9219" y="179.295" width="42.9731" height="1.62163" rx="0.810813" fill="#D5DADF"/>
<mask id="mask7_283_30711" style="mask-type:alpha" maskUnits="userSpaceOnUse" x="19" y="93" width="44" height="25">
<path fill-rule="evenodd" clip-rule="evenodd" d="M19.9219 93.6465H62.895V117.971H19.9219V93.6465Z" fill="white"/>
</mask>
<g mask="url(#mask7_283_30711)">
<rect x="19.1875" y="91.52" width="45.4287" height="29.6572" fill="#E6E9EC"/>
<mask id="mask8_283_30711" style="mask-type:alpha" maskUnits="userSpaceOnUse" x="19" y="91" width="46" height="31">
<rect x="19.1875" y="91.52" width="45.4287" height="29.6572" fill="white"/>
</mask>
<g mask="url(#mask8_283_30711)">
<path d="M71.9062 123.839C71.9062 123.839 60.0055 101.206 50.9994 99.368C41.9934 97.53 38.466 115.338 33.0767 112.976C32.0756 112.538 26.5571 106.273 22.1015 108.031C18.8968 109.295 12.0663 123.922 12.0663 123.922H71.9062V123.839Z" fill="#F8F9FA"/>
<path d="M32.5399 106.57C33.5759 106.57 34.4158 105.741 34.4158 104.717C34.4158 103.694 33.5759 102.865 32.5399 102.865C31.5039 102.865 30.6641 103.694 30.6641 104.717C30.6641 105.741 31.5039 106.57 32.5399 106.57Z" fill="#F8F9FA"/>
</g>
</g>
<rect x="19.9219" y="121.241" width="30.8109" height="1.62163" rx="0.810813" fill="#D5DADF"/>
<rect x="19.9219" y="137.457" width="25.946" height="1.62163" rx="0.810813" fill="#D5DADF"/>
<rect x="19.9219" y="129.349" width="38.1082" height="1.62163" rx="0.810813" fill="#D5DADF"/>
<rect x="19.9219" y="125.295" width="42.9731" height="1.62163" rx="0.810813" fill="#D5DADF"/>
<rect x="19.9219" y="133.403" width="42.9731" height="1.62163" rx="0.810813" fill="#D5DADF"/>
<mask id="mask9_283_30711" style="mask-type:alpha" maskUnits="userSpaceOnUse" x="19" y="147" width="44" height="25">
<path fill-rule="evenodd" clip-rule="evenodd" d="M19.9219 147.646H62.895V171.971H19.9219V147.646Z" fill="white"/>
</mask>
<g mask="url(#mask9_283_30711)">
<rect x="19.1875" y="145.52" width="45.4287" height="29.6572" fill="#E6E9EC"/>
<mask id="mask10_283_30711" style="mask-type:alpha" maskUnits="userSpaceOnUse" x="19" y="145" width="46" height="31">
<rect x="19.1875" y="145.52" width="45.4287" height="29.6572" fill="white"/>
</mask>
<g mask="url(#mask10_283_30711)">
<path d="M71.9062 177.839C71.9062 177.839 60.0055 155.206 50.9994 153.368C41.9934 151.53 38.466 169.338 33.0767 166.976C32.0756 166.538 26.5571 160.273 22.1015 162.031C18.8968 163.295 12.0663 177.922 12.0663 177.922H71.9062V177.839Z" fill="#F8F9FA"/>
<path d="M32.5399 160.57C33.5759 160.57 34.4158 159.741 34.4158 158.717C34.4158 157.694 33.5759 156.865 32.5399 156.865C31.5039 156.865 30.6641 157.694 30.6641 158.717C30.6641 159.741 31.5039 160.57 32.5399 160.57Z" fill="#F8F9FA"/>
</g>
</g>
<rect x="19.9219" y="175.241" width="30.8109" height="1.62163" rx="0.810813" fill="#D5DADF"/>
<rect x="19.9219" y="179.295" width="42.9731" height="1.62163" rx="0.810813" fill="#D5DADF"/>
<mask id="mask11_283_30711" style="mask-type:alpha" maskUnits="userSpaceOnUse" x="123" y="35" width="44" height="25">
<path fill-rule="evenodd" clip-rule="evenodd" d="M123.922 35.4058H166.895V59.7302H123.922V35.4058Z" fill="white"/>
</mask>
<g mask="url(#mask11_283_30711)">
<rect x="123.188" y="33.2793" width="45.4287" height="29.6572" fill="#E6E9EC"/>
<mask id="mask12_283_30711" style="mask-type:alpha" maskUnits="userSpaceOnUse" x="123" y="33" width="46" height="30">
<rect x="123.188" y="33.2793" width="45.4287" height="29.6572" fill="white"/>
</mask>
<g mask="url(#mask12_283_30711)">
<path d="M175.906 65.5983C175.906 65.5983 164.005 42.9652 154.999 41.1273C145.993 39.2893 142.466 57.0976 137.077 54.7357C136.076 54.297 130.557 48.0325 126.102 49.7901C122.897 51.0542 116.066 65.6811 116.066 65.6811H175.906V65.5983Z" fill="#F8F9FA"/>
<path d="M136.54 48.3294C137.576 48.3294 138.416 47.4999 138.416 46.4766C138.416 45.4533 137.576 44.6238 136.54 44.6238C135.504 44.6238 134.664 45.4533 134.664 46.4766C134.664 47.4999 135.504 48.3294 136.54 48.3294Z" fill="#F8F9FA"/>
</g>
</g>
<rect x="123.922" y="63" width="30.8109" height="1.62163" rx="0.810813" fill="#D5DADF"/>
<rect x="123.922" y="79.2163" width="25.946" height="1.62163" rx="0.810813" fill="#D5DADF"/>
<rect x="123.922" y="71.1082" width="38.1082" height="1.62163" rx="0.810813" fill="#D5DADF"/>
<rect x="123.922" y="67.054" width="42.9731" height="1.62163" rx="0.810813" fill="#D5DADF"/>
<rect x="123.922" y="75.1621" width="42.9731" height="1.62163" rx="0.810813" fill="#D5DADF"/>
<mask id="mask13_283_30711" style="mask-type:alpha" maskUnits="userSpaceOnUse" x="123" y="93" width="44" height="25">
<path fill-rule="evenodd" clip-rule="evenodd" d="M123.922 93.6465H166.895V117.971H123.922V93.6465Z" fill="white"/>
</mask>
<g mask="url(#mask13_283_30711)">
<rect x="123.188" y="91.52" width="45.4287" height="29.6572" fill="#E6E9EC"/>
<mask id="mask14_283_30711" style="mask-type:alpha" maskUnits="userSpaceOnUse" x="123" y="91" width="46" height="31">
<rect x="123.188" y="91.52" width="45.4287" height="29.6572" fill="white"/>
</mask>
<g mask="url(#mask14_283_30711)">
<path d="M175.906 123.839C175.906 123.839 164.005 101.206 154.999 99.368C145.993 97.53 142.466 115.338 137.077 112.976C136.076 112.538 130.557 106.273 126.102 108.031C122.897 109.295 116.066 123.922 116.066 123.922H175.906V123.839Z" fill="#F8F9FA"/>
<path d="M136.54 106.57C137.576 106.57 138.416 105.741 138.416 104.717C138.416 103.694 137.576 102.865 136.54 102.865C135.504 102.865 134.664 103.694 134.664 104.717C134.664 105.741 135.504 106.57 136.54 106.57Z" fill="#F8F9FA"/>
</g>
</g>
<rect x="123.922" y="121.241" width="30.8109" height="1.62163" rx="0.810813" fill="#D5DADF"/>
<rect x="123.922" y="137.457" width="25.946" height="1.62163" rx="0.810813" fill="#D5DADF"/>
<rect x="123.922" y="129.349" width="38.1082" height="1.62163" rx="0.810813" fill="#D5DADF"/>
<rect x="123.922" y="125.295" width="42.9731" height="1.62163" rx="0.810813" fill="#D5DADF"/>
<rect x="123.922" y="133.403" width="42.9731" height="1.62163" rx="0.810813" fill="#D5DADF"/>
<mask id="mask15_283_30711" style="mask-type:alpha" maskUnits="userSpaceOnUse" x="123" y="147" width="44" height="25">
<path fill-rule="evenodd" clip-rule="evenodd" d="M123.922 147.646H166.895V171.971H123.922V147.646Z" fill="white"/>
</mask>
<g mask="url(#mask15_283_30711)">
<rect x="123.188" y="145.52" width="45.4287" height="29.6572" fill="#E6E9EC"/>
<mask id="mask16_283_30711" style="mask-type:alpha" maskUnits="userSpaceOnUse" x="123" y="145" width="46" height="31">
<rect x="123.188" y="145.52" width="45.4287" height="29.6572" fill="white"/>
</mask>
<g mask="url(#mask16_283_30711)">
<path d="M175.906 177.839C175.906 177.839 164.005 155.206 154.999 153.368C145.993 151.53 142.466 169.338 137.077 166.976C136.076 166.538 130.557 160.273 126.102 162.031C122.897 163.295 116.066 177.922 116.066 177.922H175.906V177.839Z" fill="#F8F9FA"/>
<path d="M136.54 160.57C137.576 160.57 138.416 159.741 138.416 158.717C138.416 157.694 137.576 156.865 136.54 156.865C135.504 156.865 134.664 157.694 134.664 158.717C134.664 159.741 135.504 160.57 136.54 160.57Z" fill="#F8F9FA"/>
</g>
</g>
<rect x="123.922" y="175.241" width="30.8109" height="1.62163" rx="0.810813" fill="#D5DADF"/>
<rect x="123.922" y="179.295" width="42.9731" height="1.62163" rx="0.810813" fill="#D5DADF"/>
<path d="M21.1185 20.8586V21.6465H18.2244V20.8586H21.1185ZM18.5015 15.8821V21.6465H17.5078V15.8821H18.5015ZM21.6094 19.5521V19.4611C21.6094 19.1523 21.6543 18.8659 21.744 18.602C21.8337 18.3354 21.9631 18.1045 22.132 17.9091C22.3035 17.7112 22.5121 17.5581 22.7575 17.4499C23.0056 17.339 23.2854 17.2836 23.5968 17.2836C23.9109 17.2836 24.1907 17.339 24.4362 17.4499C24.6843 17.5581 24.8941 17.7112 25.0656 17.9091C25.2372 18.1045 25.3678 18.3354 25.4576 18.602C25.5473 18.8659 25.5922 19.1523 25.5922 19.4611V19.5521C25.5922 19.861 25.5473 20.1473 25.4576 20.4113C25.3678 20.6752 25.2372 20.9061 25.0656 21.1041C24.8941 21.2994 24.6856 21.4525 24.4401 21.5633C24.1946 21.6716 23.9162 21.7257 23.6048 21.7257C23.2907 21.7257 23.0096 21.6716 22.7615 21.5633C22.516 21.4525 22.3075 21.2994 22.1359 21.1041C21.9644 20.9061 21.8337 20.6752 21.744 20.4113C21.6543 20.1473 21.6094 19.861 21.6094 19.5521ZM22.5635 19.4611V19.5521C22.5635 19.7448 22.5833 19.9269 22.6229 20.0985C22.6625 20.2701 22.7245 20.4205 22.809 20.5498C22.8934 20.6792 23.0017 20.7808 23.1336 20.8547C23.2656 20.9286 23.4226 20.9655 23.6048 20.9655C23.7816 20.9655 23.9347 20.9286 24.064 20.8547C24.196 20.7808 24.3042 20.6792 24.3886 20.5498C24.4731 20.4205 24.5351 20.2701 24.5747 20.0985C24.6169 19.9269 24.6381 19.7448 24.6381 19.5521V19.4611C24.6381 19.2711 24.6169 19.0916 24.5747 18.9227C24.5351 18.7511 24.4718 18.5993 24.3847 18.4674C24.3002 18.3354 24.192 18.2325 24.06 18.1586C23.9307 18.082 23.7763 18.0437 23.5968 18.0437C23.4174 18.0437 23.2616 18.082 23.1297 18.1586C23.0003 18.2325 22.8934 18.3354 22.809 18.4674C22.7245 18.5993 22.6625 18.7511 22.6229 18.9227C22.5833 19.0916 22.5635 19.2711 22.5635 19.4611ZM26.2098 19.5521V19.4611C26.2098 19.1523 26.2547 18.8659 26.3444 18.602C26.4342 18.3354 26.5635 18.1045 26.7324 17.9091C26.904 17.7112 27.1125 17.5581 27.3579 17.4499C27.606 17.339 27.8858 17.2836 28.1972 17.2836C28.5113 17.2836 28.7911 17.339 29.0366 17.4499C29.2847 17.5581 29.4945 17.7112 29.6661 17.9091C29.8376 18.1045 29.9683 18.3354 30.058 18.602C30.1477 18.8659 30.1926 19.1523 30.1926 19.4611V19.5521C30.1926 19.861 30.1477 20.1473 30.058 20.4113C29.9683 20.6752 29.8376 20.9061 29.6661 21.1041C29.4945 21.2994 29.286 21.4525 29.0405 21.5633C28.7951 21.6716 28.5166 21.7257 28.2052 21.7257C27.8911 21.7257 27.61 21.6716 27.3619 21.5633C27.1164 21.4525 26.9079 21.2994 26.7364 21.1041C26.5648 20.9061 26.4342 20.6752 26.3444 20.4113C26.2547 20.1473 26.2098 19.861 26.2098 19.5521ZM27.1639 19.4611V19.5521C27.1639 19.7448 27.1837 19.9269 27.2233 20.0985C27.2629 20.2701 27.3249 20.4205 27.4094 20.5498C27.4939 20.6792 27.6021 20.7808 27.734 20.8547C27.866 20.9286 28.0231 20.9655 28.2052 20.9655C28.382 20.9655 28.5351 20.9286 28.6644 20.8547C28.7964 20.7808 28.9046 20.6792 28.9891 20.5498C29.0735 20.4205 29.1355 20.2701 29.1751 20.0985C29.2174 19.9269 29.2385 19.7448 29.2385 19.5521V19.4611C29.2385 19.2711 29.2174 19.0916 29.1751 18.9227C29.1355 18.7511 29.0722 18.5993 28.9851 18.4674C28.9006 18.3354 28.7924 18.2325 28.6605 18.1586C28.5311 18.082 28.3767 18.0437 28.1972 18.0437C28.0178 18.0437 27.8621 18.082 27.7301 18.1586C27.6008 18.2325 27.4939 18.3354 27.4094 18.4674C27.3249 18.5993 27.2629 18.7511 27.2233 18.9227C27.1837 19.0916 27.1639 19.2711 27.1639 19.4611ZM31.9504 18.1863V23.2934H30.9963V17.3628H31.8752L31.9504 18.1863ZM34.7416 19.465V19.5482C34.7416 19.8596 34.7046 20.1486 34.6307 20.4152C34.5594 20.6792 34.4525 20.9101 34.31 21.1081C34.1701 21.3034 33.9973 21.4551 33.7914 21.5633C33.5855 21.6716 33.348 21.7257 33.0788 21.7257C32.8122 21.7257 32.5786 21.6768 32.378 21.5792C32.1801 21.4789 32.0125 21.3377 31.8752 21.1556C31.738 20.9734 31.6271 20.7597 31.5426 20.5142C31.4608 20.2661 31.4028 19.9942 31.3684 19.6986V19.3779C31.4028 19.0639 31.4608 18.7788 31.5426 18.5228C31.6271 18.2668 31.738 18.0464 31.8752 17.8616C32.0125 17.6769 32.1801 17.5344 32.378 17.4341C32.576 17.3338 32.8069 17.2836 33.0708 17.2836C33.3401 17.2836 33.5789 17.3364 33.7874 17.442C33.9959 17.5449 34.1715 17.6927 34.314 17.8854C34.4565 18.0754 34.5634 18.305 34.6347 18.5743C34.7059 18.8408 34.7416 19.1378 34.7416 19.465ZM33.7874 19.5482V19.465C33.7874 19.2671 33.769 19.0837 33.732 18.9147C33.6951 18.7432 33.637 18.5927 33.5578 18.4634C33.4786 18.3341 33.377 18.2338 33.253 18.1625C33.1315 18.0886 32.9851 18.0517 32.8135 18.0517C32.6446 18.0517 32.4994 18.0807 32.378 18.1388C32.2566 18.1942 32.155 18.2721 32.0732 18.3724C31.9913 18.4726 31.928 18.5901 31.8831 18.7247C31.8383 18.8567 31.8066 19.0005 31.7881 19.1562V19.9243C31.8198 20.1143 31.8739 20.2885 31.9504 20.4469C32.027 20.6053 32.1352 20.7319 32.2751 20.827C32.4176 20.9193 32.5997 20.9655 32.8214 20.9655C32.993 20.9655 33.1395 20.9286 33.2609 20.8547C33.3823 20.7808 33.4813 20.6792 33.5578 20.5498C33.637 20.4179 33.6951 20.2661 33.732 20.0945C33.769 19.923 33.7874 19.7409 33.7874 19.5482ZM39.8487 15.8821V21.6465H38.8629V15.8821H39.8487ZM41.658 15.8821V16.6739H37.0695V15.8821H41.658ZM43.3446 17.3628V21.6465H42.3865V17.3628H43.3446ZM42.3231 16.2384C42.3231 16.0933 42.3706 15.9732 42.4657 15.8781C42.5633 15.7805 42.6979 15.7317 42.8695 15.7317C43.0384 15.7317 43.1717 15.7805 43.2694 15.8781C43.367 15.9732 43.4158 16.0933 43.4158 16.2384C43.4158 16.3809 43.367 16.4997 43.2694 16.5947C43.1717 16.6898 43.0384 16.7373 42.8695 16.7373C42.6979 16.7373 42.5633 16.6898 42.4657 16.5947C42.3706 16.4997 42.3231 16.3809 42.3231 16.2384ZM46.3535 17.3628V18.0596H43.9384V17.3628H46.3535ZM44.6352 16.3136H45.5894V20.4627C45.5894 20.5947 45.6078 20.6963 45.6448 20.7676C45.6844 20.8362 45.7385 20.8824 45.8071 20.9061C45.8757 20.9299 45.9562 20.9418 46.0486 20.9418C46.1146 20.9418 46.1779 20.9378 46.2386 20.9299C46.2993 20.922 46.3482 20.9141 46.3851 20.9061L46.3891 21.6346C46.3099 21.6584 46.2175 21.6795 46.112 21.698C46.009 21.7164 45.8902 21.7257 45.7556 21.7257C45.5366 21.7257 45.3426 21.6874 45.1737 21.6109C45.0047 21.5317 44.8728 21.4037 44.7778 21.2268C44.6827 21.05 44.6352 20.8151 44.6352 20.5221V16.3136ZM48.1113 15.5654V21.6465H47.1532V15.5654H48.1113ZM51.0449 21.7257C50.7282 21.7257 50.4418 21.6742 50.1858 21.5713C49.9324 21.4657 49.716 21.3192 49.5365 21.1318C49.3597 20.9444 49.2238 20.724 49.1287 20.4706C49.0337 20.2173 48.9862 19.9441 48.9862 19.6511V19.4928C48.9862 19.1576 49.035 18.854 49.1327 18.5822C49.2304 18.3103 49.3663 18.0781 49.5405 17.8854C49.7147 17.6901 49.9206 17.5409 50.1581 17.438C50.3956 17.3351 50.653 17.2836 50.9301 17.2836C51.2363 17.2836 51.5042 17.3351 51.7338 17.438C51.9634 17.5409 52.1535 17.6861 52.3039 17.8735C52.457 18.0583 52.5705 18.2787 52.6444 18.5347C52.7209 18.7907 52.7592 19.0731 52.7592 19.3819V19.7897H49.4494V19.1048H51.8169V19.0296C51.8117 18.858 51.7774 18.697 51.714 18.5465C51.6533 18.3961 51.5596 18.2747 51.4329 18.1823C51.3062 18.0899 51.1373 18.0437 50.9262 18.0437C50.7678 18.0437 50.6266 18.0781 50.5025 18.1467C50.3811 18.2127 50.2795 18.309 50.1977 18.4357C50.1159 18.5624 50.0525 18.7155 50.0077 18.8949C49.9654 19.0718 49.9443 19.2711 49.9443 19.4928V19.6511C49.9443 19.8385 49.9694 20.0127 50.0195 20.1737C50.0723 20.3321 50.1489 20.4706 50.2492 20.5894C50.3495 20.7082 50.4709 20.8019 50.6134 20.8705C50.7559 20.9365 50.9182 20.9695 51.1004 20.9695C51.33 20.9695 51.5345 20.9233 51.714 20.8309C51.8935 20.7385 52.0492 20.6079 52.1812 20.439L52.684 20.9259C52.5916 21.0605 52.4715 21.1899 52.3237 21.3139C52.1759 21.4353 51.9951 21.5343 51.7813 21.6109C51.5702 21.6874 51.3247 21.7257 51.0449 21.7257Z" fill="#A4AFB7"/>
<mask id="mask17_283_30711" style="mask-type:alpha" maskUnits="userSpaceOnUse" x="19" y="35" width="44" height="25">
<path fill-rule="evenodd" clip-rule="evenodd" d="M19.8398 35.4058H62.813V59.7302H19.8398V35.4058Z" fill="white"/>
</mask>
<g mask="url(#mask17_283_30711)">
<rect x="19.1055" y="33.2793" width="45.4287" height="29.6572" fill="#A4AFB7"/>
<mask id="mask18_283_30711" style="mask-type:alpha" maskUnits="userSpaceOnUse" x="19" y="33" width="46" height="30">
<rect x="19.1055" y="33.2793" width="45.4287" height="29.6572" fill="white"/>
</mask>
<g mask="url(#mask18_283_30711)">
<path d="M71.8242 65.5983C71.8242 65.5983 59.9234 42.9652 50.9174 41.1273C41.9113 39.2893 38.3839 57.0976 32.9946 54.7357C31.9936 54.297 26.4751 48.0325 22.0195 49.7901C18.8148 51.0542 11.9842 65.6811 11.9842 65.6811H71.8242V65.5983Z" fill="#F8F9FA"/>
<path d="M32.4579 48.3294C33.4939 48.3294 34.3338 47.4999 34.3338 46.4766C34.3338 45.4533 33.4939 44.6238 32.4579 44.6238C31.4219 44.6238 30.582 45.4533 30.582 46.4766C30.582 47.4999 31.4219 48.3294 32.4579 48.3294Z" fill="#F8F9FA"/>
</g>
</g>
<rect x="19.8398" y="63" width="30.8109" height="1.62163" rx="0.810813" fill="#A4AFB7"/>
<rect x="19.8398" y="79.2163" width="25.946" height="1.62163" rx="0.810813" fill="#A4AFB7"/>
<rect x="19.8398" y="71.1082" width="38.1082" height="1.62163" rx="0.810813" fill="#A4AFB7"/>
<rect x="19.8398" y="67.054" width="42.9731" height="1.62163" rx="0.810813" fill="#A4AFB7"/>
<rect x="19.8398" y="75.1621" width="42.9731" height="1.62163" rx="0.810813" fill="#A4AFB7"/>
<rect x="17.4219" y="33.1465" width="48" height="51" stroke="#A4AFB7"/>
</g>
</svg>
